%TF.GenerationSoftware,KiCad,Pcbnew,5.1.12-84ad8e8a86~92~ubuntu18.04.1*%
%TF.CreationDate,2023-08-16T23:14:37+02:00*%
%TF.ProjectId,EPROM-27512-GLS27SF512-v2,4550524f-4d2d-4323-9735-31322d474c53,r1*%
%TF.SameCoordinates,Original*%
%TF.FileFunction,Soldermask,Bot*%
%TF.FilePolarity,Negative*%
%FSLAX46Y46*%
G04 Gerber Fmt 4.6, Leading zero omitted, Abs format (unit mm)*
G04 Created by KiCad (PCBNEW 5.1.12-84ad8e8a86~92~ubuntu18.04.1) date 2023-08-16 23:14:37*
%MOMM*%
%LPD*%
G01*
G04 APERTURE LIST*
%ADD10C,1.422400*%
%ADD11R,1.422400X1.422400*%
%ADD12R,1.600000X1.600000*%
%ADD13O,1.600000X1.600000*%
G04 APERTURE END LIST*
D10*
%TO.C,U102*%
X100940000Y-83690000D03*
X100940000Y-86230000D03*
X100940000Y-88770000D03*
X100940000Y-91310000D03*
X98400000Y-86230000D03*
X98400000Y-88770000D03*
X98400000Y-91310000D03*
X98400000Y-93850000D03*
X98400000Y-96390000D03*
X95860000Y-96390000D03*
X93320000Y-96390000D03*
X90780000Y-96390000D03*
X100940000Y-93850000D03*
X95860000Y-93850000D03*
X93320000Y-93850000D03*
X90780000Y-93850000D03*
X88240000Y-93850000D03*
X88240000Y-91310000D03*
X88240000Y-88770000D03*
X88240000Y-86230000D03*
X88240000Y-83690000D03*
X90780000Y-91310000D03*
X90780000Y-88770000D03*
X90780000Y-86230000D03*
X90780000Y-83690000D03*
X98400000Y-81150000D03*
X95860000Y-81150000D03*
X90780000Y-81150000D03*
X93320000Y-81150000D03*
X98400000Y-83690000D03*
X93320000Y-83690000D03*
D11*
X95860000Y-83690000D03*
%TD*%
D12*
%TO.C,U101*%
X86952401Y-69723201D03*
D13*
X102192401Y-102743201D03*
X86952401Y-72263201D03*
X102192401Y-100203201D03*
X86952401Y-74803201D03*
X102192401Y-97663201D03*
X86952401Y-77343201D03*
X102192401Y-95123201D03*
X86952401Y-79883201D03*
X102192401Y-92583201D03*
X86952401Y-82423201D03*
X102192401Y-90043201D03*
X86952401Y-84963201D03*
X102192401Y-87503201D03*
X86952401Y-87503201D03*
X102192401Y-84963201D03*
X86952401Y-90043201D03*
X102192401Y-82423201D03*
X86952401Y-92583201D03*
X102192401Y-79883201D03*
X86952401Y-95123201D03*
X102192401Y-77343201D03*
X86952401Y-97663201D03*
X102192401Y-74803201D03*
X86952401Y-100203201D03*
X102192401Y-72263201D03*
X86952401Y-102743201D03*
X102192401Y-69723201D03*
%TD*%
M02*
