%TF.GenerationSoftware,KiCad,Pcbnew,5.1.12-84ad8e8a86~92~ubuntu18.04.1*%
%TF.CreationDate,2023-08-16T23:14:37+02:00*%
%TF.ProjectId,EPROM-27512-GLS27SF512-v2,4550524f-4d2d-4323-9735-31322d474c53,r1*%
%TF.SameCoordinates,Original*%
%TF.FileFunction,Legend,Top*%
%TF.FilePolarity,Positive*%
%FSLAX46Y46*%
G04 Gerber Fmt 4.6, Leading zero omitted, Abs format (unit mm)*
G04 Created by KiCad (PCBNEW 5.1.12-84ad8e8a86~92~ubuntu18.04.1) date 2023-08-16 23:14:37*
%MOMM*%
%LPD*%
G01*
G04 APERTURE LIST*
%ADD10C,0.150000*%
%ADD11C,0.350000*%
%ADD12C,0.120000*%
G04 APERTURE END LIST*
D10*
X99005714Y-72345714D02*
X99243809Y-73012380D01*
X99481904Y-72345714D01*
X99815238Y-72107619D02*
X99862857Y-72060000D01*
X99958095Y-72012380D01*
X100196190Y-72012380D01*
X100291428Y-72060000D01*
X100339047Y-72107619D01*
X100386666Y-72202857D01*
X100386666Y-72298095D01*
X100339047Y-72440952D01*
X99767619Y-73012380D01*
X100386666Y-73012380D01*
X98722380Y-103442380D02*
X98722380Y-102775714D01*
X98722380Y-102966190D02*
X98770000Y-102870952D01*
X98817619Y-102823333D01*
X98912857Y-102775714D01*
X99008095Y-102775714D01*
X99865238Y-103442380D02*
X99293809Y-103442380D01*
X99579523Y-103442380D02*
X99579523Y-102442380D01*
X99484285Y-102585238D01*
X99389047Y-102680476D01*
X99293809Y-102728095D01*
X90885238Y-77030000D02*
X90790000Y-76982380D01*
X90647142Y-76982380D01*
X90504285Y-77030000D01*
X90409047Y-77125238D01*
X90361428Y-77220476D01*
X90313809Y-77410952D01*
X90313809Y-77553809D01*
X90361428Y-77744285D01*
X90409047Y-77839523D01*
X90504285Y-77934761D01*
X90647142Y-77982380D01*
X90742380Y-77982380D01*
X90885238Y-77934761D01*
X90932857Y-77887142D01*
X90932857Y-77553809D01*
X90742380Y-77553809D01*
X91837619Y-77982380D02*
X91361428Y-77982380D01*
X91361428Y-76982380D01*
X92123333Y-77934761D02*
X92266190Y-77982380D01*
X92504285Y-77982380D01*
X92599523Y-77934761D01*
X92647142Y-77887142D01*
X92694761Y-77791904D01*
X92694761Y-77696666D01*
X92647142Y-77601428D01*
X92599523Y-77553809D01*
X92504285Y-77506190D01*
X92313809Y-77458571D01*
X92218571Y-77410952D01*
X92170952Y-77363333D01*
X92123333Y-77268095D01*
X92123333Y-77172857D01*
X92170952Y-77077619D01*
X92218571Y-77030000D01*
X92313809Y-76982380D01*
X92551904Y-76982380D01*
X92694761Y-77030000D01*
X93075714Y-77077619D02*
X93123333Y-77030000D01*
X93218571Y-76982380D01*
X93456666Y-76982380D01*
X93551904Y-77030000D01*
X93599523Y-77077619D01*
X93647142Y-77172857D01*
X93647142Y-77268095D01*
X93599523Y-77410952D01*
X93028095Y-77982380D01*
X93647142Y-77982380D01*
X93980476Y-76982380D02*
X94647142Y-76982380D01*
X94218571Y-77982380D01*
X94980476Y-77934761D02*
X95123333Y-77982380D01*
X95361428Y-77982380D01*
X95456666Y-77934761D01*
X95504285Y-77887142D01*
X95551904Y-77791904D01*
X95551904Y-77696666D01*
X95504285Y-77601428D01*
X95456666Y-77553809D01*
X95361428Y-77506190D01*
X95170952Y-77458571D01*
X95075714Y-77410952D01*
X95028095Y-77363333D01*
X94980476Y-77268095D01*
X94980476Y-77172857D01*
X95028095Y-77077619D01*
X95075714Y-77030000D01*
X95170952Y-76982380D01*
X95409047Y-76982380D01*
X95551904Y-77030000D01*
X96313809Y-77458571D02*
X95980476Y-77458571D01*
X95980476Y-77982380D02*
X95980476Y-76982380D01*
X96456666Y-76982380D01*
X97313809Y-76982380D02*
X96837619Y-76982380D01*
X96790000Y-77458571D01*
X96837619Y-77410952D01*
X96932857Y-77363333D01*
X97170952Y-77363333D01*
X97266190Y-77410952D01*
X97313809Y-77458571D01*
X97361428Y-77553809D01*
X97361428Y-77791904D01*
X97313809Y-77887142D01*
X97266190Y-77934761D01*
X97170952Y-77982380D01*
X96932857Y-77982380D01*
X96837619Y-77934761D01*
X96790000Y-77887142D01*
X98313809Y-77982380D02*
X97742380Y-77982380D01*
X98028095Y-77982380D02*
X98028095Y-76982380D01*
X97932857Y-77125238D01*
X97837619Y-77220476D01*
X97742380Y-77268095D01*
X98694761Y-77077619D02*
X98742380Y-77030000D01*
X98837619Y-76982380D01*
X99075714Y-76982380D01*
X99170952Y-77030000D01*
X99218571Y-77077619D01*
X99266190Y-77172857D01*
X99266190Y-77268095D01*
X99218571Y-77410952D01*
X98647142Y-77982380D01*
X99266190Y-77982380D01*
D11*
X89589047Y-70655238D02*
X89684285Y-70560000D01*
X89874761Y-70464761D01*
X90350952Y-70464761D01*
X90541428Y-70560000D01*
X90636666Y-70655238D01*
X90731904Y-70845714D01*
X90731904Y-71036190D01*
X90636666Y-71321904D01*
X89493809Y-72464761D01*
X90731904Y-72464761D01*
X91398571Y-70464761D02*
X92731904Y-70464761D01*
X91874761Y-72464761D01*
X94446190Y-70464761D02*
X93493809Y-70464761D01*
X93398571Y-71417142D01*
X93493809Y-71321904D01*
X93684285Y-71226666D01*
X94160476Y-71226666D01*
X94350952Y-71321904D01*
X94446190Y-71417142D01*
X94541428Y-71607619D01*
X94541428Y-72083809D01*
X94446190Y-72274285D01*
X94350952Y-72369523D01*
X94160476Y-72464761D01*
X93684285Y-72464761D01*
X93493809Y-72369523D01*
X93398571Y-72274285D01*
X96446190Y-72464761D02*
X95303333Y-72464761D01*
X95874761Y-72464761D02*
X95874761Y-70464761D01*
X95684285Y-70750476D01*
X95493809Y-70940952D01*
X95303333Y-71036190D01*
X97208095Y-70655238D02*
X97303333Y-70560000D01*
X97493809Y-70464761D01*
X97970000Y-70464761D01*
X98160476Y-70560000D01*
X98255714Y-70655238D01*
X98350952Y-70845714D01*
X98350952Y-71036190D01*
X98255714Y-71321904D01*
X97112857Y-72464761D01*
X98350952Y-72464761D01*
D12*
%TO.C,U102*%
X93590000Y-78370000D02*
X86465000Y-78370000D01*
X86465000Y-78370000D02*
X85465000Y-79370000D01*
X85465000Y-79370000D02*
X85465000Y-99170000D01*
X85465000Y-99170000D02*
X103715000Y-99170000D01*
X103715000Y-99170000D02*
X103715000Y-78370000D01*
X103715000Y-78370000D02*
X95590000Y-78370000D01*
%TO.C,U101*%
X101032401Y-68393201D02*
X95572401Y-68393201D01*
X101032401Y-104073201D02*
X101032401Y-68393201D01*
X88112401Y-104073201D02*
X101032401Y-104073201D01*
X88112401Y-68393201D02*
X88112401Y-104073201D01*
X93572401Y-68393201D02*
X88112401Y-68393201D01*
X95572401Y-68393201D02*
G75*
G02*
X93572401Y-68393201I-1000000J0D01*
G01*
%TO.C,U102*%
D10*
X92395714Y-99472380D02*
X92395714Y-100281904D01*
X92443333Y-100377142D01*
X92490952Y-100424761D01*
X92586190Y-100472380D01*
X92776666Y-100472380D01*
X92871904Y-100424761D01*
X92919523Y-100377142D01*
X92967142Y-100281904D01*
X92967142Y-99472380D01*
X93967142Y-100472380D02*
X93395714Y-100472380D01*
X93681428Y-100472380D02*
X93681428Y-99472380D01*
X93586190Y-99615238D01*
X93490952Y-99710476D01*
X93395714Y-99758095D01*
X94586190Y-99472380D02*
X94681428Y-99472380D01*
X94776666Y-99520000D01*
X94824285Y-99567619D01*
X94871904Y-99662857D01*
X94919523Y-99853333D01*
X94919523Y-100091428D01*
X94871904Y-100281904D01*
X94824285Y-100377142D01*
X94776666Y-100424761D01*
X94681428Y-100472380D01*
X94586190Y-100472380D01*
X94490952Y-100424761D01*
X94443333Y-100377142D01*
X94395714Y-100281904D01*
X94348095Y-100091428D01*
X94348095Y-99853333D01*
X94395714Y-99662857D01*
X94443333Y-99567619D01*
X94490952Y-99520000D01*
X94586190Y-99472380D01*
X95300476Y-99567619D02*
X95348095Y-99520000D01*
X95443333Y-99472380D01*
X95681428Y-99472380D01*
X95776666Y-99520000D01*
X95824285Y-99567619D01*
X95871904Y-99662857D01*
X95871904Y-99758095D01*
X95824285Y-99900952D01*
X95252857Y-100472380D01*
X95871904Y-100472380D01*
%TO.C,U101*%
X92392714Y-102220780D02*
X92392714Y-103030304D01*
X92440333Y-103125542D01*
X92487952Y-103173161D01*
X92583190Y-103220780D01*
X92773666Y-103220780D01*
X92868904Y-103173161D01*
X92916523Y-103125542D01*
X92964142Y-103030304D01*
X92964142Y-102220780D01*
X93964142Y-103220780D02*
X93392714Y-103220780D01*
X93678428Y-103220780D02*
X93678428Y-102220780D01*
X93583190Y-102363638D01*
X93487952Y-102458876D01*
X93392714Y-102506495D01*
X94583190Y-102220780D02*
X94678428Y-102220780D01*
X94773666Y-102268400D01*
X94821285Y-102316019D01*
X94868904Y-102411257D01*
X94916523Y-102601733D01*
X94916523Y-102839828D01*
X94868904Y-103030304D01*
X94821285Y-103125542D01*
X94773666Y-103173161D01*
X94678428Y-103220780D01*
X94583190Y-103220780D01*
X94487952Y-103173161D01*
X94440333Y-103125542D01*
X94392714Y-103030304D01*
X94345095Y-102839828D01*
X94345095Y-102601733D01*
X94392714Y-102411257D01*
X94440333Y-102316019D01*
X94487952Y-102268400D01*
X94583190Y-102220780D01*
X95868904Y-103220780D02*
X95297476Y-103220780D01*
X95583190Y-103220780D02*
X95583190Y-102220780D01*
X95487952Y-102363638D01*
X95392714Y-102458876D01*
X95297476Y-102506495D01*
%TD*%
M02*
