%TF.GenerationSoftware,KiCad,Pcbnew,5.1.12-84ad8e8a86~92~ubuntu18.04.1*%
%TF.CreationDate,2023-06-26T22:09:47+02:00*%
%TF.ProjectId,PROGRAMMER-GLS27SF512,50524f47-5241-44d4-9d45-522d474c5332,1*%
%TF.SameCoordinates,Original*%
%TF.FileFunction,Legend,Bot*%
%TF.FilePolarity,Positive*%
%FSLAX46Y46*%
G04 Gerber Fmt 4.6, Leading zero omitted, Abs format (unit mm)*
G04 Created by KiCad (PCBNEW 5.1.12-84ad8e8a86~92~ubuntu18.04.1) date 2023-06-26 22:09:47*
%MOMM*%
%LPD*%
G01*
G04 APERTURE LIST*
%ADD10C,0.120000*%
%ADD11C,0.150000*%
G04 APERTURE END LIST*
D10*
%TO.C,JP101*%
X78359000Y-59239000D02*
X78059000Y-59539000D01*
X78659000Y-59539000D02*
X78059000Y-59539000D01*
X78359000Y-59239000D02*
X78659000Y-59539000D01*
X79109000Y-59039000D02*
X79109000Y-57039000D01*
X75009000Y-59039000D02*
X79109000Y-59039000D01*
X75009000Y-57039000D02*
X75009000Y-59039000D01*
X79109000Y-57039000D02*
X75009000Y-57039000D01*
D11*
X78844714Y-55691380D02*
X78844714Y-56405666D01*
X78892333Y-56548523D01*
X78987571Y-56643761D01*
X79130428Y-56691380D01*
X79225666Y-56691380D01*
X78368523Y-56691380D02*
X78368523Y-55691380D01*
X77987571Y-55691380D01*
X77892333Y-55739000D01*
X77844714Y-55786619D01*
X77797095Y-55881857D01*
X77797095Y-56024714D01*
X77844714Y-56119952D01*
X77892333Y-56167571D01*
X77987571Y-56215190D01*
X78368523Y-56215190D01*
X76844714Y-56691380D02*
X77416142Y-56691380D01*
X77130428Y-56691380D02*
X77130428Y-55691380D01*
X77225666Y-55834238D01*
X77320904Y-55929476D01*
X77416142Y-55977095D01*
X76225666Y-55691380D02*
X76130428Y-55691380D01*
X76035190Y-55739000D01*
X75987571Y-55786619D01*
X75939952Y-55881857D01*
X75892333Y-56072333D01*
X75892333Y-56310428D01*
X75939952Y-56500904D01*
X75987571Y-56596142D01*
X76035190Y-56643761D01*
X76130428Y-56691380D01*
X76225666Y-56691380D01*
X76320904Y-56643761D01*
X76368523Y-56596142D01*
X76416142Y-56500904D01*
X76463761Y-56310428D01*
X76463761Y-56072333D01*
X76416142Y-55881857D01*
X76368523Y-55786619D01*
X76320904Y-55739000D01*
X76225666Y-55691380D01*
X74939952Y-56691380D02*
X75511380Y-56691380D01*
X75225666Y-56691380D02*
X75225666Y-55691380D01*
X75320904Y-55834238D01*
X75416142Y-55929476D01*
X75511380Y-55977095D01*
%TD*%
M02*
