%TF.GenerationSoftware,KiCad,Pcbnew,5.1.12-84ad8e8a86~92~ubuntu18.04.1*%
%TF.CreationDate,2023-06-26T22:09:47+02:00*%
%TF.ProjectId,PROGRAMMER-GLS27SF512,50524f47-5241-44d4-9d45-522d474c5332,1*%
%TF.SameCoordinates,Original*%
%TF.FileFunction,Soldermask,Bot*%
%TF.FilePolarity,Negative*%
%FSLAX46Y46*%
G04 Gerber Fmt 4.6, Leading zero omitted, Abs format (unit mm)*
G04 Created by KiCad (PCBNEW 5.1.12-84ad8e8a86~92~ubuntu18.04.1) date 2023-06-26 22:09:47*
%MOMM*%
%LPD*%
G01*
G04 APERTURE LIST*
%ADD10R,1.000000X1.500000*%
%ADD11O,1.600000X1.600000*%
%ADD12R,1.600000X1.600000*%
%ADD13C,2.000000*%
%ADD14C,1.600000*%
%ADD15C,1.422400*%
%ADD16R,1.422400X1.422400*%
%ADD17R,1.800000X1.800000*%
%ADD18O,1.800000X1.800000*%
%ADD19O,1.800000X4.000000*%
%ADD20O,4.000000X1.800000*%
%ADD21R,4.400000X1.800000*%
%ADD22R,1.700000X1.700000*%
%ADD23O,1.700000X1.700000*%
%ADD24R,2.400000X1.600000*%
%ADD25O,2.400000X1.600000*%
%ADD26R,1.524000X3.990000*%
%ADD27R,3.990000X1.524000*%
%ADD28O,1.600000X2.400000*%
%ADD29R,1.600000X2.400000*%
G04 APERTURE END LIST*
D10*
%TO.C,JP101*%
X77059000Y-58039000D03*
X75759000Y-58039000D03*
X78359000Y-58039000D03*
%TD*%
D11*
%TO.C,U108*%
X120472200Y-111963200D03*
X117932200Y-111963200D03*
X115392200Y-111963200D03*
X112852200Y-111963200D03*
X112852200Y-101803200D03*
X115392200Y-101803200D03*
X117932200Y-101803200D03*
X120472200Y-101803200D03*
X125552200Y-111963200D03*
X123012200Y-101803200D03*
X123012200Y-111963200D03*
D12*
X125552200Y-101803200D03*
%TD*%
D11*
%TO.C,U104*%
X110312200Y-95808800D03*
X107772200Y-95808800D03*
X105232200Y-95808800D03*
X102692200Y-95808800D03*
X102692200Y-85648800D03*
X105232200Y-85648800D03*
X107772200Y-85648800D03*
X110312200Y-85648800D03*
X115392200Y-95808800D03*
X112852200Y-85648800D03*
X112852200Y-95808800D03*
D12*
X115392200Y-85648800D03*
%TD*%
D13*
%TO.C,C102*%
X94970600Y-159152600D03*
X94970600Y-154152600D03*
%TD*%
D14*
%TO.C,C101*%
X100507800Y-154980000D03*
D12*
X100507800Y-157480000D03*
%TD*%
D15*
%TO.C,U105*%
X99161600Y-133197600D03*
X99161600Y-130657600D03*
X99161600Y-128117600D03*
X99161600Y-125577600D03*
X101701600Y-130657600D03*
X101701600Y-128117600D03*
X101701600Y-125577600D03*
X101701600Y-123037600D03*
X101701600Y-120497600D03*
X104241600Y-120497600D03*
X106781600Y-120497600D03*
X109321600Y-120497600D03*
X99161600Y-123037600D03*
X104241600Y-123037600D03*
X106781600Y-123037600D03*
X109321600Y-123037600D03*
X111861600Y-123037600D03*
X111861600Y-125577600D03*
X111861600Y-128117600D03*
X111861600Y-130657600D03*
X111861600Y-133197600D03*
X109321600Y-125577600D03*
X109321600Y-128117600D03*
X109321600Y-130657600D03*
X109321600Y-133197600D03*
X101701600Y-135737600D03*
X104241600Y-135737600D03*
X109321600Y-135737600D03*
X106781600Y-135737600D03*
X101701600Y-133197600D03*
X106781600Y-133197600D03*
D16*
X104241600Y-133197600D03*
%TD*%
D17*
%TO.C,D105*%
X75082400Y-110845600D03*
D18*
X67462400Y-110845600D03*
%TD*%
%TO.C,D106*%
X83642200Y-110871000D03*
D17*
X91262200Y-110871000D03*
%TD*%
D19*
%TO.C,J101*%
X72568400Y-65427600D03*
D20*
X77368400Y-62627600D03*
D21*
X77368400Y-68427600D03*
%TD*%
D22*
%TO.C,J102*%
X66624200Y-59461400D03*
D23*
X66624200Y-62001400D03*
X66624200Y-64541400D03*
X66624200Y-67081400D03*
%TD*%
D24*
%TO.C,K101*%
X67614800Y-87706200D03*
D25*
X75234800Y-105486200D03*
X67614800Y-90246200D03*
X75234800Y-102946200D03*
X67614800Y-92786200D03*
X75234800Y-100406200D03*
X67614800Y-95326200D03*
X75234800Y-97866200D03*
X67614800Y-97866200D03*
X75234800Y-95326200D03*
X67614800Y-100406200D03*
X75234800Y-92786200D03*
X67614800Y-102946200D03*
X75234800Y-90246200D03*
X67614800Y-105486200D03*
X75234800Y-87706200D03*
%TD*%
%TO.C,K102*%
X91592400Y-87757000D03*
X83972400Y-105537000D03*
X91592400Y-90297000D03*
X83972400Y-102997000D03*
X91592400Y-92837000D03*
X83972400Y-100457000D03*
X91592400Y-95377000D03*
X83972400Y-97917000D03*
X91592400Y-97917000D03*
X83972400Y-95377000D03*
X91592400Y-100457000D03*
X83972400Y-92837000D03*
X91592400Y-102997000D03*
X83972400Y-90297000D03*
X91592400Y-105537000D03*
D24*
X83972400Y-87757000D03*
%TD*%
D26*
%TO.C,U101*%
X141630400Y-60195400D03*
X139090400Y-60195400D03*
X136550400Y-60195400D03*
X134010400Y-60195400D03*
X131470400Y-60195400D03*
X128930400Y-60195400D03*
X126390400Y-60195400D03*
X123850400Y-60195400D03*
X121310400Y-60195400D03*
X118770400Y-60195400D03*
X116230400Y-60195400D03*
X113690400Y-60195400D03*
X111150400Y-60195400D03*
X108610400Y-60195400D03*
X106070400Y-60195400D03*
X103530400Y-60195400D03*
X100990400Y-60195400D03*
X98450400Y-60195400D03*
X95910400Y-60195400D03*
X93370400Y-60195400D03*
X93370400Y-79555400D03*
X95910400Y-79555400D03*
X98450400Y-79555400D03*
X100990400Y-79555400D03*
X103530400Y-79555400D03*
X106070400Y-79555400D03*
X108610400Y-79555400D03*
X111150400Y-79555400D03*
X113690400Y-79555400D03*
X116230400Y-79555400D03*
X118770400Y-79555400D03*
X121310400Y-79555400D03*
X123850400Y-79555400D03*
X126390400Y-79555400D03*
X128930400Y-79555400D03*
X131470400Y-79555400D03*
X134010400Y-79555400D03*
X136550400Y-79555400D03*
X139090400Y-79555400D03*
X141630400Y-79555400D03*
D27*
X92580400Y-67335400D03*
X92580400Y-69875400D03*
X92580400Y-72288400D03*
%TD*%
D24*
%TO.C,U102*%
X124206000Y-118795800D03*
D25*
X131826000Y-136575800D03*
X124206000Y-121335800D03*
X131826000Y-134035800D03*
X124206000Y-123875800D03*
X131826000Y-131495800D03*
X124206000Y-126415800D03*
X131826000Y-128955800D03*
X124206000Y-128955800D03*
X131826000Y-126415800D03*
X124206000Y-131495800D03*
X131826000Y-123875800D03*
X124206000Y-134035800D03*
X131826000Y-121335800D03*
X124206000Y-136575800D03*
X131826000Y-118795800D03*
%TD*%
D28*
%TO.C,U103*%
X115570000Y-144119600D03*
X133350000Y-151739600D03*
X118110000Y-144119600D03*
X130810000Y-151739600D03*
X120650000Y-144119600D03*
X128270000Y-151739600D03*
X123190000Y-144119600D03*
X125730000Y-151739600D03*
X125730000Y-144119600D03*
X123190000Y-151739600D03*
X128270000Y-144119600D03*
X120650000Y-151739600D03*
X130810000Y-144119600D03*
X118110000Y-151739600D03*
X133350000Y-144119600D03*
D29*
X115570000Y-151739600D03*
%TD*%
D12*
%TO.C,U107*%
X85293200Y-152069800D03*
D11*
X70053200Y-119049800D03*
X85293200Y-149529800D03*
X70053200Y-121589800D03*
X85293200Y-146989800D03*
X70053200Y-124129800D03*
X85293200Y-144449800D03*
X70053200Y-126669800D03*
X85293200Y-141909800D03*
X70053200Y-129209800D03*
X85293200Y-139369800D03*
X70053200Y-131749800D03*
X85293200Y-136829800D03*
X70053200Y-134289800D03*
X85293200Y-134289800D03*
X70053200Y-136829800D03*
X85293200Y-131749800D03*
X70053200Y-139369800D03*
X85293200Y-129209800D03*
X70053200Y-141909800D03*
X85293200Y-126669800D03*
X70053200Y-144449800D03*
X85293200Y-124129800D03*
X70053200Y-146989800D03*
X85293200Y-121589800D03*
X70053200Y-149529800D03*
X85293200Y-119049800D03*
X70053200Y-152069800D03*
%TD*%
M02*
