%TF.GenerationSoftware,KiCad,Pcbnew,5.1.12-84ad8e8a86~92~ubuntu18.04.1*%
%TF.CreationDate,2023-06-26T22:09:47+02:00*%
%TF.ProjectId,PROGRAMMER-GLS27SF512,50524f47-5241-44d4-9d45-522d474c5332,1*%
%TF.SameCoordinates,Original*%
%TF.FileFunction,Copper,L2,Bot*%
%TF.FilePolarity,Positive*%
%FSLAX46Y46*%
G04 Gerber Fmt 4.6, Leading zero omitted, Abs format (unit mm)*
G04 Created by KiCad (PCBNEW 5.1.12-84ad8e8a86~92~ubuntu18.04.1) date 2023-06-26 22:09:47*
%MOMM*%
%LPD*%
G01*
G04 APERTURE LIST*
%TA.AperFunction,EtchedComponent*%
%ADD10C,0.100000*%
%TD*%
%TA.AperFunction,SMDPad,CuDef*%
%ADD11R,1.000000X1.500000*%
%TD*%
%TA.AperFunction,ComponentPad*%
%ADD12O,1.600000X1.600000*%
%TD*%
%TA.AperFunction,ComponentPad*%
%ADD13R,1.600000X1.600000*%
%TD*%
%TA.AperFunction,ComponentPad*%
%ADD14C,2.000000*%
%TD*%
%TA.AperFunction,ComponentPad*%
%ADD15C,1.600000*%
%TD*%
%TA.AperFunction,ComponentPad*%
%ADD16C,1.422400*%
%TD*%
%TA.AperFunction,ComponentPad*%
%ADD17R,1.422400X1.422400*%
%TD*%
%TA.AperFunction,ComponentPad*%
%ADD18R,1.800000X1.800000*%
%TD*%
%TA.AperFunction,ComponentPad*%
%ADD19O,1.800000X1.800000*%
%TD*%
%TA.AperFunction,ComponentPad*%
%ADD20O,1.800000X4.000000*%
%TD*%
%TA.AperFunction,ComponentPad*%
%ADD21O,4.000000X1.800000*%
%TD*%
%TA.AperFunction,ComponentPad*%
%ADD22R,4.400000X1.800000*%
%TD*%
%TA.AperFunction,ComponentPad*%
%ADD23R,1.700000X1.700000*%
%TD*%
%TA.AperFunction,ComponentPad*%
%ADD24O,1.700000X1.700000*%
%TD*%
%TA.AperFunction,ComponentPad*%
%ADD25R,2.400000X1.600000*%
%TD*%
%TA.AperFunction,ComponentPad*%
%ADD26O,2.400000X1.600000*%
%TD*%
%TA.AperFunction,ComponentPad*%
%ADD27R,1.524000X3.990000*%
%TD*%
%TA.AperFunction,ComponentPad*%
%ADD28R,3.990000X1.524000*%
%TD*%
%TA.AperFunction,ComponentPad*%
%ADD29O,1.600000X2.400000*%
%TD*%
%TA.AperFunction,ComponentPad*%
%ADD30R,1.600000X2.400000*%
%TD*%
%TA.AperFunction,ViaPad*%
%ADD31C,0.800000*%
%TD*%
%TA.AperFunction,Conductor*%
%ADD32C,0.350000*%
%TD*%
%TA.AperFunction,Conductor*%
%ADD33C,0.250000*%
%TD*%
G04 APERTURE END LIST*
D10*
%TO.C,JP101*%
G36*
X77959000Y-57739000D02*
G01*
X77459000Y-57739000D01*
X77459000Y-58339000D01*
X77959000Y-58339000D01*
X77959000Y-57739000D01*
G37*
%TD*%
D11*
%TO.P,JP101,2*%
%TO.N,+5V*%
X77059000Y-58039000D03*
%TO.P,JP101,3*%
%TO.N,+5F*%
X75759000Y-58039000D03*
%TO.P,JP101,1*%
%TO.N,/VUSB*%
X78359000Y-58039000D03*
%TD*%
D12*
%TO.P,U108,10*%
%TO.N,/dd2*%
X120472200Y-111963200D03*
%TO.P,U108,9*%
%TO.N,/dd3*%
X117932200Y-111963200D03*
%TO.P,U108,8*%
%TO.N,/dd4*%
X115392200Y-111963200D03*
%TO.P,U108,7*%
%TO.N,GND*%
X112852200Y-111963200D03*
%TO.P,U108,6*%
X112852200Y-101803200D03*
%TO.P,U108,5*%
%TO.N,/d4*%
X115392200Y-101803200D03*
%TO.P,U108,4*%
%TO.N,/d3*%
X117932200Y-101803200D03*
%TO.P,U108,3*%
%TO.N,/d2*%
X120472200Y-101803200D03*
%TO.P,U108,12*%
%TO.N,+5V*%
X125552200Y-111963200D03*
%TO.P,U108,2*%
%TO.N,/d1*%
X123012200Y-101803200D03*
%TO.P,U108,11*%
%TO.N,/dd1*%
X123012200Y-111963200D03*
D13*
%TO.P,U108,1*%
%TO.N,+3V3*%
X125552200Y-101803200D03*
%TD*%
D12*
%TO.P,U104,10*%
%TO.N,/dd6*%
X110312200Y-95808800D03*
%TO.P,U104,9*%
%TO.N,/dd7*%
X107772200Y-95808800D03*
%TO.P,U104,8*%
%TO.N,/dd8*%
X105232200Y-95808800D03*
%TO.P,U104,7*%
%TO.N,GND*%
X102692200Y-95808800D03*
%TO.P,U104,6*%
X102692200Y-85648800D03*
%TO.P,U104,5*%
%TO.N,/d8*%
X105232200Y-85648800D03*
%TO.P,U104,4*%
%TO.N,/d7*%
X107772200Y-85648800D03*
%TO.P,U104,3*%
%TO.N,/d6*%
X110312200Y-85648800D03*
%TO.P,U104,12*%
%TO.N,+5V*%
X115392200Y-95808800D03*
%TO.P,U104,2*%
%TO.N,/d5*%
X112852200Y-85648800D03*
%TO.P,U104,11*%
%TO.N,/dd5*%
X112852200Y-95808800D03*
D13*
%TO.P,U104,1*%
%TO.N,+3V3*%
X115392200Y-85648800D03*
%TD*%
D14*
%TO.P,C102,2*%
%TO.N,+5V*%
X94970600Y-159152600D03*
%TO.P,C102,1*%
%TO.N,GND*%
X94970600Y-154152600D03*
%TD*%
D15*
%TO.P,C101,2*%
%TO.N,GND*%
X100507800Y-154980000D03*
D13*
%TO.P,C101,1*%
%TO.N,+5V*%
X100507800Y-157480000D03*
%TD*%
D16*
%TO.P,U105,29*%
%TO.N,/a8*%
X99161600Y-133197600D03*
%TO.P,U105,27*%
%TO.N,/a11*%
X99161600Y-130657600D03*
%TO.P,U105,25*%
%TO.N,/_oe_vpp*%
X99161600Y-128117600D03*
%TO.P,U105,23*%
%TO.N,_ce_rom*%
X99161600Y-125577600D03*
%TO.P,U105,28*%
%TO.N,/a9_vpp*%
X101701600Y-130657600D03*
%TO.P,U105,26*%
%TO.N,Net-(U105-Pad26)*%
X101701600Y-128117600D03*
%TO.P,U105,24*%
%TO.N,/a10*%
X101701600Y-125577600D03*
%TO.P,U105,22*%
%TO.N,/dd8*%
X101701600Y-123037600D03*
%TO.P,U105,20*%
%TO.N,/dd6*%
X101701600Y-120497600D03*
%TO.P,U105,18*%
%TO.N,/dd4*%
X104241600Y-120497600D03*
%TO.P,U105,16*%
%TO.N,GND*%
X106781600Y-120497600D03*
%TO.P,U105,14*%
%TO.N,/dd2*%
X109321600Y-120497600D03*
%TO.P,U105,21*%
%TO.N,/dd7*%
X99161600Y-123037600D03*
%TO.P,U105,19*%
%TO.N,/dd5*%
X104241600Y-123037600D03*
%TO.P,U105,17*%
%TO.N,Net-(U105-Pad17)*%
X106781600Y-123037600D03*
%TO.P,U105,15*%
%TO.N,/dd3*%
X109321600Y-123037600D03*
%TO.P,U105,13*%
%TO.N,/dd1*%
X111861600Y-123037600D03*
%TO.P,U105,11*%
%TO.N,/a0*%
X111861600Y-125577600D03*
%TO.P,U105,9*%
%TO.N,/a2*%
X111861600Y-128117600D03*
%TO.P,U105,7*%
%TO.N,/a4*%
X111861600Y-130657600D03*
%TO.P,U105,5*%
%TO.N,/a6*%
X111861600Y-133197600D03*
%TO.P,U105,12*%
%TO.N,Net-(U105-Pad12)*%
X109321600Y-125577600D03*
%TO.P,U105,10*%
%TO.N,/a1*%
X109321600Y-128117600D03*
%TO.P,U105,8*%
%TO.N,/a3*%
X109321600Y-130657600D03*
%TO.P,U105,6*%
%TO.N,/a5*%
X109321600Y-133197600D03*
%TO.P,U105,30*%
%TO.N,/a13*%
X101701600Y-135737600D03*
%TO.P,U105,32*%
%TO.N,+5V*%
X104241600Y-135737600D03*
%TO.P,U105,4*%
%TO.N,/a7*%
X109321600Y-135737600D03*
%TO.P,U105,2*%
%TO.N,/a15*%
X106781600Y-135737600D03*
%TO.P,U105,31*%
%TO.N,/a14*%
X101701600Y-133197600D03*
%TO.P,U105,3*%
%TO.N,/a12*%
X106781600Y-133197600D03*
D17*
%TO.P,U105,1*%
%TO.N,Net-(U105-Pad1)*%
X104241600Y-133197600D03*
%TD*%
D18*
%TO.P,D105,1*%
%TO.N,+12V*%
X75082400Y-110845600D03*
D19*
%TO.P,D105,2*%
%TO.N,Net-(D105-Pad2)*%
X67462400Y-110845600D03*
%TD*%
%TO.P,D106,2*%
%TO.N,Net-(D106-Pad2)*%
X83642200Y-110871000D03*
D18*
%TO.P,D106,1*%
%TO.N,+12V*%
X91262200Y-110871000D03*
%TD*%
D20*
%TO.P,J101,3*%
%TO.N,N/C*%
X72568400Y-65427600D03*
D21*
%TO.P,J101,2*%
%TO.N,GND*%
X77368400Y-62627600D03*
D22*
%TO.P,J101,1*%
%TO.N,+12V*%
X77368400Y-68427600D03*
%TD*%
D23*
%TO.P,J102,1*%
%TO.N,Net-(J102-Pad1)*%
X66624200Y-59461400D03*
D24*
%TO.P,J102,2*%
%TO.N,+12V*%
X66624200Y-62001400D03*
%TO.P,J102,3*%
%TO.N,GND*%
X66624200Y-64541400D03*
%TO.P,J102,4*%
%TO.N,+5F*%
X66624200Y-67081400D03*
%TD*%
D25*
%TO.P,K101,1*%
%TO.N,Net-(D105-Pad2)*%
X67614800Y-87706200D03*
D26*
%TO.P,K101,9*%
%TO.N,Net-(K101-Pad9)*%
X75234800Y-105486200D03*
%TO.P,K101,2*%
%TO.N,N/C*%
X67614800Y-90246200D03*
%TO.P,K101,10*%
X75234800Y-102946200D03*
%TO.P,K101,3*%
X67614800Y-92786200D03*
%TO.P,K101,11*%
%TO.N,Net-(K101-Pad11)*%
X75234800Y-100406200D03*
%TO.P,K101,4*%
%TO.N,/a9_vpp*%
X67614800Y-95326200D03*
%TO.P,K101,12*%
%TO.N,N/C*%
X75234800Y-97866200D03*
%TO.P,K101,5*%
X67614800Y-97866200D03*
%TO.P,K101,13*%
%TO.N,Net-(K101-Pad13)*%
X75234800Y-95326200D03*
%TO.P,K101,6*%
%TO.N,/a9*%
X67614800Y-100406200D03*
%TO.P,K101,14*%
%TO.N,N/C*%
X75234800Y-92786200D03*
%TO.P,K101,7*%
X67614800Y-102946200D03*
%TO.P,K101,15*%
X75234800Y-90246200D03*
%TO.P,K101,8*%
%TO.N,+12V*%
X67614800Y-105486200D03*
%TO.P,K101,16*%
X75234800Y-87706200D03*
%TD*%
%TO.P,K102,16*%
%TO.N,+12V*%
X91592400Y-87757000D03*
%TO.P,K102,8*%
X83972400Y-105537000D03*
%TO.P,K102,15*%
%TO.N,N/C*%
X91592400Y-90297000D03*
%TO.P,K102,7*%
X83972400Y-102997000D03*
%TO.P,K102,14*%
X91592400Y-92837000D03*
%TO.P,K102,6*%
%TO.N,_oe_rom*%
X83972400Y-100457000D03*
%TO.P,K102,13*%
%TO.N,Net-(K102-Pad13)*%
X91592400Y-95377000D03*
%TO.P,K102,5*%
%TO.N,N/C*%
X83972400Y-97917000D03*
%TO.P,K102,12*%
X91592400Y-97917000D03*
%TO.P,K102,4*%
%TO.N,/_oe_vpp*%
X83972400Y-95377000D03*
%TO.P,K102,11*%
%TO.N,Net-(K102-Pad11)*%
X91592400Y-100457000D03*
%TO.P,K102,3*%
%TO.N,N/C*%
X83972400Y-92837000D03*
%TO.P,K102,10*%
X91592400Y-102997000D03*
%TO.P,K102,2*%
X83972400Y-90297000D03*
%TO.P,K102,9*%
%TO.N,Net-(K102-Pad9)*%
X91592400Y-105537000D03*
D25*
%TO.P,K102,1*%
%TO.N,Net-(D106-Pad2)*%
X83972400Y-87757000D03*
%TD*%
D27*
%TO.P,U101,1*%
%TO.N,Net-(U101-Pad1)*%
X141630400Y-60195400D03*
%TO.P,U101,2*%
%TO.N,Net-(U101-Pad2)*%
X139090400Y-60195400D03*
%TO.P,U101,3*%
%TO.N,GND*%
X136550400Y-60195400D03*
%TO.P,U101,4*%
%TO.N,Net-(R103-Pad1)*%
X134010400Y-60195400D03*
%TO.P,U101,5*%
%TO.N,Net-(U101-Pad5)*%
X131470400Y-60195400D03*
%TO.P,U101,6*%
%TO.N,Net-(U101-Pad6)*%
X128930400Y-60195400D03*
%TO.P,U101,7*%
%TO.N,Net-(U101-Pad7)*%
X126390400Y-60195400D03*
%TO.P,U101,8*%
%TO.N,GND*%
X123850400Y-60195400D03*
%TO.P,U101,9*%
%TO.N,/d1*%
X121310400Y-60195400D03*
%TO.P,U101,10*%
%TO.N,/d2*%
X118770400Y-60195400D03*
%TO.P,U101,11*%
%TO.N,/d3*%
X116230400Y-60195400D03*
%TO.P,U101,12*%
%TO.N,/d4*%
X113690400Y-60195400D03*
%TO.P,U101,13*%
%TO.N,GND*%
X111150400Y-60195400D03*
%TO.P,U101,14*%
%TO.N,/d5*%
X108610400Y-60195400D03*
%TO.P,U101,15*%
%TO.N,/d6*%
X106070400Y-60195400D03*
%TO.P,U101,16*%
%TO.N,/d7*%
X103530400Y-60195400D03*
%TO.P,U101,17*%
%TO.N,/d8*%
X100990400Y-60195400D03*
%TO.P,U101,18*%
%TO.N,GND*%
X98450400Y-60195400D03*
%TO.P,U101,19*%
%TO.N,/prog_a9*%
X95910400Y-60195400D03*
%TO.P,U101,20*%
%TO.N,/prog_oe*%
X93370400Y-60195400D03*
%TO.P,U101,21*%
%TO.N,Net-(R113-Pad2)*%
X93370400Y-79555400D03*
%TO.P,U101,22*%
%TO.N,Net-(R114-Pad2)*%
X95910400Y-79555400D03*
%TO.P,U101,23*%
%TO.N,GND*%
X98450400Y-79555400D03*
%TO.P,U101,24*%
%TO.N,Net-(R110-Pad2)*%
X100990400Y-79555400D03*
%TO.P,U101,25*%
%TO.N,Net-(R111-Pad1)*%
X103530400Y-79555400D03*
%TO.P,U101,26*%
%TO.N,Net-(R106-Pad1)*%
X106070400Y-79555400D03*
%TO.P,U101,27*%
%TO.N,Net-(R108-Pad1)*%
X108610400Y-79555400D03*
%TO.P,U101,28*%
%TO.N,GND*%
X111150400Y-79555400D03*
%TO.P,U101,29*%
%TO.N,Net-(U101-Pad29)*%
X113690400Y-79555400D03*
%TO.P,U101,30*%
%TO.N,Net-(SW101-Pad1)*%
X116230400Y-79555400D03*
%TO.P,U101,31*%
%TO.N,Net-(U101-Pad31)*%
X118770400Y-79555400D03*
%TO.P,U101,32*%
%TO.N,Net-(U101-Pad32)*%
X121310400Y-79555400D03*
%TO.P,U101,33*%
%TO.N,Net-(U101-Pad33)*%
X123850400Y-79555400D03*
%TO.P,U101,34*%
%TO.N,Net-(U101-Pad34)*%
X126390400Y-79555400D03*
%TO.P,U101,35*%
%TO.N,Net-(U101-Pad35)*%
X128930400Y-79555400D03*
%TO.P,U101,36*%
%TO.N,+3V3*%
X131470400Y-79555400D03*
%TO.P,U101,37*%
%TO.N,Net-(U101-Pad37)*%
X134010400Y-79555400D03*
%TO.P,U101,38*%
%TO.N,GND*%
X136550400Y-79555400D03*
%TO.P,U101,39*%
%TO.N,Net-(D104-Pad1)*%
X139090400Y-79555400D03*
%TO.P,U101,40*%
%TO.N,/VUSB*%
X141630400Y-79555400D03*
D28*
%TO.P,U101,41*%
%TO.N,Net-(U101-Pad41)*%
X92580400Y-67335400D03*
%TO.P,U101,42*%
%TO.N,GND*%
X92580400Y-69875400D03*
%TO.P,U101,43*%
%TO.N,Net-(U101-Pad43)*%
X92580400Y-72288400D03*
%TD*%
D25*
%TO.P,U102,1*%
%TO.N,/a1*%
X124206000Y-118795800D03*
D26*
%TO.P,U102,9*%
%TO.N,Net-(U102-Pad9)*%
X131826000Y-136575800D03*
%TO.P,U102,2*%
%TO.N,/a2*%
X124206000Y-121335800D03*
%TO.P,U102,10*%
%TO.N,Net-(R110-Pad2)*%
X131826000Y-134035800D03*
%TO.P,U102,3*%
%TO.N,/a3*%
X124206000Y-123875800D03*
%TO.P,U102,11*%
%TO.N,Net-(R108-Pad1)*%
X131826000Y-131495800D03*
%TO.P,U102,4*%
%TO.N,/a4*%
X124206000Y-126415800D03*
%TO.P,U102,12*%
%TO.N,Net-(R111-Pad1)*%
X131826000Y-128955800D03*
%TO.P,U102,5*%
%TO.N,/a5*%
X124206000Y-128955800D03*
%TO.P,U102,13*%
%TO.N,GND*%
X131826000Y-126415800D03*
%TO.P,U102,6*%
%TO.N,/a6*%
X124206000Y-131495800D03*
%TO.P,U102,14*%
%TO.N,Net-(R106-Pad1)*%
X131826000Y-123875800D03*
%TO.P,U102,7*%
%TO.N,/a7*%
X124206000Y-134035800D03*
%TO.P,U102,15*%
%TO.N,/a0*%
X131826000Y-121335800D03*
%TO.P,U102,8*%
%TO.N,GND*%
X124206000Y-136575800D03*
%TO.P,U102,16*%
%TO.N,+5V*%
X131826000Y-118795800D03*
%TD*%
D29*
%TO.P,U103,16*%
%TO.N,+5V*%
X115570000Y-144119600D03*
%TO.P,U103,8*%
%TO.N,GND*%
X133350000Y-151739600D03*
%TO.P,U103,15*%
%TO.N,/a8*%
X118110000Y-144119600D03*
%TO.P,U103,7*%
%TO.N,/a15*%
X130810000Y-151739600D03*
%TO.P,U103,14*%
%TO.N,Net-(U102-Pad9)*%
X120650000Y-144119600D03*
%TO.P,U103,6*%
%TO.N,/a14*%
X128270000Y-151739600D03*
%TO.P,U103,13*%
%TO.N,GND*%
X123190000Y-144119600D03*
%TO.P,U103,5*%
%TO.N,/a13*%
X125730000Y-151739600D03*
%TO.P,U103,12*%
%TO.N,Net-(R111-Pad1)*%
X125730000Y-144119600D03*
%TO.P,U103,4*%
%TO.N,/a12*%
X123190000Y-151739600D03*
%TO.P,U103,11*%
%TO.N,Net-(R108-Pad1)*%
X128270000Y-144119600D03*
%TO.P,U103,3*%
%TO.N,/a11*%
X120650000Y-151739600D03*
%TO.P,U103,10*%
%TO.N,Net-(R110-Pad2)*%
X130810000Y-144119600D03*
%TO.P,U103,2*%
%TO.N,/a10*%
X118110000Y-151739600D03*
%TO.P,U103,9*%
%TO.N,Net-(U103-Pad9)*%
X133350000Y-144119600D03*
D30*
%TO.P,U103,1*%
%TO.N,/a9*%
X115570000Y-151739600D03*
%TD*%
D13*
%TO.P,U107,1*%
%TO.N,/a15*%
X85293200Y-152069800D03*
D12*
%TO.P,U107,15*%
%TO.N,/dd4*%
X70053200Y-119049800D03*
%TO.P,U107,2*%
%TO.N,/a12*%
X85293200Y-149529800D03*
%TO.P,U107,16*%
%TO.N,/dd5*%
X70053200Y-121589800D03*
%TO.P,U107,3*%
%TO.N,/a7*%
X85293200Y-146989800D03*
%TO.P,U107,17*%
%TO.N,/dd6*%
X70053200Y-124129800D03*
%TO.P,U107,4*%
%TO.N,/a6*%
X85293200Y-144449800D03*
%TO.P,U107,18*%
%TO.N,/dd7*%
X70053200Y-126669800D03*
%TO.P,U107,5*%
%TO.N,/a5*%
X85293200Y-141909800D03*
%TO.P,U107,19*%
%TO.N,/dd8*%
X70053200Y-129209800D03*
%TO.P,U107,6*%
%TO.N,/a4*%
X85293200Y-139369800D03*
%TO.P,U107,20*%
%TO.N,_ce_rom*%
X70053200Y-131749800D03*
%TO.P,U107,7*%
%TO.N,/a3*%
X85293200Y-136829800D03*
%TO.P,U107,21*%
%TO.N,/a10*%
X70053200Y-134289800D03*
%TO.P,U107,8*%
%TO.N,/a2*%
X85293200Y-134289800D03*
%TO.P,U107,22*%
%TO.N,/_oe_vpp*%
X70053200Y-136829800D03*
%TO.P,U107,9*%
%TO.N,/a1*%
X85293200Y-131749800D03*
%TO.P,U107,23*%
%TO.N,/a11*%
X70053200Y-139369800D03*
%TO.P,U107,10*%
%TO.N,/a0*%
X85293200Y-129209800D03*
%TO.P,U107,24*%
%TO.N,/a9_vpp*%
X70053200Y-141909800D03*
%TO.P,U107,11*%
%TO.N,/dd1*%
X85293200Y-126669800D03*
%TO.P,U107,25*%
%TO.N,/a8*%
X70053200Y-144449800D03*
%TO.P,U107,12*%
%TO.N,/dd2*%
X85293200Y-124129800D03*
%TO.P,U107,26*%
%TO.N,/a13*%
X70053200Y-146989800D03*
%TO.P,U107,13*%
%TO.N,/dd3*%
X85293200Y-121589800D03*
%TO.P,U107,27*%
%TO.N,/a14*%
X70053200Y-149529800D03*
%TO.P,U107,14*%
%TO.N,GND*%
X85293200Y-119049800D03*
%TO.P,U107,28*%
%TO.N,+5V*%
X70053200Y-152069800D03*
%TD*%
D31*
%TO.N,Net-(D104-Pad1)*%
X87655400Y-77800200D03*
X81051400Y-77825600D03*
%TO.N,+5V*%
X135280400Y-146253200D03*
X80931810Y-94251990D03*
%TO.N,/a9_vpp*%
X99237800Y-140487400D03*
%TO.N,/_oe_vpp*%
X80779401Y-128084799D03*
%TO.N,/prog_oe*%
X91262200Y-82118200D03*
%TO.N,/prog_a9*%
X96672400Y-68402200D03*
X129489200Y-69977000D03*
X132613400Y-87579200D03*
%TO.N,Net-(R103-Pad1)*%
X135204200Y-99161600D03*
%TO.N,Net-(R106-Pad1)*%
X128041400Y-106654600D03*
X106408001Y-106585801D03*
X88188800Y-59512200D03*
%TO.N,Net-(R108-Pad1)*%
X109093000Y-98094800D03*
X126390400Y-130835400D03*
X124129800Y-98145600D03*
%TO.N,Net-(R110-Pad2)*%
X100330000Y-89789000D03*
X121716800Y-89814400D03*
X122351800Y-132816600D03*
%TO.N,+3V3*%
X125451800Y-92838200D03*
X115365600Y-92838200D03*
X131470400Y-92837000D03*
%TO.N,Net-(R111-Pad1)*%
X127457200Y-76479400D03*
X99745800Y-65735200D03*
%TO.N,/a2*%
X115189000Y-134416800D03*
%TO.N,/a3*%
X108000800Y-137312400D03*
%TO.N,/a4*%
X114096800Y-139471400D03*
%TO.N,/a5*%
X111048800Y-141960600D03*
%TO.N,/a6*%
X112750600Y-144449800D03*
%TO.N,/a7*%
X109270800Y-146939000D03*
%TO.N,/a8*%
X97459800Y-143129000D03*
%TO.N,/a15*%
X106832400Y-151815800D03*
%TO.N,/a14*%
X101854000Y-150596600D03*
%TO.N,/a13*%
X100304600Y-148082000D03*
%TO.N,/a12*%
X105638600Y-149504400D03*
%TO.N,/a11*%
X95300800Y-145719800D03*
X120802400Y-147142200D03*
%TO.N,/a10*%
X82727800Y-126873000D03*
X87350600Y-126974600D03*
%TO.N,/dd1*%
X81838800Y-114046000D03*
%TO.N,/dd2*%
X82753200Y-115519200D03*
X119278400Y-115544600D03*
%TO.N,/dd4*%
X115493800Y-116611400D03*
%TO.N,/dd5*%
X105460800Y-117652800D03*
%TO.N,/dd8*%
X87350600Y-124510800D03*
X82880200Y-124409200D03*
%TO.N,_ce_rom*%
X98475800Y-107823000D03*
%TO.N,Net-(Q103-Pad1)*%
X88874600Y-107873800D03*
X88925400Y-84658200D03*
%TO.N,Net-(R114-Pad2)*%
X94005400Y-95605600D03*
%TO.N,/VUSB*%
X80060800Y-56362600D03*
%TD*%
D32*
%TO.N,GND*%
X98450400Y-60985400D02*
X98450400Y-78765400D01*
X112852200Y-101803200D02*
X112852200Y-111963200D01*
X102692200Y-85648800D02*
X102692200Y-95808800D01*
X133350000Y-151739600D02*
X133350000Y-149402800D01*
X133350000Y-149402800D02*
X131876800Y-147929600D01*
X123190000Y-144119600D02*
X123190000Y-144653000D01*
X126466600Y-147929600D02*
X127152400Y-147929600D01*
X123190000Y-144653000D02*
X126466600Y-147929600D01*
X131876800Y-147929600D02*
X127152400Y-147929600D01*
X124206000Y-143103600D02*
X123190000Y-144119600D01*
X124206000Y-136575800D02*
X124206000Y-143103600D01*
X136550400Y-78765400D02*
X136550400Y-60985400D01*
X86893400Y-119049800D02*
X85293200Y-119049800D01*
X90170000Y-122326400D02*
X86893400Y-119049800D01*
X112852200Y-111963200D02*
X107518200Y-117297200D01*
X107518200Y-119761000D02*
X106781600Y-120497600D01*
X107518200Y-117297200D02*
X107518200Y-119761000D01*
X94970600Y-154152600D02*
X90932000Y-154152600D01*
X90932000Y-154152600D02*
X90170000Y-153390600D01*
X90170000Y-153390600D02*
X90170000Y-122326400D01*
X99680400Y-154152600D02*
X100507800Y-154980000D01*
X94970600Y-154152600D02*
X99680400Y-154152600D01*
X102209600Y-85166200D02*
X102692200Y-85648800D01*
X101434202Y-76657200D02*
X102209600Y-77432598D01*
X102209600Y-77432598D02*
X102209600Y-85166200D01*
X98450400Y-78765400D02*
X98450400Y-77139800D01*
X98933000Y-76657200D02*
X101434202Y-76657200D01*
X98450400Y-77139800D02*
X98933000Y-76657200D01*
D33*
%TO.N,Net-(D104-Pad1)*%
X87655400Y-77800200D02*
X81076800Y-77800200D01*
X81076800Y-77800200D02*
X81051400Y-77825600D01*
D32*
%TO.N,+5V*%
X115570000Y-144119600D02*
X115570000Y-144907000D01*
X131826000Y-118795800D02*
X133248400Y-118795800D01*
X133248400Y-118795800D02*
X135280400Y-120827800D01*
X135280400Y-120827800D02*
X135280400Y-146253200D01*
X80931810Y-94251990D02*
X80931810Y-86367410D01*
X115570000Y-144119600D02*
X115570000Y-145288000D01*
X115570000Y-144119600D02*
X115570000Y-146431000D01*
X115570000Y-146431000D02*
X104521000Y-157480000D01*
X103378000Y-156006800D02*
X101904800Y-157480000D01*
X103378000Y-138607800D02*
X103378000Y-156006800D01*
X104241600Y-137744200D02*
X103378000Y-138607800D01*
X104521000Y-157480000D02*
X101904800Y-157480000D01*
X104241600Y-135737600D02*
X104241600Y-137744200D01*
X101904800Y-157480000D02*
X100507800Y-157480000D01*
X77059000Y-59139000D02*
X77965600Y-60045600D01*
X77059000Y-58039000D02*
X77059000Y-59139000D01*
X77965600Y-60045600D02*
X79984600Y-60045600D01*
X79984600Y-60045600D02*
X81356200Y-61417200D01*
X81356200Y-61417200D02*
X81356200Y-72898000D01*
X81356200Y-72898000D02*
X80314800Y-73939400D01*
X80314800Y-73939400D02*
X78562200Y-73939400D01*
X78562200Y-73939400D02*
X77698600Y-74803000D01*
X77698600Y-82753200D02*
X77698600Y-83210400D01*
X77698600Y-74803000D02*
X77698600Y-82753200D01*
X77698600Y-83210400D02*
X78740000Y-84251800D01*
X78740000Y-84251800D02*
X80086200Y-84251800D01*
X80931810Y-85097410D02*
X80931810Y-86367410D01*
X80086200Y-84251800D02*
X80931810Y-85097410D01*
D33*
%TO.N,+12V*%
X77368400Y-68427600D02*
X70408800Y-68427600D01*
X70408800Y-68427600D02*
X69494400Y-67513200D01*
X69494400Y-64871600D02*
X66624200Y-62001400D01*
X69494400Y-67513200D02*
X69494400Y-64871600D01*
D32*
X67614800Y-105486200D02*
X68681600Y-105486200D01*
X68681600Y-105486200D02*
X74041000Y-110845600D01*
X74041000Y-110845600D02*
X75082400Y-110845600D01*
D33*
X72923400Y-85394800D02*
X75234800Y-87706200D01*
X72923400Y-71170800D02*
X72923400Y-85394800D01*
X77368400Y-68427600D02*
X75666600Y-68427600D01*
X75666600Y-68427600D02*
X72923400Y-71170800D01*
D32*
%TO.N,Net-(D106-Pad2)*%
X83642200Y-110871000D02*
X85648800Y-110871000D01*
X85953600Y-88112600D02*
X85598000Y-87757000D01*
X85598000Y-87757000D02*
X83972400Y-87757000D01*
X85953600Y-110566200D02*
X85953600Y-88112600D01*
X85648800Y-110871000D02*
X85953600Y-110566200D01*
D33*
%TO.N,/a9_vpp*%
X101701600Y-130657600D02*
X100431600Y-131927600D01*
X100431600Y-131927600D02*
X100431600Y-134493000D01*
X99237800Y-135686800D02*
X99237800Y-140487400D01*
X100431600Y-134493000D02*
X99237800Y-135686800D01*
%TO.N,/a9*%
X67614800Y-100406200D02*
X68808600Y-100406200D01*
X68808600Y-100406200D02*
X72593200Y-104190800D01*
X72593200Y-104190800D02*
X72593200Y-106400600D01*
X72593200Y-106400600D02*
X74523600Y-108331000D01*
X77597000Y-108331000D02*
X79171800Y-109905800D01*
X74523600Y-108331000D02*
X77597000Y-108331000D01*
X79171800Y-109905800D02*
X79171800Y-150952200D01*
X84531200Y-156311600D02*
X95808800Y-156311600D01*
X79171800Y-150952200D02*
X84531200Y-156311600D01*
X99796600Y-160299400D02*
X107010200Y-160299400D01*
X95808800Y-156311600D02*
X99796600Y-160299400D01*
X107010200Y-160299400D02*
X115570000Y-151739600D01*
%TO.N,/_oe_vpp*%
X80779401Y-128084799D02*
X80779401Y-95648999D01*
X81051400Y-95377000D02*
X83972400Y-95377000D01*
X80779401Y-95648999D02*
X81051400Y-95377000D01*
%TO.N,/prog_oe*%
X89433400Y-61798200D02*
X89433400Y-80289400D01*
X89433400Y-80289400D02*
X91262200Y-82118200D01*
X93370400Y-60985400D02*
X90246200Y-60985400D01*
X90246200Y-60985400D02*
X89433400Y-61798200D01*
%TO.N,/prog_a9*%
X95910400Y-60985400D02*
X95910400Y-67640200D01*
X95910400Y-67640200D02*
X96672400Y-68402200D01*
X129489200Y-69977000D02*
X132511800Y-72999600D01*
X132511800Y-72999600D02*
X132613400Y-73101200D01*
X132613400Y-73101200D02*
X132613400Y-87579200D01*
%TO.N,Net-(R103-Pad1)*%
X134010400Y-60985400D02*
X134010400Y-64541400D01*
X134010400Y-64541400D02*
X133705600Y-64846200D01*
X133705600Y-64846200D02*
X133705600Y-70027800D01*
X133705600Y-70027800D02*
X135204200Y-71526400D01*
X135204200Y-71526400D02*
X135204200Y-99161600D01*
X135204200Y-99161600D02*
X135204200Y-99161600D01*
%TO.N,Net-(R106-Pad1)*%
X106070400Y-78765400D02*
X106408001Y-79103001D01*
X106070400Y-78765400D02*
X106070400Y-67462400D01*
X106070400Y-67462400D02*
X102077401Y-63469401D01*
X106408001Y-79103001D02*
X106408001Y-106585801D01*
X131826000Y-123875800D02*
X130530600Y-123875800D01*
X130530600Y-123875800D02*
X129108200Y-122453400D01*
X129108200Y-107721400D02*
X128041400Y-106654600D01*
X129108200Y-122453400D02*
X129108200Y-107721400D01*
X101523800Y-57048400D02*
X102077401Y-57602001D01*
X102077401Y-63469401D02*
X102077401Y-57602001D01*
X88188800Y-59512200D02*
X90652600Y-57048400D01*
X90652600Y-57048400D02*
X90805000Y-57048400D01*
X90805000Y-57048400D02*
X101523800Y-57048400D01*
%TO.N,Net-(R108-Pad1)*%
X108610400Y-78765400D02*
X109093000Y-79248000D01*
X109093000Y-79248000D02*
X109093000Y-98094800D01*
X131826000Y-131495800D02*
X130327400Y-131495800D01*
X128270000Y-133553200D02*
X128270000Y-144119600D01*
X130327400Y-131495800D02*
X128270000Y-133553200D01*
X126390400Y-115087400D02*
X126390400Y-130835400D01*
X125501400Y-114198400D02*
X126390400Y-115087400D01*
X124188001Y-113697801D02*
X124688600Y-114198400D01*
X124688600Y-114198400D02*
X125501400Y-114198400D01*
X124188001Y-98203801D02*
X124188001Y-113697801D01*
X124129800Y-98145600D02*
X124188001Y-98203801D01*
%TO.N,Net-(R110-Pad2)*%
X100330000Y-89789000D02*
X100330000Y-83794600D01*
X100990400Y-83134200D02*
X100990400Y-78765400D01*
X100330000Y-83794600D02*
X100990400Y-83134200D01*
X131826000Y-134035800D02*
X129844800Y-136017000D01*
X129844800Y-143154400D02*
X130810000Y-144119600D01*
X129844800Y-136017000D02*
X129844800Y-143154400D01*
X121716800Y-132181600D02*
X121716800Y-131826000D01*
X122351800Y-132816600D02*
X121716800Y-132181600D01*
X121716800Y-131826000D02*
X121716800Y-89814400D01*
D32*
%TO.N,+3V3*%
X125552200Y-92938600D02*
X125451800Y-92838200D01*
X125552200Y-101803200D02*
X125552200Y-92938600D01*
D33*
X115392200Y-92811600D02*
X115365600Y-92838200D01*
D32*
X115392200Y-85648800D02*
X115392200Y-92811600D01*
X131470400Y-78765400D02*
X131470400Y-92837000D01*
D33*
%TO.N,Net-(R111-Pad1)*%
X131826000Y-128955800D02*
X129692400Y-128955800D01*
X129692400Y-128955800D02*
X127990600Y-128955800D01*
X127990600Y-128955800D02*
X127254000Y-128219200D01*
X127254000Y-128219200D02*
X127254000Y-91770200D01*
X127477401Y-76499601D02*
X127457200Y-76479400D01*
X127254000Y-91770200D02*
X127477401Y-91546799D01*
X127477401Y-91546799D02*
X127477401Y-76499601D01*
X99745800Y-65735200D02*
X103657400Y-69646800D01*
X103657400Y-78638400D02*
X103530400Y-78765400D01*
X103657400Y-69646800D02*
X103657400Y-78638400D01*
X125730000Y-144119600D02*
X125730000Y-142773400D01*
X125730000Y-142773400D02*
X127355600Y-141147800D01*
X127355600Y-129590800D02*
X127990600Y-128955800D01*
X127355600Y-141147800D02*
X127355600Y-129590800D01*
%TO.N,/d1*%
X122763399Y-101554399D02*
X123012200Y-101803200D01*
X122763399Y-64521199D02*
X122763399Y-101554399D01*
X121310400Y-60985400D02*
X121310400Y-63068200D01*
X121310400Y-63068200D02*
X122763399Y-64521199D01*
%TO.N,/d2*%
X118770400Y-60985400D02*
X118770400Y-63931800D01*
X120223399Y-65384799D02*
X120223399Y-84079199D01*
X118770400Y-63931800D02*
X120223399Y-65384799D01*
X120223399Y-84079199D02*
X120523000Y-84378800D01*
X120523000Y-101752400D02*
X120472200Y-101803200D01*
X120523000Y-84378800D02*
X120523000Y-101752400D01*
%TO.N,/d3*%
X118770400Y-100965000D02*
X117932200Y-101803200D01*
X117551200Y-65760600D02*
X117551200Y-82600800D01*
X117551200Y-82600800D02*
X118770400Y-83820000D01*
X116230400Y-60985400D02*
X116230400Y-64439800D01*
X118770400Y-83820000D02*
X118770400Y-100965000D01*
X116230400Y-64439800D02*
X117551200Y-65760600D01*
%TO.N,/d4*%
X115392200Y-100609400D02*
X115392200Y-101803200D01*
X113690400Y-63957200D02*
X114777401Y-65044201D01*
X113995200Y-83997800D02*
X113995200Y-99212400D01*
X114777401Y-65044201D02*
X114777401Y-83215599D01*
X113690400Y-60985400D02*
X113690400Y-63957200D01*
X114777401Y-83215599D02*
X113995200Y-83997800D01*
X113995200Y-99212400D02*
X115392200Y-100609400D01*
%TO.N,/d5*%
X112445800Y-85242400D02*
X112852200Y-85648800D01*
X112445800Y-67233800D02*
X112445800Y-85242400D01*
X108610400Y-60985400D02*
X108610400Y-63398400D01*
X108610400Y-63398400D02*
X112445800Y-67233800D01*
%TO.N,/d6*%
X109931200Y-85267800D02*
X110312200Y-85648800D01*
X106070400Y-60985400D02*
X106070400Y-62382400D01*
X109931200Y-66243200D02*
X109931200Y-85267800D01*
X106070400Y-62382400D02*
X109931200Y-66243200D01*
%TO.N,/d7*%
X107365800Y-85242400D02*
X107772200Y-85648800D01*
X107365800Y-65684400D02*
X107365800Y-85242400D01*
X103530400Y-60985400D02*
X103530400Y-61849000D01*
X103530400Y-61849000D02*
X107365800Y-65684400D01*
%TO.N,/d8*%
X104825800Y-69519800D02*
X104825800Y-85242400D01*
X104825800Y-85242400D02*
X105232200Y-85648800D01*
X100990400Y-60985400D02*
X100990400Y-65684400D01*
X100990400Y-65684400D02*
X104825800Y-69519800D01*
%TO.N,/a2*%
X115189000Y-134416800D02*
X115189000Y-129438400D01*
X113868200Y-128117600D02*
X111861600Y-128117600D01*
X115189000Y-129438400D02*
X113868200Y-128117600D01*
%TO.N,/a3*%
X109321600Y-130657600D02*
X108026200Y-131953000D01*
X108026200Y-137287000D02*
X108000800Y-137312400D01*
X108026200Y-131953000D02*
X108026200Y-137287000D01*
%TO.N,/a4*%
X114096800Y-139471400D02*
X114096800Y-131622800D01*
X113131600Y-130657600D02*
X111861600Y-130657600D01*
X114096800Y-131622800D02*
X113131600Y-130657600D01*
%TO.N,/a5*%
X111048800Y-141960600D02*
X111048800Y-136880600D01*
X111048800Y-134924800D02*
X111048800Y-136880600D01*
X109321600Y-133197600D02*
X111048800Y-134924800D01*
%TO.N,/a6*%
X112928400Y-144272000D02*
X112750600Y-144449800D01*
X111861600Y-133197600D02*
X112928400Y-134264400D01*
X112928400Y-134264400D02*
X112928400Y-144272000D01*
%TO.N,/a7*%
X109270800Y-135788400D02*
X109321600Y-135737600D01*
X109270800Y-146939000D02*
X109270800Y-135788400D01*
%TO.N,/a8*%
X97459800Y-134899400D02*
X99161600Y-133197600D01*
X97459800Y-143129000D02*
X97459800Y-134899400D01*
%TO.N,/a15*%
X106832400Y-135788400D02*
X106781600Y-135737600D01*
X106832400Y-151815800D02*
X106832400Y-135788400D01*
%TO.N,/a14*%
X102946200Y-137109200D02*
X101854000Y-138201400D01*
X101854000Y-139495390D02*
X101854000Y-150596600D01*
X101701600Y-133197600D02*
X102946200Y-134442200D01*
X101854000Y-138201400D02*
X101854000Y-139495390D01*
X102946200Y-134442200D02*
X102946200Y-137109200D01*
%TO.N,/a13*%
X100304600Y-148082000D02*
X100736400Y-147650200D01*
X100736400Y-136702800D02*
X101701600Y-135737600D01*
X100736400Y-147650200D02*
X100736400Y-136702800D01*
%TO.N,/a12*%
X106781600Y-133197600D02*
X105511600Y-134467600D01*
X105511600Y-149377400D02*
X105638600Y-149504400D01*
X105511600Y-134467600D02*
X105511600Y-149377400D01*
%TO.N,/a11*%
X97891600Y-130657600D02*
X99161600Y-130657600D01*
X95300800Y-133248400D02*
X97891600Y-130657600D01*
X95300800Y-145719800D02*
X95300800Y-133248400D01*
X120802400Y-151587200D02*
X120650000Y-151739600D01*
X120802400Y-147142200D02*
X120802400Y-151587200D01*
%TO.N,/a10*%
X83649601Y-127794801D02*
X86443601Y-127794801D01*
X82727800Y-126873000D02*
X83649601Y-127794801D01*
X86443601Y-127794801D02*
X87263802Y-126974600D01*
X87263802Y-126974600D02*
X87350600Y-126974600D01*
X118110000Y-149733000D02*
X118110000Y-151739600D01*
X119380000Y-148463000D02*
X118110000Y-149733000D01*
X119380000Y-127330200D02*
X119380000Y-148463000D01*
X101701600Y-125577600D02*
X102971600Y-126847600D01*
X118897400Y-126847600D02*
X119380000Y-127330200D01*
X102971600Y-126847600D02*
X118897400Y-126847600D01*
%TO.N,/dd1*%
X85293200Y-126669800D02*
X83870800Y-126669800D01*
X83870800Y-126669800D02*
X83794600Y-126669800D01*
X83794600Y-126669800D02*
X81813400Y-124688600D01*
X81813400Y-124688600D02*
X81813400Y-114071400D01*
X81813400Y-114071400D02*
X81838800Y-114046000D01*
%TO.N,/dd2*%
X85293200Y-124129800D02*
X82753200Y-121589800D01*
X82753200Y-121589800D02*
X82753200Y-115519200D01*
X120370600Y-112064800D02*
X120472200Y-111963200D01*
X120472200Y-111963200D02*
X120472200Y-114350800D01*
X120472200Y-114350800D02*
X119278400Y-115544600D01*
%TO.N,/dd3*%
X117932200Y-111963200D02*
X117932200Y-115366800D01*
X117932200Y-115366800D02*
X113322100Y-119976900D01*
X113322100Y-119976900D02*
X112382300Y-119976900D01*
X109321600Y-123037600D02*
X112382300Y-119976900D01*
%TO.N,/dd4*%
X115392200Y-116509800D02*
X115493800Y-116611400D01*
X115392200Y-111963200D02*
X115392200Y-116509800D01*
%TO.N,/dd5*%
X112801400Y-99441000D02*
X112801400Y-95859600D01*
X112801400Y-95859600D02*
X112852200Y-95808800D01*
X112852200Y-95808800D02*
X112852200Y-99364800D01*
X112852200Y-99364800D02*
X111252000Y-100965000D01*
X111252000Y-100965000D02*
X111252000Y-111887000D01*
X111252000Y-111887000D02*
X105460800Y-117678200D01*
X105460800Y-121818400D02*
X104241600Y-123037600D01*
X105460800Y-117678200D02*
X105460800Y-121818400D01*
%TO.N,/dd6*%
X110312200Y-104521000D02*
X110312200Y-95808800D01*
X110312200Y-109804200D02*
X110312200Y-104521000D01*
X101701600Y-120497600D02*
X101701600Y-118414800D01*
X101701600Y-118414800D02*
X110312200Y-109804200D01*
%TO.N,/dd7*%
X107772200Y-95808800D02*
X107772200Y-110947200D01*
X107772200Y-110947200D02*
X100126800Y-118592600D01*
X100126800Y-122072400D02*
X99161600Y-123037600D01*
X100126800Y-118592600D02*
X100126800Y-122072400D01*
%TO.N,/dd8*%
X83725801Y-125254801D02*
X82880200Y-124409200D01*
X87350600Y-124510800D02*
X86606599Y-125254801D01*
X86606599Y-125254801D02*
X83725801Y-125254801D01*
X100431600Y-124307600D02*
X101701600Y-123037600D01*
X105232200Y-111785400D02*
X99187000Y-117830600D01*
X99187000Y-117830600D02*
X99187000Y-121005600D01*
X105232200Y-95808800D02*
X105232200Y-111785400D01*
X99187000Y-121005600D02*
X97409000Y-122783600D01*
X98120200Y-124307600D02*
X100431600Y-124307600D01*
X97409000Y-122783600D02*
X97409000Y-123596400D01*
X97409000Y-123596400D02*
X98120200Y-124307600D01*
%TO.N,_ce_rom*%
X99161600Y-125577600D02*
X97104200Y-125577600D01*
X97104200Y-125577600D02*
X96316800Y-124790200D01*
X96316800Y-124790200D02*
X96316800Y-121920000D01*
X96316800Y-121920000D02*
X98475800Y-119761000D01*
X98475800Y-119761000D02*
X98475800Y-107823000D01*
%TO.N,Net-(Q103-Pad1)*%
X88874600Y-84709000D02*
X88925400Y-84658200D01*
X88874600Y-107873800D02*
X88874600Y-84709000D01*
%TO.N,Net-(R114-Pad2)*%
X95910400Y-78765400D02*
X95910400Y-81762600D01*
X94005400Y-95605600D02*
X94005400Y-86410800D01*
X95910400Y-84505800D02*
X95910400Y-78765400D01*
X94005400Y-86410800D02*
X95910400Y-84505800D01*
D32*
%TO.N,+5F*%
X75759000Y-58039000D02*
X71043800Y-58039000D01*
X64592200Y-58267600D02*
X64592200Y-65049400D01*
X64592200Y-65049400D02*
X66624200Y-67081400D01*
X66167000Y-56692800D02*
X64592200Y-58267600D01*
X69697600Y-56692800D02*
X66167000Y-56692800D01*
X71043800Y-58039000D02*
X69697600Y-56692800D01*
D33*
%TO.N,/VUSB*%
X80035400Y-56362600D02*
X78359000Y-58039000D01*
X80060800Y-56362600D02*
X80035400Y-56362600D01*
%TD*%
M02*
