M48
; DRILL file {KiCad 5.1.12-84ad8e8a86~92~ubuntu18.04.1} date lun 26 jun 2023 22:09:50 CEST
; FORMAT={-:-/ absolute / metric / decimal}
; #@! TF.CreationDate,2023-06-26T22:09:50+02:00
; #@! TF.GenerationSoftware,Kicad,Pcbnew,5.1.12-84ad8e8a86~92~ubuntu18.04.1
; #@! TF.FileFunction,Plated,1,2,PTH
FMAT,2
METRIC
T1C0.400
T2C0.762
T3C0.800
T4C0.900
T5C1.000
%
G90
G05
T1
X80.061Y-56.363
X80.779Y-128.085
X80.932Y-94.252
X81.051Y-77.826
X81.839Y-114.046
X82.728Y-126.873
X82.753Y-115.519
X82.88Y-124.409
X87.351Y-124.511
X87.351Y-126.975
X87.655Y-77.8
X88.189Y-59.512
X88.875Y-107.874
X88.925Y-84.658
X91.262Y-82.118
X94.005Y-95.606
X95.301Y-145.72
X96.672Y-68.402
X97.46Y-143.129
X98.476Y-107.823
X99.238Y-140.487
X99.746Y-65.735
X100.305Y-148.082
X100.33Y-89.789
X101.854Y-150.597
X105.461Y-117.653
X105.639Y-149.504
X106.408Y-106.586
X106.832Y-151.816
X108.001Y-137.312
X109.093Y-98.095
X109.271Y-146.939
X111.049Y-141.961
X112.751Y-144.45
X114.097Y-139.471
X115.189Y-134.417
X115.366Y-92.838
X115.494Y-116.611
X119.278Y-115.545
X120.802Y-147.142
X121.717Y-89.814
X122.352Y-132.817
X124.13Y-98.146
X125.452Y-92.838
X126.39Y-130.835
X127.457Y-76.479
X128.041Y-106.655
X129.489Y-69.977
X131.47Y-92.837
X132.613Y-87.579
X135.204Y-99.162
X135.28Y-146.253
T2
X93.37Y-60.985
X93.37Y-67.335
X93.37Y-69.875
X93.37Y-72.288
X93.37Y-78.765
X95.91Y-60.985
X95.91Y-78.765
X98.45Y-60.985
X98.45Y-78.765
X100.99Y-60.985
X100.99Y-78.765
X103.53Y-60.985
X103.53Y-78.765
X106.07Y-60.985
X106.07Y-78.765
X108.61Y-60.985
X108.61Y-78.765
X111.15Y-60.985
X111.15Y-78.765
X113.69Y-60.985
X113.69Y-78.765
X116.23Y-60.985
X116.23Y-78.765
X118.77Y-60.985
X118.77Y-78.765
X121.31Y-60.985
X121.31Y-78.765
X123.85Y-60.985
X123.85Y-78.765
X126.39Y-60.985
X126.39Y-78.765
X128.93Y-60.985
X128.93Y-78.765
X131.47Y-60.985
X131.47Y-78.765
X134.01Y-60.985
X134.01Y-78.765
X136.55Y-60.985
X136.55Y-78.765
X139.09Y-60.985
X139.09Y-78.765
X141.63Y-60.985
X141.63Y-78.765
T3
X67.615Y-87.706
X67.615Y-90.246
X67.615Y-92.786
X67.615Y-95.326
X67.615Y-97.866
X67.615Y-100.406
X67.615Y-102.946
X67.615Y-105.486
X70.053Y-119.05
X70.053Y-121.59
X70.053Y-124.13
X70.053Y-126.67
X70.053Y-129.21
X70.053Y-131.75
X70.053Y-134.29
X70.053Y-136.83
X70.053Y-139.37
X70.053Y-141.91
X70.053Y-144.45
X70.053Y-146.99
X70.053Y-149.53
X70.053Y-152.07
X75.235Y-87.706
X75.235Y-90.246
X75.235Y-92.786
X75.235Y-95.326
X75.235Y-97.866
X75.235Y-100.406
X75.235Y-102.946
X75.235Y-105.486
X83.972Y-87.757
X83.972Y-90.297
X83.972Y-92.837
X83.972Y-95.377
X83.972Y-97.917
X83.972Y-100.457
X83.972Y-102.997
X83.972Y-105.537
X85.293Y-119.05
X85.293Y-121.59
X85.293Y-124.13
X85.293Y-126.67
X85.293Y-129.21
X85.293Y-131.75
X85.293Y-134.29
X85.293Y-136.83
X85.293Y-139.37
X85.293Y-141.91
X85.293Y-144.45
X85.293Y-146.99
X85.293Y-149.53
X85.293Y-152.07
X91.592Y-87.757
X91.592Y-90.297
X91.592Y-92.837
X91.592Y-95.377
X91.592Y-97.917
X91.592Y-100.457
X91.592Y-102.997
X91.592Y-105.537
X99.162Y-123.038
X99.162Y-125.578
X99.162Y-128.118
X99.162Y-130.658
X99.162Y-133.198
X100.508Y-154.98
X100.508Y-157.48
X101.702Y-120.498
X101.702Y-123.038
X101.702Y-125.578
X101.702Y-128.118
X101.702Y-130.658
X101.702Y-133.198
X101.702Y-135.738
X102.692Y-85.649
X102.692Y-95.809
X104.242Y-120.498
X104.242Y-123.038
X104.242Y-133.198
X104.242Y-135.738
X105.232Y-85.649
X105.232Y-95.809
X106.782Y-120.498
X106.782Y-123.038
X106.782Y-133.198
X106.782Y-135.738
X107.772Y-85.649
X107.772Y-95.809
X109.322Y-120.498
X109.322Y-123.038
X109.322Y-125.578
X109.322Y-128.118
X109.322Y-130.658
X109.322Y-133.198
X109.322Y-135.738
X110.312Y-85.649
X110.312Y-95.809
X111.862Y-123.038
X111.862Y-125.578
X111.862Y-128.118
X111.862Y-130.658
X111.862Y-133.198
X112.852Y-85.649
X112.852Y-95.809
X112.852Y-101.803
X112.852Y-111.963
X115.392Y-85.649
X115.392Y-95.809
X115.392Y-101.803
X115.392Y-111.963
X115.57Y-144.12
X115.57Y-151.74
X117.932Y-101.803
X117.932Y-111.963
X118.11Y-144.12
X118.11Y-151.74
X120.472Y-101.803
X120.472Y-111.963
X120.65Y-144.12
X120.65Y-151.74
X123.012Y-101.803
X123.012Y-111.963
X123.19Y-144.12
X123.19Y-151.74
X124.206Y-118.796
X124.206Y-121.336
X124.206Y-123.876
X124.206Y-126.416
X124.206Y-128.956
X124.206Y-131.496
X124.206Y-134.036
X124.206Y-136.576
X125.552Y-101.803
X125.552Y-111.963
X125.73Y-144.12
X125.73Y-151.74
X128.27Y-144.12
X128.27Y-151.74
X130.81Y-144.12
X130.81Y-151.74
X131.826Y-118.796
X131.826Y-121.336
X131.826Y-123.876
X131.826Y-126.416
X131.826Y-128.956
X131.826Y-131.496
X131.826Y-134.036
X131.826Y-136.576
X133.35Y-144.12
X133.35Y-151.74
T4
X67.462Y-110.846
X75.082Y-110.846
X83.642Y-110.871
X91.262Y-110.871
T5
X66.624Y-59.461
X66.624Y-62.001
X66.624Y-64.541
X66.624Y-67.081
X94.971Y-154.153
X94.971Y-159.153
T3
G00X72.568Y-64.328
M15
G01X72.568Y-66.528
M16
G05
G00X78.468Y-62.628
M15
G01X76.268Y-62.628
M16
G05
G00X78.668Y-68.428
M15
G01X76.068Y-68.428
M16
G05
T0
M30
