%TF.GenerationSoftware,KiCad,Pcbnew,5.1.12-84ad8e8a86~92~ubuntu18.04.1*%
%TF.CreationDate,2023-06-26T22:09:47+02:00*%
%TF.ProjectId,PROGRAMMER-GLS27SF512,50524f47-5241-44d4-9d45-522d474c5332,1*%
%TF.SameCoordinates,Original*%
%TF.FileFunction,Paste,Top*%
%TF.FilePolarity,Positive*%
%FSLAX46Y46*%
G04 Gerber Fmt 4.6, Leading zero omitted, Abs format (unit mm)*
G04 Created by KiCad (PCBNEW 5.1.12-84ad8e8a86~92~ubuntu18.04.1) date 2023-06-26 22:09:47*
%MOMM*%
%LPD*%
G01*
G04 APERTURE LIST*
%ADD10R,0.800000X0.900000*%
%ADD11R,1.300000X1.550000*%
G04 APERTURE END LIST*
%TO.C,R118*%
G36*
G01*
X78343599Y-99756800D02*
X79593601Y-99756800D01*
G75*
G02*
X79843600Y-100006799I0J-249999D01*
G01*
X79843600Y-100806801D01*
G75*
G02*
X79593601Y-101056800I-249999J0D01*
G01*
X78343599Y-101056800D01*
G75*
G02*
X78093600Y-100806801I0J249999D01*
G01*
X78093600Y-100006799D01*
G75*
G02*
X78343599Y-99756800I249999J0D01*
G01*
G37*
G36*
G01*
X78343599Y-96656800D02*
X79593601Y-96656800D01*
G75*
G02*
X79843600Y-96906799I0J-249999D01*
G01*
X79843600Y-97706801D01*
G75*
G02*
X79593601Y-97956800I-249999J0D01*
G01*
X78343599Y-97956800D01*
G75*
G02*
X78093600Y-97706801I0J249999D01*
G01*
X78093600Y-96906799D01*
G75*
G02*
X78343599Y-96656800I249999J0D01*
G01*
G37*
%TD*%
%TO.C,R117*%
G36*
G01*
X101029600Y-104454799D02*
X101029600Y-105704801D01*
G75*
G02*
X100779601Y-105954800I-249999J0D01*
G01*
X99979599Y-105954800D01*
G75*
G02*
X99729600Y-105704801I0J249999D01*
G01*
X99729600Y-104454799D01*
G75*
G02*
X99979599Y-104204800I249999J0D01*
G01*
X100779601Y-104204800D01*
G75*
G02*
X101029600Y-104454799I0J-249999D01*
G01*
G37*
G36*
G01*
X104129600Y-104454799D02*
X104129600Y-105704801D01*
G75*
G02*
X103879601Y-105954800I-249999J0D01*
G01*
X103079599Y-105954800D01*
G75*
G02*
X102829600Y-105704801I0J249999D01*
G01*
X102829600Y-104454799D01*
G75*
G02*
X103079599Y-104204800I249999J0D01*
G01*
X103879601Y-104204800D01*
G75*
G02*
X104129600Y-104454799I0J-249999D01*
G01*
G37*
%TD*%
%TO.C,R116*%
G36*
G01*
X101131200Y-108112399D02*
X101131200Y-109362401D01*
G75*
G02*
X100881201Y-109612400I-249999J0D01*
G01*
X100081199Y-109612400D01*
G75*
G02*
X99831200Y-109362401I0J249999D01*
G01*
X99831200Y-108112399D01*
G75*
G02*
X100081199Y-107862400I249999J0D01*
G01*
X100881201Y-107862400D01*
G75*
G02*
X101131200Y-108112399I0J-249999D01*
G01*
G37*
G36*
G01*
X104231200Y-108112399D02*
X104231200Y-109362401D01*
G75*
G02*
X103981201Y-109612400I-249999J0D01*
G01*
X103181199Y-109612400D01*
G75*
G02*
X102931200Y-109362401I0J249999D01*
G01*
X102931200Y-108112399D01*
G75*
G02*
X103181199Y-107862400I249999J0D01*
G01*
X103981201Y-107862400D01*
G75*
G02*
X104231200Y-108112399I0J-249999D01*
G01*
G37*
%TD*%
%TO.C,R115*%
G36*
G01*
X94705000Y-111084199D02*
X94705000Y-112334201D01*
G75*
G02*
X94455001Y-112584200I-249999J0D01*
G01*
X93654999Y-112584200D01*
G75*
G02*
X93405000Y-112334201I0J249999D01*
G01*
X93405000Y-111084199D01*
G75*
G02*
X93654999Y-110834200I249999J0D01*
G01*
X94455001Y-110834200D01*
G75*
G02*
X94705000Y-111084199I0J-249999D01*
G01*
G37*
G36*
G01*
X97805000Y-111084199D02*
X97805000Y-112334201D01*
G75*
G02*
X97555001Y-112584200I-249999J0D01*
G01*
X96754999Y-112584200D01*
G75*
G02*
X96505000Y-112334201I0J249999D01*
G01*
X96505000Y-111084199D01*
G75*
G02*
X96754999Y-110834200I249999J0D01*
G01*
X97555001Y-110834200D01*
G75*
G02*
X97805000Y-111084199I0J-249999D01*
G01*
G37*
%TD*%
%TO.C,R114*%
G36*
G01*
X102855000Y-102123401D02*
X102855000Y-100873399D01*
G75*
G02*
X103104999Y-100623400I249999J0D01*
G01*
X103905001Y-100623400D01*
G75*
G02*
X104155000Y-100873399I0J-249999D01*
G01*
X104155000Y-102123401D01*
G75*
G02*
X103905001Y-102373400I-249999J0D01*
G01*
X103104999Y-102373400D01*
G75*
G02*
X102855000Y-102123401I0J249999D01*
G01*
G37*
G36*
G01*
X99755000Y-102123401D02*
X99755000Y-100873399D01*
G75*
G02*
X100004999Y-100623400I249999J0D01*
G01*
X100805001Y-100623400D01*
G75*
G02*
X101055000Y-100873399I0J-249999D01*
G01*
X101055000Y-102123401D01*
G75*
G02*
X100805001Y-102373400I-249999J0D01*
G01*
X100004999Y-102373400D01*
G75*
G02*
X99755000Y-102123401I0J249999D01*
G01*
G37*
%TD*%
%TO.C,R113*%
G36*
G01*
X89880601Y-80507600D02*
X88630599Y-80507600D01*
G75*
G02*
X88380600Y-80257601I0J249999D01*
G01*
X88380600Y-79457599D01*
G75*
G02*
X88630599Y-79207600I249999J0D01*
G01*
X89880601Y-79207600D01*
G75*
G02*
X90130600Y-79457599I0J-249999D01*
G01*
X90130600Y-80257601D01*
G75*
G02*
X89880601Y-80507600I-249999J0D01*
G01*
G37*
G36*
G01*
X89880601Y-83607600D02*
X88630599Y-83607600D01*
G75*
G02*
X88380600Y-83357601I0J249999D01*
G01*
X88380600Y-82557599D01*
G75*
G02*
X88630599Y-82307600I249999J0D01*
G01*
X89880601Y-82307600D01*
G75*
G02*
X90130600Y-82557599I0J-249999D01*
G01*
X90130600Y-83357601D01*
G75*
G02*
X89880601Y-83607600I-249999J0D01*
G01*
G37*
%TD*%
D10*
%TO.C,Q104*%
X95798600Y-103650800D03*
X94848600Y-101650800D03*
X96748600Y-101650800D03*
%TD*%
%TO.C,Q103*%
X95834200Y-106365800D03*
X96784200Y-108365800D03*
X94884200Y-108365800D03*
%TD*%
%TO.C,R112*%
G36*
G01*
X78775800Y-72430801D02*
X78775800Y-71180799D01*
G75*
G02*
X79025799Y-70930800I249999J0D01*
G01*
X79825801Y-70930800D01*
G75*
G02*
X80075800Y-71180799I0J-249999D01*
G01*
X80075800Y-72430801D01*
G75*
G02*
X79825801Y-72680800I-249999J0D01*
G01*
X79025799Y-72680800D01*
G75*
G02*
X78775800Y-72430801I0J249999D01*
G01*
G37*
G36*
G01*
X75675800Y-72430801D02*
X75675800Y-71180799D01*
G75*
G02*
X75925799Y-70930800I249999J0D01*
G01*
X76725801Y-70930800D01*
G75*
G02*
X76975800Y-71180799I0J-249999D01*
G01*
X76975800Y-72430801D01*
G75*
G02*
X76725801Y-72680800I-249999J0D01*
G01*
X75925799Y-72680800D01*
G75*
G02*
X75675800Y-72430801I0J249999D01*
G01*
G37*
%TD*%
%TO.C,D107*%
G36*
G01*
X69569300Y-72837200D02*
X69569300Y-71587200D01*
G75*
G02*
X69819300Y-71337200I250000J0D01*
G01*
X70744300Y-71337200D01*
G75*
G02*
X70994300Y-71587200I0J-250000D01*
G01*
X70994300Y-72837200D01*
G75*
G02*
X70744300Y-73087200I-250000J0D01*
G01*
X69819300Y-73087200D01*
G75*
G02*
X69569300Y-72837200I0J250000D01*
G01*
G37*
G36*
G01*
X66594300Y-72837200D02*
X66594300Y-71587200D01*
G75*
G02*
X66844300Y-71337200I250000J0D01*
G01*
X67769300Y-71337200D01*
G75*
G02*
X68019300Y-71587200I0J-250000D01*
G01*
X68019300Y-72837200D01*
G75*
G02*
X67769300Y-73087200I-250000J0D01*
G01*
X66844300Y-73087200D01*
G75*
G02*
X66594300Y-72837200I0J250000D01*
G01*
G37*
%TD*%
%TO.C,R109*%
G36*
G01*
X79923400Y-81264599D02*
X79923400Y-82514601D01*
G75*
G02*
X79673401Y-82764600I-249999J0D01*
G01*
X78873399Y-82764600D01*
G75*
G02*
X78623400Y-82514601I0J249999D01*
G01*
X78623400Y-81264599D01*
G75*
G02*
X78873399Y-81014600I249999J0D01*
G01*
X79673401Y-81014600D01*
G75*
G02*
X79923400Y-81264599I0J-249999D01*
G01*
G37*
G36*
G01*
X76823400Y-81264599D02*
X76823400Y-82514601D01*
G75*
G02*
X76573401Y-82764600I-249999J0D01*
G01*
X75773399Y-82764600D01*
G75*
G02*
X75523400Y-82514601I0J249999D01*
G01*
X75523400Y-81264599D01*
G75*
G02*
X75773399Y-81014600I249999J0D01*
G01*
X76573401Y-81014600D01*
G75*
G02*
X76823400Y-81264599I0J-249999D01*
G01*
G37*
%TD*%
%TO.C,D101*%
G36*
G01*
X141569600Y-115103000D02*
X140319600Y-115103000D01*
G75*
G02*
X140069600Y-114853000I0J250000D01*
G01*
X140069600Y-113928000D01*
G75*
G02*
X140319600Y-113678000I250000J0D01*
G01*
X141569600Y-113678000D01*
G75*
G02*
X141819600Y-113928000I0J-250000D01*
G01*
X141819600Y-114853000D01*
G75*
G02*
X141569600Y-115103000I-250000J0D01*
G01*
G37*
G36*
G01*
X141569600Y-112128000D02*
X140319600Y-112128000D01*
G75*
G02*
X140069600Y-111878000I0J250000D01*
G01*
X140069600Y-110953000D01*
G75*
G02*
X140319600Y-110703000I250000J0D01*
G01*
X141569600Y-110703000D01*
G75*
G02*
X141819600Y-110953000I0J-250000D01*
G01*
X141819600Y-111878000D01*
G75*
G02*
X141569600Y-112128000I-250000J0D01*
G01*
G37*
%TD*%
%TO.C,D102*%
G36*
G01*
X140294200Y-124792100D02*
X141544200Y-124792100D01*
G75*
G02*
X141794200Y-125042100I0J-250000D01*
G01*
X141794200Y-125967100D01*
G75*
G02*
X141544200Y-126217100I-250000J0D01*
G01*
X140294200Y-126217100D01*
G75*
G02*
X140044200Y-125967100I0J250000D01*
G01*
X140044200Y-125042100D01*
G75*
G02*
X140294200Y-124792100I250000J0D01*
G01*
G37*
G36*
G01*
X140294200Y-121817100D02*
X141544200Y-121817100D01*
G75*
G02*
X141794200Y-122067100I0J-250000D01*
G01*
X141794200Y-122992100D01*
G75*
G02*
X141544200Y-123242100I-250000J0D01*
G01*
X140294200Y-123242100D01*
G75*
G02*
X140044200Y-122992100I0J250000D01*
G01*
X140044200Y-122067100D01*
G75*
G02*
X140294200Y-121817100I250000J0D01*
G01*
G37*
%TD*%
%TO.C,D103*%
G36*
G01*
X140421200Y-100314400D02*
X141671200Y-100314400D01*
G75*
G02*
X141921200Y-100564400I0J-250000D01*
G01*
X141921200Y-101489400D01*
G75*
G02*
X141671200Y-101739400I-250000J0D01*
G01*
X140421200Y-101739400D01*
G75*
G02*
X140171200Y-101489400I0J250000D01*
G01*
X140171200Y-100564400D01*
G75*
G02*
X140421200Y-100314400I250000J0D01*
G01*
G37*
G36*
G01*
X140421200Y-103289400D02*
X141671200Y-103289400D01*
G75*
G02*
X141921200Y-103539400I0J-250000D01*
G01*
X141921200Y-104464400D01*
G75*
G02*
X141671200Y-104714400I-250000J0D01*
G01*
X140421200Y-104714400D01*
G75*
G02*
X140171200Y-104464400I0J250000D01*
G01*
X140171200Y-103539400D01*
G75*
G02*
X140421200Y-103289400I250000J0D01*
G01*
G37*
%TD*%
%TO.C,D104*%
G36*
G01*
X79782700Y-75676600D02*
X79782700Y-76926600D01*
G75*
G02*
X79532700Y-77176600I-250000J0D01*
G01*
X78607700Y-77176600D01*
G75*
G02*
X78357700Y-76926600I0J250000D01*
G01*
X78357700Y-75676600D01*
G75*
G02*
X78607700Y-75426600I250000J0D01*
G01*
X79532700Y-75426600D01*
G75*
G02*
X79782700Y-75676600I0J-250000D01*
G01*
G37*
G36*
G01*
X76807700Y-75676600D02*
X76807700Y-76926600D01*
G75*
G02*
X76557700Y-77176600I-250000J0D01*
G01*
X75632700Y-77176600D01*
G75*
G02*
X75382700Y-76926600I0J250000D01*
G01*
X75382700Y-75676600D01*
G75*
G02*
X75632700Y-75426600I250000J0D01*
G01*
X76557700Y-75426600D01*
G75*
G02*
X76807700Y-75676600I0J-250000D01*
G01*
G37*
%TD*%
%TO.C,Q101*%
X70342800Y-80651600D03*
X68442800Y-80651600D03*
X69392800Y-82651600D03*
%TD*%
%TO.C,Q102*%
X85714800Y-73717400D03*
X86664800Y-75717400D03*
X84764800Y-75717400D03*
%TD*%
%TO.C,R101*%
G36*
G01*
X137226201Y-115077000D02*
X135976199Y-115077000D01*
G75*
G02*
X135726200Y-114827001I0J249999D01*
G01*
X135726200Y-114026999D01*
G75*
G02*
X135976199Y-113777000I249999J0D01*
G01*
X137226201Y-113777000D01*
G75*
G02*
X137476200Y-114026999I0J-249999D01*
G01*
X137476200Y-114827001D01*
G75*
G02*
X137226201Y-115077000I-249999J0D01*
G01*
G37*
G36*
G01*
X137226201Y-111977000D02*
X135976199Y-111977000D01*
G75*
G02*
X135726200Y-111727001I0J249999D01*
G01*
X135726200Y-110926999D01*
G75*
G02*
X135976199Y-110677000I249999J0D01*
G01*
X137226201Y-110677000D01*
G75*
G02*
X137476200Y-110926999I0J-249999D01*
G01*
X137476200Y-111727001D01*
G75*
G02*
X137226201Y-111977000I-249999J0D01*
G01*
G37*
%TD*%
%TO.C,R102*%
G36*
G01*
X136128599Y-124674800D02*
X137378601Y-124674800D01*
G75*
G02*
X137628600Y-124924799I0J-249999D01*
G01*
X137628600Y-125724801D01*
G75*
G02*
X137378601Y-125974800I-249999J0D01*
G01*
X136128599Y-125974800D01*
G75*
G02*
X135878600Y-125724801I0J249999D01*
G01*
X135878600Y-124924799D01*
G75*
G02*
X136128599Y-124674800I249999J0D01*
G01*
G37*
G36*
G01*
X136128599Y-121574800D02*
X137378601Y-121574800D01*
G75*
G02*
X137628600Y-121824799I0J-249999D01*
G01*
X137628600Y-122624801D01*
G75*
G02*
X137378601Y-122874800I-249999J0D01*
G01*
X136128599Y-122874800D01*
G75*
G02*
X135878600Y-122624801I0J249999D01*
G01*
X135878600Y-121824799D01*
G75*
G02*
X136128599Y-121574800I249999J0D01*
G01*
G37*
%TD*%
%TO.C,R103*%
G36*
G01*
X135772999Y-100339800D02*
X137023001Y-100339800D01*
G75*
G02*
X137273000Y-100589799I0J-249999D01*
G01*
X137273000Y-101389801D01*
G75*
G02*
X137023001Y-101639800I-249999J0D01*
G01*
X135772999Y-101639800D01*
G75*
G02*
X135523000Y-101389801I0J249999D01*
G01*
X135523000Y-100589799D01*
G75*
G02*
X135772999Y-100339800I249999J0D01*
G01*
G37*
G36*
G01*
X135772999Y-103439800D02*
X137023001Y-103439800D01*
G75*
G02*
X137273000Y-103689799I0J-249999D01*
G01*
X137273000Y-104489801D01*
G75*
G02*
X137023001Y-104739800I-249999J0D01*
G01*
X135772999Y-104739800D01*
G75*
G02*
X135523000Y-104489801I0J249999D01*
G01*
X135523000Y-103689799D01*
G75*
G02*
X135772999Y-103439800I249999J0D01*
G01*
G37*
%TD*%
%TO.C,R104*%
G36*
G01*
X88610200Y-69478999D02*
X88610200Y-70729001D01*
G75*
G02*
X88360201Y-70979000I-249999J0D01*
G01*
X87560199Y-70979000D01*
G75*
G02*
X87310200Y-70729001I0J249999D01*
G01*
X87310200Y-69478999D01*
G75*
G02*
X87560199Y-69229000I249999J0D01*
G01*
X88360201Y-69229000D01*
G75*
G02*
X88610200Y-69478999I0J-249999D01*
G01*
G37*
G36*
G01*
X85510200Y-69478999D02*
X85510200Y-70729001D01*
G75*
G02*
X85260201Y-70979000I-249999J0D01*
G01*
X84460199Y-70979000D01*
G75*
G02*
X84210200Y-70729001I0J249999D01*
G01*
X84210200Y-69478999D01*
G75*
G02*
X84460199Y-69229000I249999J0D01*
G01*
X85260201Y-69229000D01*
G75*
G02*
X85510200Y-69478999I0J-249999D01*
G01*
G37*
%TD*%
%TO.C,R105*%
G36*
G01*
X68771600Y-75778199D02*
X68771600Y-77028201D01*
G75*
G02*
X68521601Y-77278200I-249999J0D01*
G01*
X67721599Y-77278200D01*
G75*
G02*
X67471600Y-77028201I0J249999D01*
G01*
X67471600Y-75778199D01*
G75*
G02*
X67721599Y-75528200I249999J0D01*
G01*
X68521601Y-75528200D01*
G75*
G02*
X68771600Y-75778199I0J-249999D01*
G01*
G37*
G36*
G01*
X71871600Y-75778199D02*
X71871600Y-77028201D01*
G75*
G02*
X71621601Y-77278200I-249999J0D01*
G01*
X70821599Y-77278200D01*
G75*
G02*
X70571600Y-77028201I0J249999D01*
G01*
X70571600Y-75778199D01*
G75*
G02*
X70821599Y-75528200I249999J0D01*
G01*
X71621601Y-75528200D01*
G75*
G02*
X71871600Y-75778199I0J-249999D01*
G01*
G37*
%TD*%
%TO.C,R106*%
G36*
G01*
X85459400Y-61325599D02*
X85459400Y-62575601D01*
G75*
G02*
X85209401Y-62825600I-249999J0D01*
G01*
X84409399Y-62825600D01*
G75*
G02*
X84159400Y-62575601I0J249999D01*
G01*
X84159400Y-61325599D01*
G75*
G02*
X84409399Y-61075600I249999J0D01*
G01*
X85209401Y-61075600D01*
G75*
G02*
X85459400Y-61325599I0J-249999D01*
G01*
G37*
G36*
G01*
X88559400Y-61325599D02*
X88559400Y-62575601D01*
G75*
G02*
X88309401Y-62825600I-249999J0D01*
G01*
X87509399Y-62825600D01*
G75*
G02*
X87259400Y-62575601I0J249999D01*
G01*
X87259400Y-61325599D01*
G75*
G02*
X87509399Y-61075600I249999J0D01*
G01*
X88309401Y-61075600D01*
G75*
G02*
X88559400Y-61325599I0J-249999D01*
G01*
G37*
%TD*%
%TO.C,R107*%
G36*
G01*
X82717400Y-81162999D02*
X82717400Y-82413001D01*
G75*
G02*
X82467401Y-82663000I-249999J0D01*
G01*
X81667399Y-82663000D01*
G75*
G02*
X81417400Y-82413001I0J249999D01*
G01*
X81417400Y-81162999D01*
G75*
G02*
X81667399Y-80913000I249999J0D01*
G01*
X82467401Y-80913000D01*
G75*
G02*
X82717400Y-81162999I0J-249999D01*
G01*
G37*
G36*
G01*
X85817400Y-81162999D02*
X85817400Y-82413001D01*
G75*
G02*
X85567401Y-82663000I-249999J0D01*
G01*
X84767399Y-82663000D01*
G75*
G02*
X84517400Y-82413001I0J249999D01*
G01*
X84517400Y-81162999D01*
G75*
G02*
X84767399Y-80913000I249999J0D01*
G01*
X85567401Y-80913000D01*
G75*
G02*
X85817400Y-81162999I0J-249999D01*
G01*
G37*
%TD*%
%TO.C,R108*%
G36*
G01*
X96123599Y-95157600D02*
X97373601Y-95157600D01*
G75*
G02*
X97623600Y-95407599I0J-249999D01*
G01*
X97623600Y-96207601D01*
G75*
G02*
X97373601Y-96457600I-249999J0D01*
G01*
X96123599Y-96457600D01*
G75*
G02*
X95873600Y-96207601I0J249999D01*
G01*
X95873600Y-95407599D01*
G75*
G02*
X96123599Y-95157600I249999J0D01*
G01*
G37*
G36*
G01*
X96123599Y-98257600D02*
X97373601Y-98257600D01*
G75*
G02*
X97623600Y-98507599I0J-249999D01*
G01*
X97623600Y-99307601D01*
G75*
G02*
X97373601Y-99557600I-249999J0D01*
G01*
X96123599Y-99557600D01*
G75*
G02*
X95873600Y-99307601I0J249999D01*
G01*
X95873600Y-98507599D01*
G75*
G02*
X96123599Y-98257600I249999J0D01*
G01*
G37*
%TD*%
%TO.C,R110*%
G36*
G01*
X97399001Y-90260600D02*
X96148999Y-90260600D01*
G75*
G02*
X95899000Y-90010601I0J249999D01*
G01*
X95899000Y-89210599D01*
G75*
G02*
X96148999Y-88960600I249999J0D01*
G01*
X97399001Y-88960600D01*
G75*
G02*
X97649000Y-89210599I0J-249999D01*
G01*
X97649000Y-90010601D01*
G75*
G02*
X97399001Y-90260600I-249999J0D01*
G01*
G37*
G36*
G01*
X97399001Y-93360600D02*
X96148999Y-93360600D01*
G75*
G02*
X95899000Y-93110601I0J249999D01*
G01*
X95899000Y-92310599D01*
G75*
G02*
X96148999Y-92060600I249999J0D01*
G01*
X97399001Y-92060600D01*
G75*
G02*
X97649000Y-92310599I0J-249999D01*
G01*
X97649000Y-93110601D01*
G75*
G02*
X97399001Y-93360600I-249999J0D01*
G01*
G37*
%TD*%
%TO.C,R111*%
G36*
G01*
X88559400Y-65516599D02*
X88559400Y-66766601D01*
G75*
G02*
X88309401Y-67016600I-249999J0D01*
G01*
X87509399Y-67016600D01*
G75*
G02*
X87259400Y-66766601I0J249999D01*
G01*
X87259400Y-65516599D01*
G75*
G02*
X87509399Y-65266600I249999J0D01*
G01*
X88309401Y-65266600D01*
G75*
G02*
X88559400Y-65516599I0J-249999D01*
G01*
G37*
G36*
G01*
X85459400Y-65516599D02*
X85459400Y-66766601D01*
G75*
G02*
X85209401Y-67016600I-249999J0D01*
G01*
X84409399Y-67016600D01*
G75*
G02*
X84159400Y-66766601I0J249999D01*
G01*
X84159400Y-65516599D01*
G75*
G02*
X84409399Y-65266600I249999J0D01*
G01*
X85209401Y-65266600D01*
G75*
G02*
X85459400Y-65516599I0J-249999D01*
G01*
G37*
%TD*%
D11*
%TO.C,SW101*%
X141504600Y-95071000D03*
X138404600Y-95071000D03*
X138404600Y-87846000D03*
X141504600Y-87796000D03*
%TD*%
M02*
