%TF.GenerationSoftware,KiCad,Pcbnew,5.1.12-84ad8e8a86~92~ubuntu18.04.1*%
%TF.CreationDate,2022-06-27T03:15:35+02:00*%
%TF.ProjectId,Parallel-cobbler,50617261-6c6c-4656-9c2d-636f62626c65,rev?*%
%TF.SameCoordinates,Original*%
%TF.FileFunction,Copper,L1,Top*%
%TF.FilePolarity,Positive*%
%FSLAX46Y46*%
G04 Gerber Fmt 4.6, Leading zero omitted, Abs format (unit mm)*
G04 Created by KiCad (PCBNEW 5.1.12-84ad8e8a86~92~ubuntu18.04.1) date 2022-06-27 03:15:35*
%MOMM*%
%LPD*%
G01*
G04 APERTURE LIST*
%TA.AperFunction,ComponentPad*%
%ADD10O,1.700000X1.700000*%
%TD*%
%TA.AperFunction,ComponentPad*%
%ADD11R,1.700000X1.700000*%
%TD*%
%TA.AperFunction,ComponentPad*%
%ADD12C,1.700000*%
%TD*%
%TA.AperFunction,ViaPad*%
%ADD13C,0.800000*%
%TD*%
%TA.AperFunction,Conductor*%
%ADD14C,0.400000*%
%TD*%
%TA.AperFunction,Conductor*%
%ADD15C,0.250000*%
%TD*%
G04 APERTURE END LIST*
D10*
%TO.P,J3,10*%
%TO.N,+3V3*%
X143250000Y-28040000D03*
%TO.P,J3,9*%
%TO.N,/s7*%
X143250000Y-30580000D03*
%TO.P,J3,8*%
%TO.N,/s6*%
X143250000Y-33120000D03*
%TO.P,J3,7*%
%TO.N,/s5*%
X143250000Y-35660000D03*
%TO.P,J3,6*%
%TO.N,/s4*%
X143250000Y-38200000D03*
%TO.P,J3,5*%
%TO.N,/s3*%
X143250000Y-40740000D03*
%TO.P,J3,4*%
%TO.N,/c3*%
X143250000Y-43280000D03*
%TO.P,J3,3*%
%TO.N,/c2*%
X143250000Y-45820000D03*
%TO.P,J3,2*%
%TO.N,/c1*%
X143250000Y-48360000D03*
D11*
%TO.P,J3,1*%
%TO.N,/c0*%
X143250000Y-50900000D03*
%TD*%
D10*
%TO.P,J1,10*%
%TO.N,GND*%
X128000000Y-28050000D03*
%TO.P,J1,9*%
%TO.N,/d7*%
X128000000Y-30590000D03*
%TO.P,J1,8*%
%TO.N,/d6*%
X128000000Y-33130000D03*
%TO.P,J1,7*%
%TO.N,/d5*%
X128000000Y-35670000D03*
%TO.P,J1,6*%
%TO.N,/d4*%
X128000000Y-38210000D03*
%TO.P,J1,5*%
%TO.N,/d3*%
X128000000Y-40750000D03*
%TO.P,J1,4*%
%TO.N,/d2*%
X128000000Y-43290000D03*
%TO.P,J1,3*%
%TO.N,/d1*%
X128000000Y-45830000D03*
%TO.P,J1,2*%
%TO.N,/d0*%
X128000000Y-48370000D03*
D11*
%TO.P,J1,1*%
%TO.N,+5V*%
X128000000Y-50910000D03*
%TD*%
D12*
%TO.P,J2,40*%
%TO.N,/s7*%
X160810000Y-64310000D03*
%TO.P,J2,38*%
%TO.N,/s6*%
X158270000Y-64310000D03*
%TO.P,J2,36*%
%TO.N,/s5*%
X155730000Y-64310000D03*
%TO.P,J2,34*%
%TO.N,GND*%
X153190000Y-64310000D03*
%TO.P,J2,32*%
%TO.N,/s4*%
X150650000Y-64310000D03*
%TO.P,J2,30*%
%TO.N,GND*%
X148110000Y-64310000D03*
%TO.P,J2,28*%
%TO.N,/s3*%
X145570000Y-64310000D03*
%TO.P,J2,26*%
%TO.N,Net-(J2-Pad26)*%
X143030000Y-64310000D03*
%TO.P,J2,24*%
%TO.N,Net-(J2-Pad24)*%
X140490000Y-64310000D03*
%TO.P,J2,22*%
%TO.N,Net-(J2-Pad22)*%
X137950000Y-64310000D03*
%TO.P,J2,20*%
%TO.N,GND*%
X135410000Y-64310000D03*
%TO.P,J2,18*%
%TO.N,Net-(J2-Pad18)*%
X132870000Y-64310000D03*
%TO.P,J2,16*%
%TO.N,Net-(J2-Pad16)*%
X130330000Y-64310000D03*
%TO.P,J2,14*%
%TO.N,GND*%
X127790000Y-64310000D03*
%TO.P,J2,12*%
%TO.N,Net-(J2-Pad12)*%
X125250000Y-64310000D03*
%TO.P,J2,10*%
%TO.N,Net-(J2-Pad10)*%
X122710000Y-64310000D03*
%TO.P,J2,8*%
%TO.N,Net-(J2-Pad8)*%
X120170000Y-64310000D03*
%TO.P,J2,6*%
%TO.N,GND*%
X117630000Y-64310000D03*
%TO.P,J2,4*%
%TO.N,+5V*%
X115090000Y-64310000D03*
%TO.P,J2,2*%
X112550000Y-64310000D03*
%TO.P,J2,39*%
%TO.N,GND*%
X160810000Y-66850000D03*
%TO.P,J2,37*%
%TO.N,/c3*%
X158270000Y-66850000D03*
%TO.P,J2,35*%
%TO.N,/c2*%
X155730000Y-66850000D03*
%TO.P,J2,33*%
%TO.N,/c1*%
X153190000Y-66850000D03*
%TO.P,J2,31*%
%TO.N,/c0*%
X150650000Y-66850000D03*
%TO.P,J2,29*%
%TO.N,Net-(J2-Pad29)*%
X148110000Y-66850000D03*
%TO.P,J2,27*%
%TO.N,Net-(J2-Pad27)*%
X145570000Y-66850000D03*
%TO.P,J2,25*%
%TO.N,GND*%
X143030000Y-66850000D03*
%TO.P,J2,23*%
%TO.N,Net-(J2-Pad23)*%
X140490000Y-66850000D03*
%TO.P,J2,21*%
%TO.N,/d7*%
X137950000Y-66850000D03*
%TO.P,J2,19*%
%TO.N,/d6*%
X135410000Y-66850000D03*
%TO.P,J2,17*%
%TO.N,+3V3*%
X132870000Y-66850000D03*
%TO.P,J2,15*%
%TO.N,/d5*%
X130330000Y-66850000D03*
%TO.P,J2,13*%
%TO.N,/d4*%
X127790000Y-66850000D03*
%TO.P,J2,11*%
%TO.N,/d3*%
X125250000Y-66850000D03*
%TO.P,J2,9*%
%TO.N,GND*%
X122710000Y-66850000D03*
%TO.P,J2,7*%
%TO.N,/d2*%
X120170000Y-66850000D03*
%TO.P,J2,5*%
%TO.N,/d1*%
X117630000Y-66850000D03*
%TO.P,J2,3*%
%TO.N,/d0*%
X115090000Y-66850000D03*
%TO.P,J2,1*%
%TO.N,+3V3*%
%TA.AperFunction,ComponentPad*%
G36*
G01*
X113150000Y-67700000D02*
X111950000Y-67700000D01*
G75*
G02*
X111700000Y-67450000I0J250000D01*
G01*
X111700000Y-66250000D01*
G75*
G02*
X111950000Y-66000000I250000J0D01*
G01*
X113150000Y-66000000D01*
G75*
G02*
X113400000Y-66250000I0J-250000D01*
G01*
X113400000Y-67450000D01*
G75*
G02*
X113150000Y-67700000I-250000J0D01*
G01*
G37*
%TD.AperFunction*%
%TD*%
D13*
%TO.N,/s3*%
X140300000Y-61600000D03*
%TO.N,/s4*%
X138700000Y-61000000D03*
%TO.N,/s5*%
X137900000Y-59850000D03*
%TO.N,/s7*%
X136350000Y-57350000D03*
%TO.N,/s6*%
X137300000Y-58650000D03*
%TD*%
D14*
%TO.N,+5V*%
X120900000Y-58500000D02*
X115090000Y-64310000D01*
X127600000Y-58500000D02*
X120900000Y-58500000D01*
X128000000Y-50910000D02*
X128000000Y-58100000D01*
X128000000Y-58100000D02*
X127600000Y-58500000D01*
%TO.N,+3V3*%
X112550000Y-66850000D02*
X112550000Y-68350000D01*
X112550000Y-68350000D02*
X113300000Y-69100000D01*
X113300000Y-69100000D02*
X132050000Y-69100000D01*
X132870000Y-68280000D02*
X132870000Y-66850000D01*
X132050000Y-69100000D02*
X132870000Y-68280000D01*
X132870000Y-66850000D02*
X132870000Y-68220000D01*
X132870000Y-68220000D02*
X133550000Y-68900000D01*
X133550000Y-68900000D02*
X138350000Y-68900000D01*
X139200001Y-68049999D02*
X139200001Y-63100001D01*
X138350000Y-68900000D02*
X139200001Y-68049999D01*
X135549999Y-59449999D02*
X135549999Y-33100001D01*
X139200001Y-63100001D02*
X135549999Y-59449999D01*
X140610000Y-28040000D02*
X143250000Y-28040000D01*
X135549999Y-33100001D02*
X140610000Y-28040000D01*
D15*
%TO.N,/c3*%
X155320000Y-69800000D02*
X158270000Y-66850000D01*
X144240998Y-69800000D02*
X155320000Y-69800000D01*
X142020000Y-43280000D02*
X140700000Y-44600000D01*
X143250000Y-43280000D02*
X142020000Y-43280000D01*
X140700000Y-44600000D02*
X140700000Y-60600000D01*
X140700000Y-60600000D02*
X141854999Y-61754999D01*
X141854999Y-61754999D02*
X141854999Y-67414001D01*
X141854999Y-67414001D02*
X144240998Y-69800000D01*
%TO.N,/c2*%
X153430000Y-69150000D02*
X155730000Y-66850000D01*
X143250000Y-45820000D02*
X141400000Y-47670000D01*
X141400000Y-60200000D02*
X144300000Y-63100000D01*
X144300000Y-63100000D02*
X144300000Y-67319002D01*
X141400000Y-47670000D02*
X141400000Y-60200000D01*
X144300000Y-67319002D02*
X146130998Y-69150000D01*
X146130998Y-69150000D02*
X153430000Y-69150000D01*
%TO.N,/s3*%
X140300000Y-61600000D02*
X139900000Y-61200000D01*
X139900000Y-44090000D02*
X143250000Y-40740000D01*
X139900000Y-61200000D02*
X139900000Y-44090000D01*
%TO.N,/c1*%
X147870998Y-68350000D02*
X151690000Y-68350000D01*
X146934999Y-67414001D02*
X147870998Y-68350000D01*
X142074999Y-49535001D02*
X142074999Y-59524999D01*
X142074999Y-59524999D02*
X144400000Y-61850000D01*
X143250000Y-48360000D02*
X142074999Y-49535001D01*
X144400000Y-61850000D02*
X146100000Y-61850000D01*
X151690000Y-68350000D02*
X153190000Y-66850000D01*
X146100000Y-61850000D02*
X146934999Y-62684999D01*
X146934999Y-62684999D02*
X146934999Y-67414001D01*
%TO.N,/s4*%
X143250000Y-38200000D02*
X139050000Y-42400000D01*
X139050000Y-42400000D02*
X139050000Y-60650000D01*
X139050000Y-60650000D02*
X138700000Y-61000000D01*
%TO.N,/s5*%
X143250000Y-35660000D02*
X138150000Y-40760000D01*
X138150000Y-40760000D02*
X138150000Y-59600000D01*
X138150000Y-59600000D02*
X137900000Y-59850000D01*
%TO.N,/s7*%
X143250000Y-30580000D02*
X136500000Y-37330000D01*
X136500000Y-37330000D02*
X136500000Y-57200000D01*
X136500000Y-57200000D02*
X136350000Y-57350000D01*
%TO.N,/s6*%
X143250000Y-33120000D02*
X137300000Y-39070000D01*
X137300000Y-39070000D02*
X137300000Y-58650000D01*
%TO.N,/d7*%
X128000000Y-30590000D02*
X132240000Y-30590000D01*
X134700000Y-33050000D02*
X134700000Y-61100000D01*
X132240000Y-30590000D02*
X134700000Y-33050000D01*
X136774999Y-65674999D02*
X137950000Y-66850000D01*
X136774999Y-63174999D02*
X136774999Y-65674999D01*
X134700000Y-61100000D02*
X136774999Y-63174999D01*
%TO.N,/d6*%
X128000000Y-33130000D02*
X133080000Y-33130000D01*
X133080000Y-33130000D02*
X133750000Y-33800000D01*
X134234999Y-65674999D02*
X135410000Y-66850000D01*
X134234999Y-63935997D02*
X134234999Y-65674999D01*
X133750000Y-63450998D02*
X134234999Y-63935997D01*
X133750000Y-33800000D02*
X133750000Y-63450998D01*
%TO.N,/d5*%
X130450000Y-66850000D02*
X130330000Y-66850000D01*
X132720000Y-35670000D02*
X133000000Y-35950000D01*
X128000000Y-35670000D02*
X132720000Y-35670000D01*
X133000000Y-35950000D02*
X133000000Y-62000000D01*
X133000000Y-62000000D02*
X131694999Y-63305001D01*
X131694999Y-65605001D02*
X130450000Y-66850000D01*
X131694999Y-63305001D02*
X131694999Y-65605001D01*
%TO.N,/d4*%
X128000000Y-38210000D02*
X131710000Y-38210000D01*
X132100000Y-38600000D02*
X132100000Y-61450000D01*
X131710000Y-38210000D02*
X132100000Y-38600000D01*
X132100000Y-61450000D02*
X131350000Y-62200000D01*
X131350000Y-62200000D02*
X129900000Y-62200000D01*
X128965001Y-65674999D02*
X127790000Y-66850000D01*
X128965001Y-63134999D02*
X128965001Y-65674999D01*
X129900000Y-62200000D02*
X128965001Y-63134999D01*
%TO.N,/d1*%
X128000000Y-45830000D02*
X129930000Y-45830000D01*
X130399980Y-46299980D02*
X130399980Y-59000020D01*
X129930000Y-45830000D02*
X130399980Y-46299980D01*
X130399980Y-59000020D02*
X129700000Y-59700000D01*
X118805001Y-65674999D02*
X117630000Y-66850000D01*
X118805001Y-63844999D02*
X118805001Y-65674999D01*
X122950000Y-59700000D02*
X118805001Y-63844999D01*
X129700000Y-59700000D02*
X122950000Y-59700000D01*
%TO.N,/d0*%
X128000000Y-48370000D02*
X129670000Y-48370000D01*
X129670000Y-48370000D02*
X129700000Y-48400000D01*
X129700000Y-48400000D02*
X129700000Y-58500000D01*
X129700000Y-58500000D02*
X129150000Y-59050000D01*
X116265001Y-65674999D02*
X115090000Y-66850000D01*
X116265001Y-63935997D02*
X116265001Y-65674999D01*
X121150998Y-59050000D02*
X116265001Y-63935997D01*
X129150000Y-59050000D02*
X121150998Y-59050000D01*
%TO.N,/c0*%
X149474999Y-65674999D02*
X150650000Y-66850000D01*
X149474999Y-62374999D02*
X149474999Y-65674999D01*
X148300000Y-61200000D02*
X149474999Y-62374999D01*
X144700000Y-61200000D02*
X148300000Y-61200000D01*
X143250000Y-50900000D02*
X143250000Y-59750000D01*
X143250000Y-59750000D02*
X144700000Y-61200000D01*
%TO.N,/d3*%
X128000000Y-40750000D02*
X130850000Y-40750000D01*
X130850000Y-40750000D02*
X131300000Y-41200000D01*
X131300000Y-41200000D02*
X131300000Y-60850000D01*
X131300000Y-60850000D02*
X130700000Y-61450000D01*
X130700000Y-61450000D02*
X127400000Y-61450000D01*
X127400000Y-61450000D02*
X126600000Y-62250000D01*
X126600000Y-65500000D02*
X125250000Y-66850000D01*
X126600000Y-62250000D02*
X126600000Y-65500000D01*
%TO.N,/d2*%
X128000000Y-43290000D02*
X129990000Y-43290000D01*
X129990000Y-43290000D02*
X130849990Y-44149990D01*
X130849990Y-44149990D02*
X130849990Y-59900010D01*
X130849990Y-59900010D02*
X130200000Y-60550000D01*
X130200000Y-60550000D02*
X123550000Y-60550000D01*
X121534999Y-62565001D02*
X121534999Y-65565001D01*
X123550000Y-60550000D02*
X121534999Y-62565001D01*
X120250000Y-66850000D02*
X120170000Y-66850000D01*
X121534999Y-65565001D02*
X120250000Y-66850000D01*
%TD*%
M02*
