M48
; DRILL file {KiCad 5.1.12-84ad8e8a86~92~ubuntu18.04.1} date lun 27 jun 2022 03:15:47 CEST
; FORMAT={-:-/ absolute / metric / decimal}
; #@! TF.CreationDate,2022-06-27T03:15:47+02:00
; #@! TF.GenerationSoftware,Kicad,Pcbnew,5.1.12-84ad8e8a86~92~ubuntu18.04.1
; #@! TF.FileFunction,Plated,1,2,PTH
FMAT,2
METRIC
T1C0.400
T2C1.000
%
G90
G05
T1
X136.35Y-57.35
X137.3Y-58.65
X137.9Y-59.85
X138.7Y-61.0
X140.3Y-61.6
T2
X112.55Y-64.31
X112.55Y-66.85
X115.09Y-64.31
X115.09Y-66.85
X117.63Y-64.31
X117.63Y-66.85
X120.17Y-64.31
X120.17Y-66.85
X122.71Y-64.31
X122.71Y-66.85
X125.25Y-64.31
X125.25Y-66.85
X127.79Y-64.31
X127.79Y-66.85
X128.0Y-28.05
X128.0Y-30.59
X128.0Y-33.13
X128.0Y-35.67
X128.0Y-38.21
X128.0Y-40.75
X128.0Y-43.29
X128.0Y-45.83
X128.0Y-48.37
X128.0Y-50.91
X130.33Y-64.31
X130.33Y-66.85
X132.87Y-64.31
X132.87Y-66.85
X135.41Y-64.31
X135.41Y-66.85
X137.95Y-64.31
X137.95Y-66.85
X140.49Y-64.31
X140.49Y-66.85
X143.03Y-64.31
X143.03Y-66.85
X143.25Y-28.04
X143.25Y-30.58
X143.25Y-33.12
X143.25Y-35.66
X143.25Y-38.2
X143.25Y-40.74
X143.25Y-43.28
X143.25Y-45.82
X143.25Y-48.36
X143.25Y-50.9
X145.57Y-64.31
X145.57Y-66.85
X148.11Y-64.31
X148.11Y-66.85
X150.65Y-64.31
X150.65Y-66.85
X153.19Y-64.31
X153.19Y-66.85
X155.73Y-64.31
X155.73Y-66.85
X158.27Y-64.31
X158.27Y-66.85
X160.81Y-64.31
X160.81Y-66.85
T0
M30
