%TF.GenerationSoftware,KiCad,Pcbnew,5.1.12-84ad8e8a86~92~ubuntu18.04.1*%
%TF.CreationDate,2022-06-27T03:15:35+02:00*%
%TF.ProjectId,Parallel-cobbler,50617261-6c6c-4656-9c2d-636f62626c65,rev?*%
%TF.SameCoordinates,Original*%
%TF.FileFunction,Legend,Top*%
%TF.FilePolarity,Positive*%
%FSLAX46Y46*%
G04 Gerber Fmt 4.6, Leading zero omitted, Abs format (unit mm)*
G04 Created by KiCad (PCBNEW 5.1.12-84ad8e8a86~92~ubuntu18.04.1) date 2022-06-27 03:15:35*
%MOMM*%
%LPD*%
G01*
G04 APERTURE LIST*
%ADD10C,0.250000*%
%ADD11C,0.150000*%
%ADD12C,0.350000*%
%ADD13C,0.120000*%
G04 APERTURE END LIST*
D10*
X129550000Y-29450000D02*
X141650000Y-29450000D01*
X129600000Y-52300000D02*
X141750000Y-52300000D01*
D11*
X135545238Y-38104761D02*
X135640476Y-38152380D01*
X135830952Y-38152380D01*
X135926190Y-38104761D01*
X135973809Y-38009523D01*
X135973809Y-37961904D01*
X135926190Y-37866666D01*
X135830952Y-37819047D01*
X135688095Y-37819047D01*
X135592857Y-37771428D01*
X135545238Y-37676190D01*
X135545238Y-37628571D01*
X135592857Y-37533333D01*
X135688095Y-37485714D01*
X135830952Y-37485714D01*
X135926190Y-37533333D01*
X136783333Y-38104761D02*
X136688095Y-38152380D01*
X136497619Y-38152380D01*
X136402380Y-38104761D01*
X136354761Y-38009523D01*
X136354761Y-37628571D01*
X136402380Y-37533333D01*
X136497619Y-37485714D01*
X136688095Y-37485714D01*
X136783333Y-37533333D01*
X136830952Y-37628571D01*
X136830952Y-37723809D01*
X136354761Y-37819047D01*
X137402380Y-38152380D02*
X137307142Y-38104761D01*
X137259523Y-38009523D01*
X137259523Y-37152380D01*
D10*
X133700000Y-42000000D02*
X133700000Y-29500000D01*
X133700000Y-42000000D02*
X133700000Y-52300000D01*
D11*
X132197619Y-33416666D02*
X133197619Y-33416666D01*
X132245238Y-33416666D02*
X132197619Y-33321428D01*
X132197619Y-33130952D01*
X132245238Y-33035714D01*
X132292857Y-32988095D01*
X132388095Y-32940476D01*
X132673809Y-32940476D01*
X132769047Y-32988095D01*
X132816666Y-33035714D01*
X132864285Y-33130952D01*
X132864285Y-33321428D01*
X132816666Y-33416666D01*
X132197619Y-34321428D02*
X132721428Y-34321428D01*
X132816666Y-34273809D01*
X132864285Y-34178571D01*
X132864285Y-33988095D01*
X132816666Y-33892857D01*
X132245238Y-34321428D02*
X132197619Y-34226190D01*
X132197619Y-33988095D01*
X132245238Y-33892857D01*
X132340476Y-33845238D01*
X132435714Y-33845238D01*
X132530952Y-33892857D01*
X132578571Y-33988095D01*
X132578571Y-34226190D01*
X132626190Y-34321428D01*
X132864285Y-34654761D02*
X132864285Y-35035714D01*
X133197619Y-34797619D02*
X132340476Y-34797619D01*
X132245238Y-34845238D01*
X132197619Y-34940476D01*
X132197619Y-35035714D01*
X132197619Y-35797619D02*
X132721428Y-35797619D01*
X132816666Y-35750000D01*
X132864285Y-35654761D01*
X132864285Y-35464285D01*
X132816666Y-35369047D01*
X132245238Y-35797619D02*
X132197619Y-35702380D01*
X132197619Y-35464285D01*
X132245238Y-35369047D01*
X132340476Y-35321428D01*
X132435714Y-35321428D01*
X132530952Y-35369047D01*
X132578571Y-35464285D01*
X132578571Y-35702380D01*
X132626190Y-35797619D01*
X131816666Y-37321428D02*
X131864285Y-37273809D01*
X132007142Y-37178571D01*
X132102380Y-37130952D01*
X132245238Y-37083333D01*
X132483333Y-37035714D01*
X132673809Y-37035714D01*
X132911904Y-37083333D01*
X133054761Y-37130952D01*
X133150000Y-37178571D01*
X133292857Y-37273809D01*
X133340476Y-37321428D01*
X132197619Y-37845238D02*
X132245238Y-37750000D01*
X132292857Y-37702380D01*
X132388095Y-37654761D01*
X132673809Y-37654761D01*
X132769047Y-37702380D01*
X132816666Y-37750000D01*
X132864285Y-37845238D01*
X132864285Y-37988095D01*
X132816666Y-38083333D01*
X132769047Y-38130952D01*
X132673809Y-38178571D01*
X132388095Y-38178571D01*
X132292857Y-38130952D01*
X132245238Y-38083333D01*
X132197619Y-37988095D01*
X132197619Y-37845238D01*
X132864285Y-39035714D02*
X132197619Y-39035714D01*
X132864285Y-38607142D02*
X132340476Y-38607142D01*
X132245238Y-38654761D01*
X132197619Y-38750000D01*
X132197619Y-38892857D01*
X132245238Y-38988095D01*
X132292857Y-39035714D01*
X132864285Y-39369047D02*
X132864285Y-39750000D01*
X133197619Y-39511904D02*
X132340476Y-39511904D01*
X132245238Y-39559523D01*
X132197619Y-39654761D01*
X132197619Y-39750000D01*
X132864285Y-40083333D02*
X131864285Y-40083333D01*
X132816666Y-40083333D02*
X132864285Y-40178571D01*
X132864285Y-40369047D01*
X132816666Y-40464285D01*
X132769047Y-40511904D01*
X132673809Y-40559523D01*
X132388095Y-40559523D01*
X132292857Y-40511904D01*
X132245238Y-40464285D01*
X132197619Y-40369047D01*
X132197619Y-40178571D01*
X132245238Y-40083333D01*
X132864285Y-41416666D02*
X132197619Y-41416666D01*
X132864285Y-40988095D02*
X132340476Y-40988095D01*
X132245238Y-41035714D01*
X132197619Y-41130952D01*
X132197619Y-41273809D01*
X132245238Y-41369047D01*
X132292857Y-41416666D01*
X132864285Y-41750000D02*
X132864285Y-42130952D01*
X133197619Y-41892857D02*
X132340476Y-41892857D01*
X132245238Y-41940476D01*
X132197619Y-42035714D01*
X132197619Y-42130952D01*
X132197619Y-43369047D02*
X132245238Y-43273809D01*
X132292857Y-43226190D01*
X132388095Y-43178571D01*
X132673809Y-43178571D01*
X132769047Y-43226190D01*
X132816666Y-43273809D01*
X132864285Y-43369047D01*
X132864285Y-43511904D01*
X132816666Y-43607142D01*
X132769047Y-43654761D01*
X132673809Y-43702380D01*
X132388095Y-43702380D01*
X132292857Y-43654761D01*
X132245238Y-43607142D01*
X132197619Y-43511904D01*
X132197619Y-43369047D01*
X132864285Y-44130952D02*
X132197619Y-44130952D01*
X132769047Y-44130952D02*
X132816666Y-44178571D01*
X132864285Y-44273809D01*
X132864285Y-44416666D01*
X132816666Y-44511904D01*
X132721428Y-44559523D01*
X132197619Y-44559523D01*
X132197619Y-45178571D02*
X132245238Y-45083333D01*
X132340476Y-45035714D01*
X133197619Y-45035714D01*
X132864285Y-45464285D02*
X132197619Y-45702380D01*
X132864285Y-45940476D02*
X132197619Y-45702380D01*
X131959523Y-45607142D01*
X131911904Y-45559523D01*
X131864285Y-45464285D01*
X131816666Y-46226190D02*
X131864285Y-46273809D01*
X132007142Y-46369047D01*
X132102380Y-46416666D01*
X132245238Y-46464285D01*
X132483333Y-46511904D01*
X132673809Y-46511904D01*
X132911904Y-46464285D01*
X133054761Y-46416666D01*
X133150000Y-46369047D01*
X133292857Y-46273809D01*
X133340476Y-46226190D01*
X135052380Y-49504761D02*
X135004761Y-49600000D01*
X134957142Y-49647619D01*
X134861904Y-49695238D01*
X134576190Y-49695238D01*
X134480952Y-49647619D01*
X134433333Y-49600000D01*
X134385714Y-49504761D01*
X134385714Y-49361904D01*
X134433333Y-49266666D01*
X134480952Y-49219047D01*
X134576190Y-49171428D01*
X134861904Y-49171428D01*
X134957142Y-49219047D01*
X135004761Y-49266666D01*
X135052380Y-49361904D01*
X135052380Y-49504761D01*
X134385714Y-48314285D02*
X135052380Y-48314285D01*
X134385714Y-48742857D02*
X134909523Y-48742857D01*
X135004761Y-48695238D01*
X135052380Y-48600000D01*
X135052380Y-48457142D01*
X135004761Y-48361904D01*
X134957142Y-48314285D01*
X134385714Y-47980952D02*
X134385714Y-47600000D01*
X134052380Y-47838095D02*
X134909523Y-47838095D01*
X135004761Y-47790476D01*
X135052380Y-47695238D01*
X135052380Y-47600000D01*
X134385714Y-47266666D02*
X135385714Y-47266666D01*
X134433333Y-47266666D02*
X134385714Y-47171428D01*
X134385714Y-46980952D01*
X134433333Y-46885714D01*
X134480952Y-46838095D01*
X134576190Y-46790476D01*
X134861904Y-46790476D01*
X134957142Y-46838095D01*
X135004761Y-46885714D01*
X135052380Y-46980952D01*
X135052380Y-47171428D01*
X135004761Y-47266666D01*
X134385714Y-45933333D02*
X135052380Y-45933333D01*
X134385714Y-46361904D02*
X134909523Y-46361904D01*
X135004761Y-46314285D01*
X135052380Y-46219047D01*
X135052380Y-46076190D01*
X135004761Y-45980952D01*
X134957142Y-45933333D01*
X134385714Y-45600000D02*
X134385714Y-45219047D01*
X134052380Y-45457142D02*
X134909523Y-45457142D01*
X135004761Y-45409523D01*
X135052380Y-45314285D01*
X135052380Y-45219047D01*
X135004761Y-44933333D02*
X135052380Y-44838095D01*
X135052380Y-44647619D01*
X135004761Y-44552380D01*
X134909523Y-44504761D01*
X134861904Y-44504761D01*
X134766666Y-44552380D01*
X134719047Y-44647619D01*
X134719047Y-44790476D01*
X134671428Y-44885714D01*
X134576190Y-44933333D01*
X134528571Y-44933333D01*
X134433333Y-44885714D01*
X134385714Y-44790476D01*
X134385714Y-44647619D01*
X134433333Y-44552380D01*
X135004761Y-39183333D02*
X135052380Y-39088095D01*
X135052380Y-38897619D01*
X135004761Y-38802380D01*
X134909523Y-38754761D01*
X134861904Y-38754761D01*
X134766666Y-38802380D01*
X134719047Y-38897619D01*
X134719047Y-39040476D01*
X134671428Y-39135714D01*
X134576190Y-39183333D01*
X134528571Y-39183333D01*
X134433333Y-39135714D01*
X134385714Y-39040476D01*
X134385714Y-38897619D01*
X134433333Y-38802380D01*
X134385714Y-38469047D02*
X134385714Y-38088095D01*
X134052380Y-38326190D02*
X134909523Y-38326190D01*
X135004761Y-38278571D01*
X135052380Y-38183333D01*
X135052380Y-38088095D01*
X135052380Y-37326190D02*
X134528571Y-37326190D01*
X134433333Y-37373809D01*
X134385714Y-37469047D01*
X134385714Y-37659523D01*
X134433333Y-37754761D01*
X135004761Y-37326190D02*
X135052380Y-37421428D01*
X135052380Y-37659523D01*
X135004761Y-37754761D01*
X134909523Y-37802380D01*
X134814285Y-37802380D01*
X134719047Y-37754761D01*
X134671428Y-37659523D01*
X134671428Y-37421428D01*
X134623809Y-37326190D01*
X134385714Y-36992857D02*
X134385714Y-36611904D01*
X134052380Y-36850000D02*
X134909523Y-36850000D01*
X135004761Y-36802380D01*
X135052380Y-36707142D01*
X135052380Y-36611904D01*
X134385714Y-35850000D02*
X135052380Y-35850000D01*
X134385714Y-36278571D02*
X134909523Y-36278571D01*
X135004761Y-36230952D01*
X135052380Y-36135714D01*
X135052380Y-35992857D01*
X135004761Y-35897619D01*
X134957142Y-35850000D01*
X135004761Y-35421428D02*
X135052380Y-35326190D01*
X135052380Y-35135714D01*
X135004761Y-35040476D01*
X134909523Y-34992857D01*
X134861904Y-34992857D01*
X134766666Y-35040476D01*
X134719047Y-35135714D01*
X134719047Y-35278571D01*
X134671428Y-35373809D01*
X134576190Y-35421428D01*
X134528571Y-35421428D01*
X134433333Y-35373809D01*
X134385714Y-35278571D01*
X134385714Y-35135714D01*
X134433333Y-35040476D01*
X135433333Y-33516666D02*
X135385714Y-33564285D01*
X135242857Y-33659523D01*
X135147619Y-33707142D01*
X135004761Y-33754761D01*
X134766666Y-33802380D01*
X134576190Y-33802380D01*
X134338095Y-33754761D01*
X134195238Y-33707142D01*
X134100000Y-33659523D01*
X133957142Y-33564285D01*
X133909523Y-33516666D01*
X135052380Y-33135714D02*
X134385714Y-33135714D01*
X134052380Y-33135714D02*
X134100000Y-33183333D01*
X134147619Y-33135714D01*
X134100000Y-33088095D01*
X134052380Y-33135714D01*
X134147619Y-33135714D01*
X134385714Y-32659523D02*
X135052380Y-32659523D01*
X134480952Y-32659523D02*
X134433333Y-32611904D01*
X134385714Y-32516666D01*
X134385714Y-32373809D01*
X134433333Y-32278571D01*
X134528571Y-32230952D01*
X135052380Y-32230952D01*
X135433333Y-31850000D02*
X135385714Y-31802380D01*
X135242857Y-31707142D01*
X135147619Y-31659523D01*
X135004761Y-31611904D01*
X134766666Y-31564285D01*
X134576190Y-31564285D01*
X134338095Y-31611904D01*
X134195238Y-31659523D01*
X134100000Y-31707142D01*
X133957142Y-31802380D01*
X133909523Y-31850000D01*
X135692857Y-34285714D02*
X135692857Y-35285714D01*
X135692857Y-34333333D02*
X135788095Y-34285714D01*
X135978571Y-34285714D01*
X136073809Y-34333333D01*
X136121428Y-34380952D01*
X136169047Y-34476190D01*
X136169047Y-34761904D01*
X136121428Y-34857142D01*
X136073809Y-34904761D01*
X135978571Y-34952380D01*
X135788095Y-34952380D01*
X135692857Y-34904761D01*
X137026190Y-34952380D02*
X137026190Y-34428571D01*
X136978571Y-34333333D01*
X136883333Y-34285714D01*
X136692857Y-34285714D01*
X136597619Y-34333333D01*
X137026190Y-34904761D02*
X136930952Y-34952380D01*
X136692857Y-34952380D01*
X136597619Y-34904761D01*
X136550000Y-34809523D01*
X136550000Y-34714285D01*
X136597619Y-34619047D01*
X136692857Y-34571428D01*
X136930952Y-34571428D01*
X137026190Y-34523809D01*
X137502380Y-34285714D02*
X137502380Y-35285714D01*
X137502380Y-34333333D02*
X137597619Y-34285714D01*
X137788095Y-34285714D01*
X137883333Y-34333333D01*
X137930952Y-34380952D01*
X137978571Y-34476190D01*
X137978571Y-34761904D01*
X137930952Y-34857142D01*
X137883333Y-34904761D01*
X137788095Y-34952380D01*
X137597619Y-34952380D01*
X137502380Y-34904761D01*
X138788095Y-34904761D02*
X138692857Y-34952380D01*
X138502380Y-34952380D01*
X138407142Y-34904761D01*
X138359523Y-34809523D01*
X138359523Y-34428571D01*
X138407142Y-34333333D01*
X138502380Y-34285714D01*
X138692857Y-34285714D01*
X138788095Y-34333333D01*
X138835714Y-34428571D01*
X138835714Y-34523809D01*
X138359523Y-34619047D01*
X139264285Y-34952380D02*
X139264285Y-34285714D01*
X139264285Y-34476190D02*
X139311904Y-34380952D01*
X139359523Y-34333333D01*
X139454761Y-34285714D01*
X139550000Y-34285714D01*
X136071428Y-41204761D02*
X135976190Y-41252380D01*
X135785714Y-41252380D01*
X135690476Y-41204761D01*
X135642857Y-41109523D01*
X135642857Y-40728571D01*
X135690476Y-40633333D01*
X135785714Y-40585714D01*
X135976190Y-40585714D01*
X136071428Y-40633333D01*
X136119047Y-40728571D01*
X136119047Y-40823809D01*
X135642857Y-40919047D01*
X136547619Y-41252380D02*
X136547619Y-40585714D01*
X136547619Y-40776190D02*
X136595238Y-40680952D01*
X136642857Y-40633333D01*
X136738095Y-40585714D01*
X136833333Y-40585714D01*
X137166666Y-41252380D02*
X137166666Y-40585714D01*
X137166666Y-40776190D02*
X137214285Y-40680952D01*
X137261904Y-40633333D01*
X137357142Y-40585714D01*
X137452380Y-40585714D01*
X137928571Y-41252380D02*
X137833333Y-41204761D01*
X137785714Y-41157142D01*
X137738095Y-41061904D01*
X137738095Y-40776190D01*
X137785714Y-40680952D01*
X137833333Y-40633333D01*
X137928571Y-40585714D01*
X138071428Y-40585714D01*
X138166666Y-40633333D01*
X138214285Y-40680952D01*
X138261904Y-40776190D01*
X138261904Y-41061904D01*
X138214285Y-41157142D01*
X138166666Y-41204761D01*
X138071428Y-41252380D01*
X137928571Y-41252380D01*
X138690476Y-41252380D02*
X138690476Y-40585714D01*
X138690476Y-40776190D02*
X138738095Y-40680952D01*
X138785714Y-40633333D01*
X138880952Y-40585714D01*
X138976190Y-40585714D01*
X139309523Y-41157142D02*
X139357142Y-41204761D01*
X139309523Y-41252380D01*
X139261904Y-41204761D01*
X139309523Y-41157142D01*
X139309523Y-41252380D01*
X139309523Y-40633333D02*
X139357142Y-40680952D01*
X139309523Y-40728571D01*
X139261904Y-40680952D01*
X139309523Y-40633333D01*
X139309523Y-40728571D01*
X137421428Y-38657142D02*
X137469047Y-38704761D01*
X137421428Y-38752380D01*
X137373809Y-38704761D01*
X137421428Y-38657142D01*
X137421428Y-38752380D01*
X137897619Y-38752380D02*
X137897619Y-38085714D01*
X137897619Y-37752380D02*
X137850000Y-37800000D01*
X137897619Y-37847619D01*
X137945238Y-37800000D01*
X137897619Y-37752380D01*
X137897619Y-37847619D01*
X138373809Y-38085714D02*
X138373809Y-38752380D01*
X138373809Y-38180952D02*
X138421428Y-38133333D01*
X138516666Y-38085714D01*
X138659523Y-38085714D01*
X138754761Y-38133333D01*
X138802380Y-38228571D01*
X138802380Y-38752380D01*
X139278571Y-38657142D02*
X139326190Y-38704761D01*
X139278571Y-38752380D01*
X139230952Y-38704761D01*
X139278571Y-38657142D01*
X139278571Y-38752380D01*
X139278571Y-38133333D02*
X139326190Y-38180952D01*
X139278571Y-38228571D01*
X139230952Y-38180952D01*
X139278571Y-38133333D01*
X139278571Y-38228571D01*
X136571428Y-36107142D02*
X136619047Y-36154761D01*
X136571428Y-36202380D01*
X136523809Y-36154761D01*
X136571428Y-36107142D01*
X136571428Y-36202380D01*
X137190476Y-36202380D02*
X137095238Y-36154761D01*
X137047619Y-36107142D01*
X137000000Y-36011904D01*
X137000000Y-35726190D01*
X137047619Y-35630952D01*
X137095238Y-35583333D01*
X137190476Y-35535714D01*
X137333333Y-35535714D01*
X137428571Y-35583333D01*
X137476190Y-35630952D01*
X137523809Y-35726190D01*
X137523809Y-36011904D01*
X137476190Y-36107142D01*
X137428571Y-36154761D01*
X137333333Y-36202380D01*
X137190476Y-36202380D01*
X138380952Y-35535714D02*
X138380952Y-36202380D01*
X137952380Y-35535714D02*
X137952380Y-36059523D01*
X138000000Y-36154761D01*
X138095238Y-36202380D01*
X138238095Y-36202380D01*
X138333333Y-36154761D01*
X138380952Y-36107142D01*
X138714285Y-35535714D02*
X139095238Y-35535714D01*
X138857142Y-35202380D02*
X138857142Y-36059523D01*
X138904761Y-36154761D01*
X139000000Y-36202380D01*
X139095238Y-36202380D01*
X139428571Y-36107142D02*
X139476190Y-36154761D01*
X139428571Y-36202380D01*
X139380952Y-36154761D01*
X139428571Y-36107142D01*
X139428571Y-36202380D01*
X139428571Y-35583333D02*
X139476190Y-35630952D01*
X139428571Y-35678571D01*
X139380952Y-35630952D01*
X139428571Y-35583333D01*
X139428571Y-35678571D01*
X137242857Y-33602380D02*
X137242857Y-33078571D01*
X137195238Y-32983333D01*
X137100000Y-32935714D01*
X136909523Y-32935714D01*
X136814285Y-32983333D01*
X137242857Y-33554761D02*
X137147619Y-33602380D01*
X136909523Y-33602380D01*
X136814285Y-33554761D01*
X136766666Y-33459523D01*
X136766666Y-33364285D01*
X136814285Y-33269047D01*
X136909523Y-33221428D01*
X137147619Y-33221428D01*
X137242857Y-33173809D01*
X138147619Y-33554761D02*
X138052380Y-33602380D01*
X137861904Y-33602380D01*
X137766666Y-33554761D01*
X137719047Y-33507142D01*
X137671428Y-33411904D01*
X137671428Y-33126190D01*
X137719047Y-33030952D01*
X137766666Y-32983333D01*
X137861904Y-32935714D01*
X138052380Y-32935714D01*
X138147619Y-32983333D01*
X138576190Y-33602380D02*
X138576190Y-32602380D01*
X138671428Y-33221428D02*
X138957142Y-33602380D01*
X138957142Y-32935714D02*
X138576190Y-33316666D01*
X139385714Y-33507142D02*
X139433333Y-33554761D01*
X139385714Y-33602380D01*
X139338095Y-33554761D01*
X139385714Y-33507142D01*
X139385714Y-33602380D01*
X139385714Y-32983333D02*
X139433333Y-33030952D01*
X139385714Y-33078571D01*
X139338095Y-33030952D01*
X139385714Y-32983333D01*
X139385714Y-33078571D01*
X135909523Y-31052380D02*
X135909523Y-30052380D01*
X135909523Y-30433333D02*
X136004761Y-30385714D01*
X136195238Y-30385714D01*
X136290476Y-30433333D01*
X136338095Y-30480952D01*
X136385714Y-30576190D01*
X136385714Y-30861904D01*
X136338095Y-30957142D01*
X136290476Y-31004761D01*
X136195238Y-31052380D01*
X136004761Y-31052380D01*
X135909523Y-31004761D01*
X137242857Y-30385714D02*
X137242857Y-31052380D01*
X136814285Y-30385714D02*
X136814285Y-30909523D01*
X136861904Y-31004761D01*
X136957142Y-31052380D01*
X137100000Y-31052380D01*
X137195238Y-31004761D01*
X137242857Y-30957142D01*
X137671428Y-31004761D02*
X137766666Y-31052380D01*
X137957142Y-31052380D01*
X138052380Y-31004761D01*
X138100000Y-30909523D01*
X138100000Y-30861904D01*
X138052380Y-30766666D01*
X137957142Y-30719047D01*
X137814285Y-30719047D01*
X137719047Y-30671428D01*
X137671428Y-30576190D01*
X137671428Y-30528571D01*
X137719047Y-30433333D01*
X137814285Y-30385714D01*
X137957142Y-30385714D01*
X138052380Y-30433333D01*
X138433333Y-30385714D02*
X138671428Y-31052380D01*
X138909523Y-30385714D02*
X138671428Y-31052380D01*
X138576190Y-31290476D01*
X138528571Y-31338095D01*
X138433333Y-31385714D01*
X139290476Y-30957142D02*
X139338095Y-31004761D01*
X139290476Y-31052380D01*
X139242857Y-31004761D01*
X139290476Y-30957142D01*
X139290476Y-31052380D01*
X139290476Y-30433333D02*
X139338095Y-30480952D01*
X139290476Y-30528571D01*
X139242857Y-30480952D01*
X139290476Y-30433333D01*
X139290476Y-30528571D01*
X134964285Y-43704761D02*
X135059523Y-43752380D01*
X135250000Y-43752380D01*
X135345238Y-43704761D01*
X135392857Y-43609523D01*
X135392857Y-43561904D01*
X135345238Y-43466666D01*
X135250000Y-43419047D01*
X135107142Y-43419047D01*
X135011904Y-43371428D01*
X134964285Y-43276190D01*
X134964285Y-43228571D01*
X135011904Y-43133333D01*
X135107142Y-43085714D01*
X135250000Y-43085714D01*
X135345238Y-43133333D01*
X136202380Y-43704761D02*
X136107142Y-43752380D01*
X135916666Y-43752380D01*
X135821428Y-43704761D01*
X135773809Y-43609523D01*
X135773809Y-43228571D01*
X135821428Y-43133333D01*
X135916666Y-43085714D01*
X136107142Y-43085714D01*
X136202380Y-43133333D01*
X136250000Y-43228571D01*
X136250000Y-43323809D01*
X135773809Y-43419047D01*
X136821428Y-43752380D02*
X136726190Y-43704761D01*
X136678571Y-43609523D01*
X136678571Y-42752380D01*
X137583333Y-43704761D02*
X137488095Y-43752380D01*
X137297619Y-43752380D01*
X137202380Y-43704761D01*
X137154761Y-43609523D01*
X137154761Y-43228571D01*
X137202380Y-43133333D01*
X137297619Y-43085714D01*
X137488095Y-43085714D01*
X137583333Y-43133333D01*
X137630952Y-43228571D01*
X137630952Y-43323809D01*
X137154761Y-43419047D01*
X138488095Y-43704761D02*
X138392857Y-43752380D01*
X138202380Y-43752380D01*
X138107142Y-43704761D01*
X138059523Y-43657142D01*
X138011904Y-43561904D01*
X138011904Y-43276190D01*
X138059523Y-43180952D01*
X138107142Y-43133333D01*
X138202380Y-43085714D01*
X138392857Y-43085714D01*
X138488095Y-43133333D01*
X138773809Y-43085714D02*
X139154761Y-43085714D01*
X138916666Y-42752380D02*
X138916666Y-43609523D01*
X138964285Y-43704761D01*
X139059523Y-43752380D01*
X139154761Y-43752380D01*
X139488095Y-43657142D02*
X139535714Y-43704761D01*
X139488095Y-43752380D01*
X139440476Y-43704761D01*
X139488095Y-43657142D01*
X139488095Y-43752380D01*
X139488095Y-43133333D02*
X139535714Y-43180952D01*
X139488095Y-43228571D01*
X139440476Y-43180952D01*
X139488095Y-43133333D01*
X139488095Y-43228571D01*
X137500000Y-46302380D02*
X137500000Y-45635714D01*
X137500000Y-45826190D02*
X137547619Y-45730952D01*
X137595238Y-45683333D01*
X137690476Y-45635714D01*
X137785714Y-45635714D01*
X138071428Y-46254761D02*
X138166666Y-46302380D01*
X138357142Y-46302380D01*
X138452380Y-46254761D01*
X138500000Y-46159523D01*
X138500000Y-46111904D01*
X138452380Y-46016666D01*
X138357142Y-45969047D01*
X138214285Y-45969047D01*
X138119047Y-45921428D01*
X138071428Y-45826190D01*
X138071428Y-45778571D01*
X138119047Y-45683333D01*
X138214285Y-45635714D01*
X138357142Y-45635714D01*
X138452380Y-45683333D01*
X138785714Y-45635714D02*
X139166666Y-45635714D01*
X138928571Y-45302380D02*
X138928571Y-46159523D01*
X138976190Y-46254761D01*
X139071428Y-46302380D01*
X139166666Y-46302380D01*
X139500000Y-46207142D02*
X139547619Y-46254761D01*
X139500000Y-46302380D01*
X139452380Y-46254761D01*
X139500000Y-46207142D01*
X139500000Y-46302380D01*
X139500000Y-45683333D02*
X139547619Y-45730952D01*
X139500000Y-45778571D01*
X139452380Y-45730952D01*
X139500000Y-45683333D01*
X139500000Y-45778571D01*
X138292857Y-48702380D02*
X137816666Y-48702380D01*
X137816666Y-47702380D01*
X138959523Y-48178571D02*
X138626190Y-48178571D01*
X138626190Y-48702380D02*
X138626190Y-47702380D01*
X139102380Y-47702380D01*
X139483333Y-48607142D02*
X139530952Y-48654761D01*
X139483333Y-48702380D01*
X139435714Y-48654761D01*
X139483333Y-48607142D01*
X139483333Y-48702380D01*
X139483333Y-48083333D02*
X139530952Y-48130952D01*
X139483333Y-48178571D01*
X139435714Y-48130952D01*
X139483333Y-48083333D01*
X139483333Y-48178571D01*
X134769047Y-51354761D02*
X134864285Y-51402380D01*
X135054761Y-51402380D01*
X135150000Y-51354761D01*
X135197619Y-51259523D01*
X135197619Y-51211904D01*
X135150000Y-51116666D01*
X135054761Y-51069047D01*
X134911904Y-51069047D01*
X134816666Y-51021428D01*
X134769047Y-50926190D01*
X134769047Y-50878571D01*
X134816666Y-50783333D01*
X134911904Y-50735714D01*
X135054761Y-50735714D01*
X135150000Y-50783333D01*
X135483333Y-50735714D02*
X135864285Y-50735714D01*
X135626190Y-50402380D02*
X135626190Y-51259523D01*
X135673809Y-51354761D01*
X135769047Y-51402380D01*
X135864285Y-51402380D01*
X136197619Y-51402380D02*
X136197619Y-50735714D01*
X136197619Y-50926190D02*
X136245238Y-50830952D01*
X136292857Y-50783333D01*
X136388095Y-50735714D01*
X136483333Y-50735714D01*
X136959523Y-51402380D02*
X136864285Y-51354761D01*
X136816666Y-51307142D01*
X136769047Y-51211904D01*
X136769047Y-50926190D01*
X136816666Y-50830952D01*
X136864285Y-50783333D01*
X136959523Y-50735714D01*
X137102380Y-50735714D01*
X137197619Y-50783333D01*
X137245238Y-50830952D01*
X137292857Y-50926190D01*
X137292857Y-51211904D01*
X137245238Y-51307142D01*
X137197619Y-51354761D01*
X137102380Y-51402380D01*
X136959523Y-51402380D01*
X137721428Y-51402380D02*
X137721428Y-50402380D01*
X137721428Y-50783333D02*
X137816666Y-50735714D01*
X138007142Y-50735714D01*
X138102380Y-50783333D01*
X138150000Y-50830952D01*
X138197619Y-50926190D01*
X138197619Y-51211904D01*
X138150000Y-51307142D01*
X138102380Y-51354761D01*
X138007142Y-51402380D01*
X137816666Y-51402380D01*
X137721428Y-51354761D01*
X139007142Y-51354761D02*
X138911904Y-51402380D01*
X138721428Y-51402380D01*
X138626190Y-51354761D01*
X138578571Y-51259523D01*
X138578571Y-50878571D01*
X138626190Y-50783333D01*
X138721428Y-50735714D01*
X138911904Y-50735714D01*
X139007142Y-50783333D01*
X139054761Y-50878571D01*
X139054761Y-50973809D01*
X138578571Y-51069047D01*
X139483333Y-51307142D02*
X139530952Y-51354761D01*
X139483333Y-51402380D01*
X139435714Y-51354761D01*
X139483333Y-51307142D01*
X139483333Y-51402380D01*
X139483333Y-50783333D02*
X139530952Y-50830952D01*
X139483333Y-50878571D01*
X139435714Y-50830952D01*
X139483333Y-50783333D01*
X139483333Y-50878571D01*
D10*
X141900000Y-42000000D02*
X133700000Y-42000000D01*
D11*
X140583333Y-51407142D02*
X140535714Y-51454761D01*
X140392857Y-51502380D01*
X140297619Y-51502380D01*
X140154761Y-51454761D01*
X140059523Y-51359523D01*
X140011904Y-51264285D01*
X139964285Y-51073809D01*
X139964285Y-50930952D01*
X140011904Y-50740476D01*
X140059523Y-50645238D01*
X140154761Y-50550000D01*
X140297619Y-50502380D01*
X140392857Y-50502380D01*
X140535714Y-50550000D01*
X140583333Y-50597619D01*
X141202380Y-50502380D02*
X141297619Y-50502380D01*
X141392857Y-50550000D01*
X141440476Y-50597619D01*
X141488095Y-50692857D01*
X141535714Y-50883333D01*
X141535714Y-51121428D01*
X141488095Y-51311904D01*
X141440476Y-51407142D01*
X141392857Y-51454761D01*
X141297619Y-51502380D01*
X141202380Y-51502380D01*
X141107142Y-51454761D01*
X141059523Y-51407142D01*
X141011904Y-51311904D01*
X140964285Y-51121428D01*
X140964285Y-50883333D01*
X141011904Y-50692857D01*
X141059523Y-50597619D01*
X141107142Y-50550000D01*
X141202380Y-50502380D01*
X140633333Y-48657142D02*
X140585714Y-48704761D01*
X140442857Y-48752380D01*
X140347619Y-48752380D01*
X140204761Y-48704761D01*
X140109523Y-48609523D01*
X140061904Y-48514285D01*
X140014285Y-48323809D01*
X140014285Y-48180952D01*
X140061904Y-47990476D01*
X140109523Y-47895238D01*
X140204761Y-47800000D01*
X140347619Y-47752380D01*
X140442857Y-47752380D01*
X140585714Y-47800000D01*
X140633333Y-47847619D01*
X141585714Y-48752380D02*
X141014285Y-48752380D01*
X141300000Y-48752380D02*
X141300000Y-47752380D01*
X141204761Y-47895238D01*
X141109523Y-47990476D01*
X141014285Y-48038095D01*
X140533333Y-46257142D02*
X140485714Y-46304761D01*
X140342857Y-46352380D01*
X140247619Y-46352380D01*
X140104761Y-46304761D01*
X140009523Y-46209523D01*
X139961904Y-46114285D01*
X139914285Y-45923809D01*
X139914285Y-45780952D01*
X139961904Y-45590476D01*
X140009523Y-45495238D01*
X140104761Y-45400000D01*
X140247619Y-45352380D01*
X140342857Y-45352380D01*
X140485714Y-45400000D01*
X140533333Y-45447619D01*
X140914285Y-45447619D02*
X140961904Y-45400000D01*
X141057142Y-45352380D01*
X141295238Y-45352380D01*
X141390476Y-45400000D01*
X141438095Y-45447619D01*
X141485714Y-45542857D01*
X141485714Y-45638095D01*
X141438095Y-45780952D01*
X140866666Y-46352380D01*
X141485714Y-46352380D01*
X140533333Y-43707142D02*
X140485714Y-43754761D01*
X140342857Y-43802380D01*
X140247619Y-43802380D01*
X140104761Y-43754761D01*
X140009523Y-43659523D01*
X139961904Y-43564285D01*
X139914285Y-43373809D01*
X139914285Y-43230952D01*
X139961904Y-43040476D01*
X140009523Y-42945238D01*
X140104761Y-42850000D01*
X140247619Y-42802380D01*
X140342857Y-42802380D01*
X140485714Y-42850000D01*
X140533333Y-42897619D01*
X140866666Y-42802380D02*
X141485714Y-42802380D01*
X141152380Y-43183333D01*
X141295238Y-43183333D01*
X141390476Y-43230952D01*
X141438095Y-43278571D01*
X141485714Y-43373809D01*
X141485714Y-43611904D01*
X141438095Y-43707142D01*
X141390476Y-43754761D01*
X141295238Y-43802380D01*
X141009523Y-43802380D01*
X140914285Y-43754761D01*
X140866666Y-43707142D01*
X139838095Y-31054761D02*
X139980952Y-31102380D01*
X140219047Y-31102380D01*
X140314285Y-31054761D01*
X140361904Y-31007142D01*
X140409523Y-30911904D01*
X140409523Y-30816666D01*
X140361904Y-30721428D01*
X140314285Y-30673809D01*
X140219047Y-30626190D01*
X140028571Y-30578571D01*
X139933333Y-30530952D01*
X139885714Y-30483333D01*
X139838095Y-30388095D01*
X139838095Y-30292857D01*
X139885714Y-30197619D01*
X139933333Y-30150000D01*
X140028571Y-30102380D01*
X140266666Y-30102380D01*
X140409523Y-30150000D01*
X140742857Y-30102380D02*
X141409523Y-30102380D01*
X140980952Y-31102380D01*
X139838095Y-33604761D02*
X139980952Y-33652380D01*
X140219047Y-33652380D01*
X140314285Y-33604761D01*
X140361904Y-33557142D01*
X140409523Y-33461904D01*
X140409523Y-33366666D01*
X140361904Y-33271428D01*
X140314285Y-33223809D01*
X140219047Y-33176190D01*
X140028571Y-33128571D01*
X139933333Y-33080952D01*
X139885714Y-33033333D01*
X139838095Y-32938095D01*
X139838095Y-32842857D01*
X139885714Y-32747619D01*
X139933333Y-32700000D01*
X140028571Y-32652380D01*
X140266666Y-32652380D01*
X140409523Y-32700000D01*
X141266666Y-32652380D02*
X141076190Y-32652380D01*
X140980952Y-32700000D01*
X140933333Y-32747619D01*
X140838095Y-32890476D01*
X140790476Y-33080952D01*
X140790476Y-33461904D01*
X140838095Y-33557142D01*
X140885714Y-33604761D01*
X140980952Y-33652380D01*
X141171428Y-33652380D01*
X141266666Y-33604761D01*
X141314285Y-33557142D01*
X141361904Y-33461904D01*
X141361904Y-33223809D01*
X141314285Y-33128571D01*
X141266666Y-33080952D01*
X141171428Y-33033333D01*
X140980952Y-33033333D01*
X140885714Y-33080952D01*
X140838095Y-33128571D01*
X140790476Y-33223809D01*
X139838095Y-36204761D02*
X139980952Y-36252380D01*
X140219047Y-36252380D01*
X140314285Y-36204761D01*
X140361904Y-36157142D01*
X140409523Y-36061904D01*
X140409523Y-35966666D01*
X140361904Y-35871428D01*
X140314285Y-35823809D01*
X140219047Y-35776190D01*
X140028571Y-35728571D01*
X139933333Y-35680952D01*
X139885714Y-35633333D01*
X139838095Y-35538095D01*
X139838095Y-35442857D01*
X139885714Y-35347619D01*
X139933333Y-35300000D01*
X140028571Y-35252380D01*
X140266666Y-35252380D01*
X140409523Y-35300000D01*
X141314285Y-35252380D02*
X140838095Y-35252380D01*
X140790476Y-35728571D01*
X140838095Y-35680952D01*
X140933333Y-35633333D01*
X141171428Y-35633333D01*
X141266666Y-35680952D01*
X141314285Y-35728571D01*
X141361904Y-35823809D01*
X141361904Y-36061904D01*
X141314285Y-36157142D01*
X141266666Y-36204761D01*
X141171428Y-36252380D01*
X140933333Y-36252380D01*
X140838095Y-36204761D01*
X140790476Y-36157142D01*
X139788095Y-38704761D02*
X139930952Y-38752380D01*
X140169047Y-38752380D01*
X140264285Y-38704761D01*
X140311904Y-38657142D01*
X140359523Y-38561904D01*
X140359523Y-38466666D01*
X140311904Y-38371428D01*
X140264285Y-38323809D01*
X140169047Y-38276190D01*
X139978571Y-38228571D01*
X139883333Y-38180952D01*
X139835714Y-38133333D01*
X139788095Y-38038095D01*
X139788095Y-37942857D01*
X139835714Y-37847619D01*
X139883333Y-37800000D01*
X139978571Y-37752380D01*
X140216666Y-37752380D01*
X140359523Y-37800000D01*
X141216666Y-38085714D02*
X141216666Y-38752380D01*
X140978571Y-37704761D02*
X140740476Y-38419047D01*
X141359523Y-38419047D01*
X139838095Y-41254761D02*
X139980952Y-41302380D01*
X140219047Y-41302380D01*
X140314285Y-41254761D01*
X140361904Y-41207142D01*
X140409523Y-41111904D01*
X140409523Y-41016666D01*
X140361904Y-40921428D01*
X140314285Y-40873809D01*
X140219047Y-40826190D01*
X140028571Y-40778571D01*
X139933333Y-40730952D01*
X139885714Y-40683333D01*
X139838095Y-40588095D01*
X139838095Y-40492857D01*
X139885714Y-40397619D01*
X139933333Y-40350000D01*
X140028571Y-40302380D01*
X140266666Y-40302380D01*
X140409523Y-40350000D01*
X140742857Y-40302380D02*
X141361904Y-40302380D01*
X141028571Y-40683333D01*
X141171428Y-40683333D01*
X141266666Y-40730952D01*
X141314285Y-40778571D01*
X141361904Y-40873809D01*
X141361904Y-41111904D01*
X141314285Y-41207142D01*
X141266666Y-41254761D01*
X141171428Y-41302380D01*
X140885714Y-41302380D01*
X140790476Y-41254761D01*
X140742857Y-41207142D01*
X129811904Y-48852380D02*
X129811904Y-47852380D01*
X130050000Y-47852380D01*
X130192857Y-47900000D01*
X130288095Y-47995238D01*
X130335714Y-48090476D01*
X130383333Y-48280952D01*
X130383333Y-48423809D01*
X130335714Y-48614285D01*
X130288095Y-48709523D01*
X130192857Y-48804761D01*
X130050000Y-48852380D01*
X129811904Y-48852380D01*
X131002380Y-47852380D02*
X131097619Y-47852380D01*
X131192857Y-47900000D01*
X131240476Y-47947619D01*
X131288095Y-48042857D01*
X131335714Y-48233333D01*
X131335714Y-48471428D01*
X131288095Y-48661904D01*
X131240476Y-48757142D01*
X131192857Y-48804761D01*
X131097619Y-48852380D01*
X131002380Y-48852380D01*
X130907142Y-48804761D01*
X130859523Y-48757142D01*
X130811904Y-48661904D01*
X130764285Y-48471428D01*
X130764285Y-48233333D01*
X130811904Y-48042857D01*
X130859523Y-47947619D01*
X130907142Y-47900000D01*
X131002380Y-47852380D01*
X129861904Y-46302380D02*
X129861904Y-45302380D01*
X130100000Y-45302380D01*
X130242857Y-45350000D01*
X130338095Y-45445238D01*
X130385714Y-45540476D01*
X130433333Y-45730952D01*
X130433333Y-45873809D01*
X130385714Y-46064285D01*
X130338095Y-46159523D01*
X130242857Y-46254761D01*
X130100000Y-46302380D01*
X129861904Y-46302380D01*
X131385714Y-46302380D02*
X130814285Y-46302380D01*
X131100000Y-46302380D02*
X131100000Y-45302380D01*
X131004761Y-45445238D01*
X130909523Y-45540476D01*
X130814285Y-45588095D01*
X129811904Y-43752380D02*
X129811904Y-42752380D01*
X130050000Y-42752380D01*
X130192857Y-42800000D01*
X130288095Y-42895238D01*
X130335714Y-42990476D01*
X130383333Y-43180952D01*
X130383333Y-43323809D01*
X130335714Y-43514285D01*
X130288095Y-43609523D01*
X130192857Y-43704761D01*
X130050000Y-43752380D01*
X129811904Y-43752380D01*
X130764285Y-42847619D02*
X130811904Y-42800000D01*
X130907142Y-42752380D01*
X131145238Y-42752380D01*
X131240476Y-42800000D01*
X131288095Y-42847619D01*
X131335714Y-42942857D01*
X131335714Y-43038095D01*
X131288095Y-43180952D01*
X130716666Y-43752380D01*
X131335714Y-43752380D01*
X129861904Y-41202380D02*
X129861904Y-40202380D01*
X130100000Y-40202380D01*
X130242857Y-40250000D01*
X130338095Y-40345238D01*
X130385714Y-40440476D01*
X130433333Y-40630952D01*
X130433333Y-40773809D01*
X130385714Y-40964285D01*
X130338095Y-41059523D01*
X130242857Y-41154761D01*
X130100000Y-41202380D01*
X129861904Y-41202380D01*
X130766666Y-40202380D02*
X131385714Y-40202380D01*
X131052380Y-40583333D01*
X131195238Y-40583333D01*
X131290476Y-40630952D01*
X131338095Y-40678571D01*
X131385714Y-40773809D01*
X131385714Y-41011904D01*
X131338095Y-41107142D01*
X131290476Y-41154761D01*
X131195238Y-41202380D01*
X130909523Y-41202380D01*
X130814285Y-41154761D01*
X130766666Y-41107142D01*
X129861904Y-38702380D02*
X129861904Y-37702380D01*
X130100000Y-37702380D01*
X130242857Y-37750000D01*
X130338095Y-37845238D01*
X130385714Y-37940476D01*
X130433333Y-38130952D01*
X130433333Y-38273809D01*
X130385714Y-38464285D01*
X130338095Y-38559523D01*
X130242857Y-38654761D01*
X130100000Y-38702380D01*
X129861904Y-38702380D01*
X131290476Y-38035714D02*
X131290476Y-38702380D01*
X131052380Y-37654761D02*
X130814285Y-38369047D01*
X131433333Y-38369047D01*
X129861904Y-36102380D02*
X129861904Y-35102380D01*
X130100000Y-35102380D01*
X130242857Y-35150000D01*
X130338095Y-35245238D01*
X130385714Y-35340476D01*
X130433333Y-35530952D01*
X130433333Y-35673809D01*
X130385714Y-35864285D01*
X130338095Y-35959523D01*
X130242857Y-36054761D01*
X130100000Y-36102380D01*
X129861904Y-36102380D01*
X131338095Y-35102380D02*
X130861904Y-35102380D01*
X130814285Y-35578571D01*
X130861904Y-35530952D01*
X130957142Y-35483333D01*
X131195238Y-35483333D01*
X131290476Y-35530952D01*
X131338095Y-35578571D01*
X131385714Y-35673809D01*
X131385714Y-35911904D01*
X131338095Y-36007142D01*
X131290476Y-36054761D01*
X131195238Y-36102380D01*
X130957142Y-36102380D01*
X130861904Y-36054761D01*
X130814285Y-36007142D01*
X129861904Y-33552380D02*
X129861904Y-32552380D01*
X130100000Y-32552380D01*
X130242857Y-32600000D01*
X130338095Y-32695238D01*
X130385714Y-32790476D01*
X130433333Y-32980952D01*
X130433333Y-33123809D01*
X130385714Y-33314285D01*
X130338095Y-33409523D01*
X130242857Y-33504761D01*
X130100000Y-33552380D01*
X129861904Y-33552380D01*
X131290476Y-32552380D02*
X131100000Y-32552380D01*
X131004761Y-32600000D01*
X130957142Y-32647619D01*
X130861904Y-32790476D01*
X130814285Y-32980952D01*
X130814285Y-33361904D01*
X130861904Y-33457142D01*
X130909523Y-33504761D01*
X131004761Y-33552380D01*
X131195238Y-33552380D01*
X131290476Y-33504761D01*
X131338095Y-33457142D01*
X131385714Y-33361904D01*
X131385714Y-33123809D01*
X131338095Y-33028571D01*
X131290476Y-32980952D01*
X131195238Y-32933333D01*
X131004761Y-32933333D01*
X130909523Y-32980952D01*
X130861904Y-33028571D01*
X130814285Y-33123809D01*
X129811904Y-31052380D02*
X129811904Y-30052380D01*
X130050000Y-30052380D01*
X130192857Y-30100000D01*
X130288095Y-30195238D01*
X130335714Y-30290476D01*
X130383333Y-30480952D01*
X130383333Y-30623809D01*
X130335714Y-30814285D01*
X130288095Y-30909523D01*
X130192857Y-31004761D01*
X130050000Y-31052380D01*
X129811904Y-31052380D01*
X130716666Y-30052380D02*
X131383333Y-30052380D01*
X130954761Y-31052380D01*
D10*
X130257142Y-27400000D02*
X130114285Y-27328571D01*
X129900000Y-27328571D01*
X129685714Y-27400000D01*
X129542857Y-27542857D01*
X129471428Y-27685714D01*
X129400000Y-27971428D01*
X129400000Y-28185714D01*
X129471428Y-28471428D01*
X129542857Y-28614285D01*
X129685714Y-28757142D01*
X129900000Y-28828571D01*
X130042857Y-28828571D01*
X130257142Y-28757142D01*
X130328571Y-28685714D01*
X130328571Y-28185714D01*
X130042857Y-28185714D01*
X130971428Y-28828571D02*
X130971428Y-27328571D01*
X131828571Y-28828571D01*
X131828571Y-27328571D01*
X132542857Y-28828571D02*
X132542857Y-27328571D01*
X132900000Y-27328571D01*
X133114285Y-27400000D01*
X133257142Y-27542857D01*
X133328571Y-27685714D01*
X133400000Y-27971428D01*
X133400000Y-28185714D01*
X133328571Y-28471428D01*
X133257142Y-28614285D01*
X133114285Y-28757142D01*
X132900000Y-28828571D01*
X132542857Y-28828571D01*
X137942857Y-27328571D02*
X138871428Y-27328571D01*
X138371428Y-27900000D01*
X138585714Y-27900000D01*
X138728571Y-27971428D01*
X138800000Y-28042857D01*
X138871428Y-28185714D01*
X138871428Y-28542857D01*
X138800000Y-28685714D01*
X138728571Y-28757142D01*
X138585714Y-28828571D01*
X138157142Y-28828571D01*
X138014285Y-28757142D01*
X137942857Y-28685714D01*
X139300000Y-27328571D02*
X139800000Y-28828571D01*
X140300000Y-27328571D01*
X140657142Y-27328571D02*
X141585714Y-27328571D01*
X141085714Y-27900000D01*
X141300000Y-27900000D01*
X141442857Y-27971428D01*
X141514285Y-28042857D01*
X141585714Y-28185714D01*
X141585714Y-28542857D01*
X141514285Y-28685714D01*
X141442857Y-28757142D01*
X141300000Y-28828571D01*
X140871428Y-28828571D01*
X140728571Y-28757142D01*
X140657142Y-28685714D01*
X130664285Y-50228571D02*
X129950000Y-50228571D01*
X129878571Y-50942857D01*
X129950000Y-50871428D01*
X130092857Y-50800000D01*
X130450000Y-50800000D01*
X130592857Y-50871428D01*
X130664285Y-50942857D01*
X130735714Y-51085714D01*
X130735714Y-51442857D01*
X130664285Y-51585714D01*
X130592857Y-51657142D01*
X130450000Y-51728571D01*
X130092857Y-51728571D01*
X129950000Y-51657142D01*
X129878571Y-51585714D01*
X131164285Y-50228571D02*
X131664285Y-51728571D01*
X132164285Y-50228571D01*
D11*
X146338095Y-59954761D02*
X146433333Y-60002380D01*
X146623809Y-60002380D01*
X146719047Y-59954761D01*
X146766666Y-59859523D01*
X146766666Y-59811904D01*
X146719047Y-59716666D01*
X146623809Y-59669047D01*
X146480952Y-59669047D01*
X146385714Y-59621428D01*
X146338095Y-59526190D01*
X146338095Y-59478571D01*
X146385714Y-59383333D01*
X146480952Y-59335714D01*
X146623809Y-59335714D01*
X146719047Y-59383333D01*
X147195238Y-60002380D02*
X147195238Y-59002380D01*
X147623809Y-60002380D02*
X147623809Y-59478571D01*
X147576190Y-59383333D01*
X147480952Y-59335714D01*
X147338095Y-59335714D01*
X147242857Y-59383333D01*
X147195238Y-59430952D01*
X148242857Y-60002380D02*
X148147619Y-59954761D01*
X148100000Y-59907142D01*
X148052380Y-59811904D01*
X148052380Y-59526190D01*
X148100000Y-59430952D01*
X148147619Y-59383333D01*
X148242857Y-59335714D01*
X148385714Y-59335714D01*
X148480952Y-59383333D01*
X148528571Y-59430952D01*
X148576190Y-59526190D01*
X148576190Y-59811904D01*
X148528571Y-59907142D01*
X148480952Y-59954761D01*
X148385714Y-60002380D01*
X148242857Y-60002380D01*
X149004761Y-59335714D02*
X149004761Y-60335714D01*
X149004761Y-59383333D02*
X149100000Y-59335714D01*
X149290476Y-59335714D01*
X149385714Y-59383333D01*
X149433333Y-59430952D01*
X149480952Y-59526190D01*
X149480952Y-59811904D01*
X149433333Y-59907142D01*
X149385714Y-59954761D01*
X149290476Y-60002380D01*
X149100000Y-60002380D01*
X149004761Y-59954761D01*
X149909523Y-59907142D02*
X149957142Y-59954761D01*
X149909523Y-60002380D01*
X149861904Y-59954761D01*
X149909523Y-59907142D01*
X149909523Y-60002380D01*
X150385714Y-60002380D02*
X150385714Y-59002380D01*
X150719047Y-59716666D01*
X151052380Y-59002380D01*
X151052380Y-60002380D01*
X152100000Y-59907142D02*
X152052380Y-59954761D01*
X151909523Y-60002380D01*
X151814285Y-60002380D01*
X151671428Y-59954761D01*
X151576190Y-59859523D01*
X151528571Y-59764285D01*
X151480952Y-59573809D01*
X151480952Y-59430952D01*
X151528571Y-59240476D01*
X151576190Y-59145238D01*
X151671428Y-59050000D01*
X151814285Y-59002380D01*
X151909523Y-59002380D01*
X152052380Y-59050000D01*
X152100000Y-59097619D01*
X152528571Y-60002380D02*
X152528571Y-59002380D01*
X152528571Y-59478571D02*
X153100000Y-59478571D01*
X153100000Y-60002380D02*
X153100000Y-59002380D01*
X153719047Y-60002380D02*
X153623809Y-59954761D01*
X153576190Y-59907142D01*
X153528571Y-59811904D01*
X153528571Y-59526190D01*
X153576190Y-59430952D01*
X153623809Y-59383333D01*
X153719047Y-59335714D01*
X153861904Y-59335714D01*
X153957142Y-59383333D01*
X154004761Y-59430952D01*
X154052380Y-59526190D01*
X154052380Y-59811904D01*
X154004761Y-59907142D01*
X153957142Y-59954761D01*
X153861904Y-60002380D01*
X153719047Y-60002380D01*
X154480952Y-60002380D02*
X154480952Y-59002380D01*
X154480952Y-59383333D02*
X154576190Y-59335714D01*
X154766666Y-59335714D01*
X154861904Y-59383333D01*
X154909523Y-59430952D01*
X154957142Y-59526190D01*
X154957142Y-59811904D01*
X154909523Y-59907142D01*
X154861904Y-59954761D01*
X154766666Y-60002380D01*
X154576190Y-60002380D01*
X154480952Y-59954761D01*
X155385714Y-60002380D02*
X155385714Y-59002380D01*
X155385714Y-59383333D02*
X155480952Y-59335714D01*
X155671428Y-59335714D01*
X155766666Y-59383333D01*
X155814285Y-59430952D01*
X155861904Y-59526190D01*
X155861904Y-59811904D01*
X155814285Y-59907142D01*
X155766666Y-59954761D01*
X155671428Y-60002380D01*
X155480952Y-60002380D01*
X155385714Y-59954761D01*
X156195238Y-59335714D02*
X156433333Y-60002380D01*
X156671428Y-59335714D02*
X156433333Y-60002380D01*
X156338095Y-60240476D01*
X156290476Y-60288095D01*
X156195238Y-60335714D01*
X157052380Y-59907142D02*
X157100000Y-59954761D01*
X157052380Y-60002380D01*
X157004761Y-59954761D01*
X157052380Y-59907142D01*
X157052380Y-60002380D01*
X157528571Y-60002380D02*
X157528571Y-59002380D01*
X157528571Y-59383333D02*
X157623809Y-59335714D01*
X157814285Y-59335714D01*
X157909523Y-59383333D01*
X157957142Y-59430952D01*
X158004761Y-59526190D01*
X158004761Y-59811904D01*
X157957142Y-59907142D01*
X157909523Y-59954761D01*
X157814285Y-60002380D01*
X157623809Y-60002380D01*
X157528571Y-59954761D01*
X158814285Y-59954761D02*
X158719047Y-60002380D01*
X158528571Y-60002380D01*
X158433333Y-59954761D01*
X158385714Y-59859523D01*
X158385714Y-59478571D01*
X158433333Y-59383333D01*
X158528571Y-59335714D01*
X158719047Y-59335714D01*
X158814285Y-59383333D01*
X158861904Y-59478571D01*
X158861904Y-59573809D01*
X158385714Y-59669047D01*
X132802380Y-60152380D02*
X132802380Y-59485714D01*
X132802380Y-59676190D02*
X132850000Y-59580952D01*
X132897619Y-59533333D01*
X132992857Y-59485714D01*
X133088095Y-59485714D01*
X133945238Y-60152380D02*
X133373809Y-60152380D01*
X133659523Y-60152380D02*
X133659523Y-59152380D01*
X133564285Y-59295238D01*
X133469047Y-59390476D01*
X133373809Y-59438095D01*
D12*
X108550000Y-59964285D02*
X108550000Y-58164285D01*
X109235714Y-58164285D01*
X109407142Y-58250000D01*
X109492857Y-58335714D01*
X109578571Y-58507142D01*
X109578571Y-58764285D01*
X109492857Y-58935714D01*
X109407142Y-59021428D01*
X109235714Y-59107142D01*
X108550000Y-59107142D01*
X111121428Y-59964285D02*
X111121428Y-59021428D01*
X111035714Y-58850000D01*
X110864285Y-58764285D01*
X110521428Y-58764285D01*
X110350000Y-58850000D01*
X111121428Y-59878571D02*
X110950000Y-59964285D01*
X110521428Y-59964285D01*
X110350000Y-59878571D01*
X110264285Y-59707142D01*
X110264285Y-59535714D01*
X110350000Y-59364285D01*
X110521428Y-59278571D01*
X110950000Y-59278571D01*
X111121428Y-59192857D01*
X111978571Y-59964285D02*
X111978571Y-58764285D01*
X111978571Y-59107142D02*
X112064285Y-58935714D01*
X112150000Y-58850000D01*
X112321428Y-58764285D01*
X112492857Y-58764285D01*
X113864285Y-59964285D02*
X113864285Y-59021428D01*
X113778571Y-58850000D01*
X113607142Y-58764285D01*
X113264285Y-58764285D01*
X113092857Y-58850000D01*
X113864285Y-59878571D02*
X113692857Y-59964285D01*
X113264285Y-59964285D01*
X113092857Y-59878571D01*
X113007142Y-59707142D01*
X113007142Y-59535714D01*
X113092857Y-59364285D01*
X113264285Y-59278571D01*
X113692857Y-59278571D01*
X113864285Y-59192857D01*
X114978571Y-59964285D02*
X114807142Y-59878571D01*
X114721428Y-59707142D01*
X114721428Y-58164285D01*
X115921428Y-59964285D02*
X115750000Y-59878571D01*
X115664285Y-59707142D01*
X115664285Y-58164285D01*
X117292857Y-59878571D02*
X117121428Y-59964285D01*
X116778571Y-59964285D01*
X116607142Y-59878571D01*
X116521428Y-59707142D01*
X116521428Y-59021428D01*
X116607142Y-58850000D01*
X116778571Y-58764285D01*
X117121428Y-58764285D01*
X117292857Y-58850000D01*
X117378571Y-59021428D01*
X117378571Y-59192857D01*
X116521428Y-59364285D01*
X118407142Y-59964285D02*
X118235714Y-59878571D01*
X118150000Y-59707142D01*
X118150000Y-58164285D01*
X119092857Y-59278571D02*
X120464285Y-59278571D01*
X122350000Y-59792857D02*
X122264285Y-59878571D01*
X122007142Y-59964285D01*
X121835714Y-59964285D01*
X121578571Y-59878571D01*
X121407142Y-59707142D01*
X121321428Y-59535714D01*
X121235714Y-59192857D01*
X121235714Y-58935714D01*
X121321428Y-58592857D01*
X121407142Y-58421428D01*
X121578571Y-58250000D01*
X121835714Y-58164285D01*
X122007142Y-58164285D01*
X122264285Y-58250000D01*
X122350000Y-58335714D01*
X123378571Y-59964285D02*
X123207142Y-59878571D01*
X123121428Y-59792857D01*
X123035714Y-59621428D01*
X123035714Y-59107142D01*
X123121428Y-58935714D01*
X123207142Y-58850000D01*
X123378571Y-58764285D01*
X123635714Y-58764285D01*
X123807142Y-58850000D01*
X123892857Y-58935714D01*
X123978571Y-59107142D01*
X123978571Y-59621428D01*
X123892857Y-59792857D01*
X123807142Y-59878571D01*
X123635714Y-59964285D01*
X123378571Y-59964285D01*
X124750000Y-59964285D02*
X124750000Y-58164285D01*
X124750000Y-58850000D02*
X124921428Y-58764285D01*
X125264285Y-58764285D01*
X125435714Y-58850000D01*
X125521428Y-58935714D01*
X125607142Y-59107142D01*
X125607142Y-59621428D01*
X125521428Y-59792857D01*
X125435714Y-59878571D01*
X125264285Y-59964285D01*
X124921428Y-59964285D01*
X124750000Y-59878571D01*
X126378571Y-59964285D02*
X126378571Y-58164285D01*
X126378571Y-58850000D02*
X126550000Y-58764285D01*
X126892857Y-58764285D01*
X127064285Y-58850000D01*
X127150000Y-58935714D01*
X127235714Y-59107142D01*
X127235714Y-59621428D01*
X127150000Y-59792857D01*
X127064285Y-59878571D01*
X126892857Y-59964285D01*
X126550000Y-59964285D01*
X126378571Y-59878571D01*
X128264285Y-59964285D02*
X128092857Y-59878571D01*
X128007142Y-59707142D01*
X128007142Y-58164285D01*
X129635714Y-59878571D02*
X129464285Y-59964285D01*
X129121428Y-59964285D01*
X128950000Y-59878571D01*
X128864285Y-59707142D01*
X128864285Y-59021428D01*
X128950000Y-58850000D01*
X129121428Y-58764285D01*
X129464285Y-58764285D01*
X129635714Y-58850000D01*
X129721428Y-59021428D01*
X129721428Y-59192857D01*
X128864285Y-59364285D01*
X130492857Y-59964285D02*
X130492857Y-58764285D01*
X130492857Y-59107142D02*
X130578571Y-58935714D01*
X130664285Y-58850000D01*
X130835714Y-58764285D01*
X131007142Y-58764285D01*
D11*
X117050000Y-66938095D02*
X117002380Y-67033333D01*
X117002380Y-67176190D01*
X117050000Y-67319047D01*
X117145238Y-67414285D01*
X117240476Y-67461904D01*
X117430952Y-67509523D01*
X117573809Y-67509523D01*
X117764285Y-67461904D01*
X117859523Y-67414285D01*
X117954761Y-67319047D01*
X118002380Y-67176190D01*
X118002380Y-67080952D01*
X117954761Y-66938095D01*
X117907142Y-66890476D01*
X117573809Y-66890476D01*
X117573809Y-67080952D01*
X111952380Y-66990476D02*
X111952380Y-67466666D01*
X112428571Y-67514285D01*
X112380952Y-67466666D01*
X112333333Y-67371428D01*
X112333333Y-67133333D01*
X112380952Y-67038095D01*
X112428571Y-66990476D01*
X112523809Y-66942857D01*
X112761904Y-66942857D01*
X112857142Y-66990476D01*
X112904761Y-67038095D01*
X112952380Y-67133333D01*
X112952380Y-67371428D01*
X112904761Y-67466666D01*
X112857142Y-67514285D01*
X111952380Y-66657142D02*
X112952380Y-66323809D01*
X111952380Y-65990476D01*
D13*
%TO.C,J3*%
X144580000Y-52230000D02*
X143250000Y-52230000D01*
X144580000Y-50900000D02*
X144580000Y-52230000D01*
X144580000Y-49630000D02*
X141920000Y-49630000D01*
X141920000Y-49630000D02*
X141920000Y-26710000D01*
X144580000Y-49630000D02*
X144580000Y-26710000D01*
X144580000Y-26710000D02*
X141920000Y-26710000D01*
%TO.C,J1*%
X129330000Y-52240000D02*
X128000000Y-52240000D01*
X129330000Y-50910000D02*
X129330000Y-52240000D01*
X129330000Y-49640000D02*
X126670000Y-49640000D01*
X126670000Y-49640000D02*
X126670000Y-26720000D01*
X129330000Y-49640000D02*
X129330000Y-26720000D01*
X129330000Y-26720000D02*
X126670000Y-26720000D01*
%TO.C,J2*%
X107340000Y-70140000D02*
X107340000Y-61020000D01*
X107340000Y-61020000D02*
X166020000Y-61020000D01*
X166020000Y-61020000D02*
X166020000Y-70140000D01*
X166020000Y-70140000D02*
X107340000Y-70140000D01*
X134630000Y-70140000D02*
X134630000Y-68830000D01*
X134630000Y-68830000D02*
X108640000Y-68830000D01*
X108640000Y-68830000D02*
X108640000Y-62330000D01*
X108640000Y-62330000D02*
X164720000Y-62330000D01*
X164720000Y-62330000D02*
X164720000Y-68830000D01*
X164720000Y-68830000D02*
X138730000Y-68830000D01*
X138730000Y-68830000D02*
X138730000Y-68830000D01*
X138730000Y-68830000D02*
X138730000Y-70140000D01*
X112550000Y-70530000D02*
X112050000Y-71530000D01*
X112050000Y-71530000D02*
X113050000Y-71530000D01*
X113050000Y-71530000D02*
X112550000Y-70530000D01*
%TO.C,J3*%
D11*
X142916666Y-52682380D02*
X142916666Y-53396666D01*
X142869047Y-53539523D01*
X142773809Y-53634761D01*
X142630952Y-53682380D01*
X142535714Y-53682380D01*
X143297619Y-52682380D02*
X143916666Y-52682380D01*
X143583333Y-53063333D01*
X143726190Y-53063333D01*
X143821428Y-53110952D01*
X143869047Y-53158571D01*
X143916666Y-53253809D01*
X143916666Y-53491904D01*
X143869047Y-53587142D01*
X143821428Y-53634761D01*
X143726190Y-53682380D01*
X143440476Y-53682380D01*
X143345238Y-53634761D01*
X143297619Y-53587142D01*
%TO.C,J1*%
X127666666Y-52692380D02*
X127666666Y-53406666D01*
X127619047Y-53549523D01*
X127523809Y-53644761D01*
X127380952Y-53692380D01*
X127285714Y-53692380D01*
X128666666Y-53692380D02*
X128095238Y-53692380D01*
X128380952Y-53692380D02*
X128380952Y-52692380D01*
X128285714Y-52835238D01*
X128190476Y-52930476D01*
X128095238Y-52978095D01*
%TO.C,J2*%
X105902380Y-65913333D02*
X106616666Y-65913333D01*
X106759523Y-65960952D01*
X106854761Y-66056190D01*
X106902380Y-66199047D01*
X106902380Y-66294285D01*
X105997619Y-65484761D02*
X105950000Y-65437142D01*
X105902380Y-65341904D01*
X105902380Y-65103809D01*
X105950000Y-65008571D01*
X105997619Y-64960952D01*
X106092857Y-64913333D01*
X106188095Y-64913333D01*
X106330952Y-64960952D01*
X106902380Y-65532380D01*
X106902380Y-64913333D01*
%TD*%
M02*
