%TF.GenerationSoftware,KiCad,Pcbnew,5.1.12-84ad8e8a86~92~ubuntu18.04.1*%
%TF.CreationDate,2022-06-27T01:27:44+02:00*%
%TF.ProjectId,Parallel-brk,50617261-6c6c-4656-9c2d-62726b2e6b69,rev?*%
%TF.SameCoordinates,Original*%
%TF.FileFunction,Soldermask,Bot*%
%TF.FilePolarity,Negative*%
%FSLAX46Y46*%
G04 Gerber Fmt 4.6, Leading zero omitted, Abs format (unit mm)*
G04 Created by KiCad (PCBNEW 5.1.12-84ad8e8a86~92~ubuntu18.04.1) date 2022-06-27 01:27:44*
%MOMM*%
%LPD*%
G01*
G04 APERTURE LIST*
%ADD10R,3.480000X1.846667*%
%ADD11O,1.700000X1.700000*%
%ADD12R,1.700000X1.700000*%
%ADD13O,1.600000X1.600000*%
%ADD14C,1.600000*%
%ADD15O,1.200000X1.900000*%
%ADD16C,1.450000*%
%ADD17C,1.700000*%
%ADD18C,1.800000*%
%ADD19R,1.800000X1.800000*%
%ADD20C,1.200000*%
%ADD21R,1.200000X1.200000*%
G04 APERTURE END LIST*
D10*
%TO.C,J1*%
X100550000Y-45630000D03*
X100550000Y-48400000D03*
X100550000Y-51170000D03*
X100550000Y-53940000D03*
X100550000Y-56710000D03*
X100550000Y-59480000D03*
X100550000Y-62250000D03*
X100550000Y-65020000D03*
X100550000Y-67790000D03*
X100550000Y-70560000D03*
X100550000Y-73330000D03*
X100550000Y-76100000D03*
X100550000Y-78870000D03*
%TD*%
D11*
%TO.C,J6*%
X112690000Y-46010000D03*
X112690000Y-48550000D03*
X115230000Y-46010000D03*
X115230000Y-48550000D03*
X117770000Y-46010000D03*
X117770000Y-48550000D03*
X120310000Y-46010000D03*
X120310000Y-48550000D03*
X122850000Y-46010000D03*
D12*
X122850000Y-48550000D03*
%TD*%
D11*
%TO.C,J5*%
X165540000Y-46690000D03*
X163000000Y-46690000D03*
X165540000Y-49230000D03*
X163000000Y-49230000D03*
X165540000Y-51770000D03*
X163000000Y-51770000D03*
X165540000Y-54310000D03*
X163000000Y-54310000D03*
X165540000Y-56850000D03*
D12*
X163000000Y-56850000D03*
%TD*%
D13*
%TO.C,R1*%
X143440000Y-53650000D03*
D14*
X140900000Y-53650000D03*
%TD*%
D11*
%TO.C,J4*%
X153680000Y-47550000D03*
X151140000Y-47550000D03*
D12*
X148600000Y-47550000D03*
%TD*%
D15*
%TO.C,J3*%
X130550000Y-45162500D03*
X137550000Y-45162500D03*
D16*
X131550000Y-47862500D03*
X136550000Y-47862500D03*
%TD*%
D17*
%TO.C,J2*%
X160810000Y-71110000D03*
X158270000Y-71110000D03*
X155730000Y-71110000D03*
X153190000Y-71110000D03*
X150650000Y-71110000D03*
X148110000Y-71110000D03*
X145570000Y-71110000D03*
X143030000Y-71110000D03*
X140490000Y-71110000D03*
X137950000Y-71110000D03*
X135410000Y-71110000D03*
X132870000Y-71110000D03*
X130330000Y-71110000D03*
X127790000Y-71110000D03*
X125250000Y-71110000D03*
X122710000Y-71110000D03*
X120170000Y-71110000D03*
X117630000Y-71110000D03*
X115090000Y-71110000D03*
X112550000Y-71110000D03*
X160810000Y-73650000D03*
X158270000Y-73650000D03*
X155730000Y-73650000D03*
X153190000Y-73650000D03*
X150650000Y-73650000D03*
X148110000Y-73650000D03*
X145570000Y-73650000D03*
X143030000Y-73650000D03*
X140490000Y-73650000D03*
X137950000Y-73650000D03*
X135410000Y-73650000D03*
X132870000Y-73650000D03*
X130330000Y-73650000D03*
X127790000Y-73650000D03*
X125250000Y-73650000D03*
X122710000Y-73650000D03*
X120170000Y-73650000D03*
X117630000Y-73650000D03*
X115090000Y-73650000D03*
G36*
G01*
X113150000Y-74500000D02*
X111950000Y-74500000D01*
G75*
G02*
X111700000Y-74250000I0J250000D01*
G01*
X111700000Y-73050000D01*
G75*
G02*
X111950000Y-72800000I250000J0D01*
G01*
X113150000Y-72800000D01*
G75*
G02*
X113400000Y-73050000I0J-250000D01*
G01*
X113400000Y-74250000D01*
G75*
G02*
X113150000Y-74500000I-250000J0D01*
G01*
G37*
%TD*%
D18*
%TO.C,D1*%
X147910000Y-53600000D03*
D19*
X150450000Y-53600000D03*
%TD*%
D20*
%TO.C,C2*%
X142950000Y-47350000D03*
D21*
X140950000Y-47350000D03*
%TD*%
D13*
%TO.C,C1*%
X136250000Y-53650000D03*
D14*
X128750000Y-53650000D03*
%TD*%
M02*
