%TF.GenerationSoftware,KiCad,Pcbnew,5.1.12-84ad8e8a86~92~ubuntu18.04.1*%
%TF.CreationDate,2022-06-27T01:27:44+02:00*%
%TF.ProjectId,Parallel-brk,50617261-6c6c-4656-9c2d-62726b2e6b69,rev?*%
%TF.SameCoordinates,Original*%
%TF.FileFunction,Copper,L2,Bot*%
%TF.FilePolarity,Positive*%
%FSLAX46Y46*%
G04 Gerber Fmt 4.6, Leading zero omitted, Abs format (unit mm)*
G04 Created by KiCad (PCBNEW 5.1.12-84ad8e8a86~92~ubuntu18.04.1) date 2022-06-27 01:27:44*
%MOMM*%
%LPD*%
G01*
G04 APERTURE LIST*
%TA.AperFunction,SMDPad,CuDef*%
%ADD10R,3.480000X1.846667*%
%TD*%
%TA.AperFunction,ComponentPad*%
%ADD11O,1.700000X1.700000*%
%TD*%
%TA.AperFunction,ComponentPad*%
%ADD12R,1.700000X1.700000*%
%TD*%
%TA.AperFunction,ComponentPad*%
%ADD13O,1.600000X1.600000*%
%TD*%
%TA.AperFunction,ComponentPad*%
%ADD14C,1.600000*%
%TD*%
%TA.AperFunction,ComponentPad*%
%ADD15O,1.200000X1.900000*%
%TD*%
%TA.AperFunction,ComponentPad*%
%ADD16C,1.450000*%
%TD*%
%TA.AperFunction,ComponentPad*%
%ADD17C,1.700000*%
%TD*%
%TA.AperFunction,ComponentPad*%
%ADD18C,1.800000*%
%TD*%
%TA.AperFunction,ComponentPad*%
%ADD19R,1.800000X1.800000*%
%TD*%
%TA.AperFunction,ComponentPad*%
%ADD20C,1.200000*%
%TD*%
%TA.AperFunction,ComponentPad*%
%ADD21R,1.200000X1.200000*%
%TD*%
%TA.AperFunction,ViaPad*%
%ADD22C,0.800000*%
%TD*%
%TA.AperFunction,Conductor*%
%ADD23C,0.400000*%
%TD*%
%TA.AperFunction,Conductor*%
%ADD24C,0.250000*%
%TD*%
G04 APERTURE END LIST*
D10*
%TO.P,J1,13*%
%TO.N,/s4*%
X100550000Y-45630000D03*
%TO.P,J1,12*%
%TO.N,/s5*%
X100550000Y-48400000D03*
%TO.P,J1,11*%
%TO.N,/s7*%
X100550000Y-51170000D03*
%TO.P,J1,10*%
%TO.N,/s6*%
X100550000Y-53940000D03*
%TO.P,J1,9*%
%TO.N,/d7*%
X100550000Y-56710000D03*
%TO.P,J1,8*%
%TO.N,/d6*%
X100550000Y-59480000D03*
%TO.P,J1,7*%
%TO.N,/d5*%
X100550000Y-62250000D03*
%TO.P,J1,6*%
%TO.N,/d4*%
X100550000Y-65020000D03*
%TO.P,J1,5*%
%TO.N,/d3*%
X100550000Y-67790000D03*
%TO.P,J1,4*%
%TO.N,/d2*%
X100550000Y-70560000D03*
%TO.P,J1,3*%
%TO.N,/d1*%
X100550000Y-73330000D03*
%TO.P,J1,2*%
%TO.N,/d0*%
X100550000Y-76100000D03*
%TO.P,J1,1*%
%TO.N,/c0*%
X100550000Y-78870000D03*
%TD*%
D11*
%TO.P,J6,10*%
%TO.N,+5V*%
X112690000Y-46010000D03*
%TO.P,J6,9*%
%TO.N,GND*%
X112690000Y-48550000D03*
%TO.P,J6,8*%
%TO.N,+5V*%
X115230000Y-46010000D03*
%TO.P,J6,7*%
%TO.N,GND*%
X115230000Y-48550000D03*
%TO.P,J6,6*%
%TO.N,+5V*%
X117770000Y-46010000D03*
%TO.P,J6,5*%
%TO.N,GND*%
X117770000Y-48550000D03*
%TO.P,J6,4*%
%TO.N,+5V*%
X120310000Y-46010000D03*
%TO.P,J6,3*%
%TO.N,GND*%
X120310000Y-48550000D03*
%TO.P,J6,2*%
%TO.N,+5V*%
X122850000Y-46010000D03*
D12*
%TO.P,J6,1*%
%TO.N,GND*%
X122850000Y-48550000D03*
%TD*%
D11*
%TO.P,J5,10*%
%TO.N,+3V3*%
X165540000Y-46690000D03*
%TO.P,J5,9*%
%TO.N,GND*%
X163000000Y-46690000D03*
%TO.P,J5,8*%
%TO.N,+3V3*%
X165540000Y-49230000D03*
%TO.P,J5,7*%
%TO.N,GND*%
X163000000Y-49230000D03*
%TO.P,J5,6*%
%TO.N,+3V3*%
X165540000Y-51770000D03*
%TO.P,J5,5*%
%TO.N,GND*%
X163000000Y-51770000D03*
%TO.P,J5,4*%
%TO.N,+3V3*%
X165540000Y-54310000D03*
%TO.P,J5,3*%
%TO.N,GND*%
X163000000Y-54310000D03*
%TO.P,J5,2*%
%TO.N,+3V3*%
X165540000Y-56850000D03*
D12*
%TO.P,J5,1*%
%TO.N,GND*%
X163000000Y-56850000D03*
%TD*%
D13*
%TO.P,R1,2*%
%TO.N,Net-(D1-Pad2)*%
X143440000Y-53650000D03*
D14*
%TO.P,R1,1*%
%TO.N,GND*%
X140900000Y-53650000D03*
%TD*%
D11*
%TO.P,J4,3*%
%TO.N,+5V*%
X153680000Y-47550000D03*
%TO.P,J4,2*%
%TO.N,+3V3*%
X151140000Y-47550000D03*
D12*
%TO.P,J4,1*%
%TO.N,GND*%
X148600000Y-47550000D03*
%TD*%
D15*
%TO.P,J3,6*%
%TO.N,GND*%
X130550000Y-45162500D03*
X137550000Y-45162500D03*
D16*
X131550000Y-47862500D03*
X136550000Y-47862500D03*
%TD*%
D17*
%TO.P,J2,40*%
%TO.N,/s7*%
X160810000Y-71110000D03*
%TO.P,J2,38*%
%TO.N,/s6*%
X158270000Y-71110000D03*
%TO.P,J2,36*%
%TO.N,/s5*%
X155730000Y-71110000D03*
%TO.P,J2,34*%
%TO.N,GND*%
X153190000Y-71110000D03*
%TO.P,J2,32*%
%TO.N,/s4*%
X150650000Y-71110000D03*
%TO.P,J2,30*%
%TO.N,GND*%
X148110000Y-71110000D03*
%TO.P,J2,28*%
%TO.N,/s3*%
X145570000Y-71110000D03*
%TO.P,J2,26*%
%TO.N,Net-(J2-Pad26)*%
X143030000Y-71110000D03*
%TO.P,J2,24*%
%TO.N,Net-(J2-Pad24)*%
X140490000Y-71110000D03*
%TO.P,J2,22*%
%TO.N,Net-(J2-Pad22)*%
X137950000Y-71110000D03*
%TO.P,J2,20*%
%TO.N,GND*%
X135410000Y-71110000D03*
%TO.P,J2,18*%
%TO.N,Net-(J2-Pad18)*%
X132870000Y-71110000D03*
%TO.P,J2,16*%
%TO.N,Net-(J2-Pad16)*%
X130330000Y-71110000D03*
%TO.P,J2,14*%
%TO.N,GND*%
X127790000Y-71110000D03*
%TO.P,J2,12*%
%TO.N,Net-(J2-Pad12)*%
X125250000Y-71110000D03*
%TO.P,J2,10*%
%TO.N,Net-(J2-Pad10)*%
X122710000Y-71110000D03*
%TO.P,J2,8*%
%TO.N,Net-(J2-Pad8)*%
X120170000Y-71110000D03*
%TO.P,J2,6*%
%TO.N,GND*%
X117630000Y-71110000D03*
%TO.P,J2,4*%
%TO.N,+5V*%
X115090000Y-71110000D03*
%TO.P,J2,2*%
X112550000Y-71110000D03*
%TO.P,J2,39*%
%TO.N,GND*%
X160810000Y-73650000D03*
%TO.P,J2,37*%
%TO.N,/c3*%
X158270000Y-73650000D03*
%TO.P,J2,35*%
%TO.N,/c2*%
X155730000Y-73650000D03*
%TO.P,J2,33*%
%TO.N,/c1*%
X153190000Y-73650000D03*
%TO.P,J2,31*%
%TO.N,/c0*%
X150650000Y-73650000D03*
%TO.P,J2,29*%
%TO.N,Net-(J2-Pad29)*%
X148110000Y-73650000D03*
%TO.P,J2,27*%
%TO.N,Net-(J2-Pad27)*%
X145570000Y-73650000D03*
%TO.P,J2,25*%
%TO.N,GND*%
X143030000Y-73650000D03*
%TO.P,J2,23*%
%TO.N,Net-(J2-Pad23)*%
X140490000Y-73650000D03*
%TO.P,J2,21*%
%TO.N,/d7*%
X137950000Y-73650000D03*
%TO.P,J2,19*%
%TO.N,/d6*%
X135410000Y-73650000D03*
%TO.P,J2,17*%
%TO.N,+3V3*%
X132870000Y-73650000D03*
%TO.P,J2,15*%
%TO.N,/d5*%
X130330000Y-73650000D03*
%TO.P,J2,13*%
%TO.N,/d4*%
X127790000Y-73650000D03*
%TO.P,J2,11*%
%TO.N,/d3*%
X125250000Y-73650000D03*
%TO.P,J2,9*%
%TO.N,GND*%
X122710000Y-73650000D03*
%TO.P,J2,7*%
%TO.N,/d2*%
X120170000Y-73650000D03*
%TO.P,J2,5*%
%TO.N,/d1*%
X117630000Y-73650000D03*
%TO.P,J2,3*%
%TO.N,/d0*%
X115090000Y-73650000D03*
%TO.P,J2,1*%
%TO.N,+3V3*%
%TA.AperFunction,ComponentPad*%
G36*
G01*
X113150000Y-74500000D02*
X111950000Y-74500000D01*
G75*
G02*
X111700000Y-74250000I0J250000D01*
G01*
X111700000Y-73050000D01*
G75*
G02*
X111950000Y-72800000I250000J0D01*
G01*
X113150000Y-72800000D01*
G75*
G02*
X113400000Y-73050000I0J-250000D01*
G01*
X113400000Y-74250000D01*
G75*
G02*
X113150000Y-74500000I-250000J0D01*
G01*
G37*
%TD.AperFunction*%
%TD*%
D18*
%TO.P,D1,2*%
%TO.N,Net-(D1-Pad2)*%
X147910000Y-53600000D03*
D19*
%TO.P,D1,1*%
%TO.N,+3V3*%
X150450000Y-53600000D03*
%TD*%
D20*
%TO.P,C2,2*%
%TO.N,+3V3*%
X142950000Y-47350000D03*
D21*
%TO.P,C2,1*%
%TO.N,GND*%
X140950000Y-47350000D03*
%TD*%
D13*
%TO.P,C1,2*%
%TO.N,+5V*%
X136250000Y-53650000D03*
D14*
%TO.P,C1,1*%
%TO.N,GND*%
X128750000Y-53650000D03*
%TD*%
D22*
%TO.N,/c2*%
X154650000Y-78450000D03*
X106150000Y-79650000D03*
%TO.N,/s3*%
X147100000Y-75900000D03*
X103650000Y-74700000D03*
X109750000Y-74750000D03*
%TO.N,/c1*%
X104850000Y-77850000D03*
X152150000Y-78700000D03*
%TO.N,/s4*%
X150650000Y-58700000D03*
%TO.N,/s5*%
X155600000Y-59900000D03*
%TO.N,/s7*%
X160800000Y-61350000D03*
%TO.N,/c0*%
X149150000Y-78950000D03*
%TD*%
D23*
%TO.N,+5V*%
X153680000Y-47550000D02*
X153680000Y-50120000D01*
X153680000Y-50120000D02*
X152450000Y-51350000D01*
X138550000Y-51350000D02*
X136250000Y-53650000D01*
X152450000Y-51350000D02*
X138550000Y-51350000D01*
X112690000Y-46010000D02*
X115230000Y-46010000D01*
X115230000Y-46010000D02*
X117770000Y-46010000D01*
X117770000Y-46010000D02*
X120310000Y-46010000D01*
X120310000Y-46010000D02*
X122850000Y-46010000D01*
X122850000Y-46010000D02*
X125310000Y-46010000D01*
X125310000Y-46010000D02*
X130400000Y-51100000D01*
X133700000Y-51100000D02*
X136250000Y-53650000D01*
X130400000Y-51100000D02*
X133700000Y-51100000D01*
X112550000Y-71110000D02*
X115090000Y-71110000D01*
%TO.N,GND*%
X148600000Y-47550000D02*
X150500000Y-45650000D01*
X161960000Y-45650000D02*
X163000000Y-46690000D01*
X150500000Y-45650000D02*
X161960000Y-45650000D01*
X163000000Y-46690000D02*
X163000000Y-49230000D01*
X163000000Y-49230000D02*
X163000000Y-51770000D01*
X163000000Y-51770000D02*
X163000000Y-54310000D01*
X163000000Y-54310000D02*
X163000000Y-56850000D01*
X112690000Y-48550000D02*
X115230000Y-48550000D01*
X115230000Y-48550000D02*
X117770000Y-48550000D01*
X117770000Y-48550000D02*
X120310000Y-48550000D01*
X120310000Y-48550000D02*
X122850000Y-48550000D01*
X123650000Y-48550000D02*
X128750000Y-53650000D01*
X122850000Y-48550000D02*
X123650000Y-48550000D01*
D24*
%TO.N,/c2*%
X154650000Y-78450000D02*
X153424999Y-79675001D01*
X106175001Y-79675001D02*
X106150000Y-79650000D01*
X153424999Y-79675001D02*
X106175001Y-79675001D01*
%TO.N,/s3*%
X147100000Y-75900000D02*
X146850000Y-75650000D01*
X146850000Y-72390000D02*
X145570000Y-71110000D01*
X146850000Y-75650000D02*
X146850000Y-72390000D01*
X103650000Y-74700000D02*
X109700000Y-74700000D01*
X109700000Y-74700000D02*
X109750000Y-74750000D01*
%TO.N,/c1*%
X151674999Y-78224999D02*
X152150000Y-78700000D01*
X104850000Y-77850000D02*
X105224999Y-78224999D01*
X105224999Y-78224999D02*
X151674999Y-78224999D01*
%TO.N,/s4*%
X100550000Y-45630000D02*
X105580000Y-45630000D01*
X105580000Y-45630000D02*
X118550000Y-58600000D01*
X118550000Y-58600000D02*
X150550000Y-58600000D01*
X150550000Y-58600000D02*
X150650000Y-58700000D01*
%TO.N,/s5*%
X100550000Y-48400000D02*
X106650000Y-48400000D01*
X106650000Y-48400000D02*
X118200000Y-59950000D01*
X118200000Y-59950000D02*
X155550000Y-59950000D01*
X155550000Y-59950000D02*
X155600000Y-59900000D01*
%TO.N,/s7*%
X100550000Y-51170000D02*
X107920000Y-51170000D01*
X107920000Y-51170000D02*
X118000000Y-61250000D01*
X118000000Y-61250000D02*
X136600000Y-61250000D01*
X136600000Y-61250000D02*
X160700000Y-61250000D01*
X160700000Y-61250000D02*
X160800000Y-61350000D01*
%TO.N,/s6*%
X100550000Y-53940000D02*
X109040000Y-53940000D01*
X109040000Y-53940000D02*
X117700000Y-62600000D01*
X117700000Y-62600000D02*
X135450000Y-62600000D01*
X139314999Y-66464999D02*
X139314999Y-77114999D01*
X135450000Y-62600000D02*
X139314999Y-66464999D01*
X139314999Y-77114999D02*
X139850000Y-77650000D01*
X139850000Y-77650000D02*
X158850000Y-77650000D01*
X158850000Y-77650000D02*
X159550000Y-76950000D01*
X159550000Y-72390000D02*
X158270000Y-71110000D01*
X159550000Y-76950000D02*
X159550000Y-72390000D01*
%TO.N,/d7*%
X100550000Y-56710000D02*
X109960000Y-56710000D01*
X109960000Y-56710000D02*
X116700000Y-63450000D01*
X116700000Y-63450000D02*
X134400000Y-63450000D01*
X136774999Y-65824999D02*
X136774999Y-72424999D01*
X134400000Y-63450000D02*
X136774999Y-65824999D01*
X137950000Y-73600000D02*
X137950000Y-73650000D01*
X136774999Y-72424999D02*
X137950000Y-73600000D01*
%TO.N,/d6*%
X100550000Y-59480000D02*
X110880000Y-59480000D01*
X110880000Y-59480000D02*
X115700000Y-64300000D01*
X115700000Y-64300000D02*
X133200000Y-64300000D01*
X134045001Y-65145001D02*
X134045001Y-71995001D01*
X133200000Y-64300000D02*
X134045001Y-65145001D01*
X135410000Y-73360000D02*
X135410000Y-73650000D01*
X134045001Y-71995001D02*
X135410000Y-73360000D01*
%TO.N,/d5*%
X100550000Y-62250000D02*
X112050000Y-62250000D01*
X112050000Y-62250000D02*
X115150000Y-65350000D01*
X115150000Y-65350000D02*
X130550000Y-65350000D01*
X131505001Y-72474999D02*
X130330000Y-73650000D01*
X131505001Y-66305001D02*
X131505001Y-72474999D01*
X130550000Y-65350000D02*
X131505001Y-66305001D01*
%TO.N,/d4*%
X100550000Y-65020000D02*
X112670000Y-65020000D01*
X112670000Y-65020000D02*
X114200000Y-66550000D01*
X114200000Y-66550000D02*
X128100000Y-66550000D01*
X129154999Y-72285001D02*
X127790000Y-73650000D01*
X129154999Y-67604999D02*
X129154999Y-72285001D01*
X128100000Y-66550000D02*
X129154999Y-67604999D01*
%TO.N,/d1*%
X101405010Y-72474990D02*
X116125010Y-72474990D01*
X100550000Y-73330000D02*
X101405010Y-72474990D01*
X117300020Y-73650000D02*
X117630000Y-73650000D01*
X116125010Y-72474990D02*
X117300020Y-73650000D01*
%TO.N,/d0*%
X100550000Y-76100000D02*
X114350000Y-76100000D01*
X115090000Y-75360000D02*
X115090000Y-73650000D01*
X114350000Y-76100000D02*
X115090000Y-75360000D01*
%TO.N,/c0*%
X100550000Y-78870000D02*
X149070000Y-78870000D01*
X149070000Y-78870000D02*
X149150000Y-78950000D01*
%TO.N,/d3*%
X100550000Y-67790000D02*
X124940000Y-67790000D01*
X126614999Y-69464999D02*
X126614999Y-72535001D01*
X124940000Y-67790000D02*
X126614999Y-69464999D01*
X125500000Y-73650000D02*
X125250000Y-73650000D01*
X126614999Y-72535001D02*
X125500000Y-73650000D01*
%TO.N,/d2*%
X121345001Y-72474999D02*
X121345001Y-69295001D01*
X120170000Y-73650000D02*
X121345001Y-72474999D01*
X121345001Y-69295001D02*
X120900000Y-68850000D01*
X120900000Y-68850000D02*
X104200000Y-68850000D01*
X102490000Y-70560000D02*
X100550000Y-70560000D01*
X104200000Y-68850000D02*
X102490000Y-70560000D01*
%TD*%
M02*
