M48
; DRILL file {KiCad 5.1.12-84ad8e8a86~92~ubuntu18.04.1} date lun 27 jun 2022 01:27:47 CEST
; FORMAT={-:-/ absolute / metric / decimal}
; #@! TF.CreationDate,2022-06-27T01:27:47+02:00
; #@! TF.GenerationSoftware,Kicad,Pcbnew,5.1.12-84ad8e8a86~92~ubuntu18.04.1
; #@! TF.FileFunction,Plated,1,2,PTH
FMAT,2
METRIC
T1C0.400
T2C0.600
T3C0.800
T4C0.850
T5C0.900
T6C1.000
%
G90
G05
T1
X103.65Y-74.7
X104.85Y-77.85
X106.15Y-79.65
X109.75Y-74.75
X147.1Y-75.9
X149.15Y-78.95
X150.65Y-58.7
X152.15Y-78.7
X154.65Y-78.45
X155.6Y-59.9
X160.8Y-61.35
T2
X140.95Y-47.35
X142.95Y-47.35
T3
X128.75Y-53.65
X136.25Y-53.65
X140.9Y-53.65
X143.44Y-53.65
T4
X131.55Y-47.862
X136.55Y-47.862
T5
X147.91Y-53.6
X150.45Y-53.6
T6
X112.55Y-71.11
X112.55Y-73.65
X112.69Y-46.01
X112.69Y-48.55
X115.09Y-71.11
X115.09Y-73.65
X115.23Y-46.01
X115.23Y-48.55
X117.63Y-71.11
X117.63Y-73.65
X117.77Y-46.01
X117.77Y-48.55
X120.17Y-71.11
X120.17Y-73.65
X120.31Y-46.01
X120.31Y-48.55
X122.71Y-71.11
X122.71Y-73.65
X122.85Y-46.01
X122.85Y-48.55
X125.25Y-71.11
X125.25Y-73.65
X127.79Y-71.11
X127.79Y-73.65
X130.33Y-71.11
X130.33Y-73.65
X132.87Y-71.11
X132.87Y-73.65
X135.41Y-71.11
X135.41Y-73.65
X137.95Y-71.11
X137.95Y-73.65
X140.49Y-71.11
X140.49Y-73.65
X143.03Y-71.11
X143.03Y-73.65
X145.57Y-71.11
X145.57Y-73.65
X148.11Y-71.11
X148.11Y-73.65
X148.6Y-47.55
X150.65Y-71.11
X150.65Y-73.65
X151.14Y-47.55
X153.19Y-71.11
X153.19Y-73.65
X153.68Y-47.55
X155.73Y-71.11
X155.73Y-73.65
X158.27Y-71.11
X158.27Y-73.65
X160.81Y-71.11
X160.81Y-73.65
X163.0Y-46.69
X163.0Y-49.23
X163.0Y-51.77
X163.0Y-54.31
X163.0Y-56.85
X165.54Y-46.69
X165.54Y-49.23
X165.54Y-51.77
X165.54Y-54.31
X165.54Y-56.85
T2
G00X130.55Y-45.512
M15
G01X130.55Y-44.812
M16
G05
G00X137.55Y-44.812
M15
G01X137.55Y-45.512
M16
G05
T0
M30
