%TF.GenerationSoftware,KiCad,Pcbnew,5.1.12-84ad8e8a86~92~ubuntu18.04.1*%
%TF.CreationDate,2022-06-27T01:27:44+02:00*%
%TF.ProjectId,Parallel-brk,50617261-6c6c-4656-9c2d-62726b2e6b69,rev?*%
%TF.SameCoordinates,Original*%
%TF.FileFunction,Legend,Top*%
%TF.FilePolarity,Positive*%
%FSLAX46Y46*%
G04 Gerber Fmt 4.6, Leading zero omitted, Abs format (unit mm)*
G04 Created by KiCad (PCBNEW 5.1.12-84ad8e8a86~92~ubuntu18.04.1) date 2022-06-27 01:27:44*
%MOMM*%
%LPD*%
G01*
G04 APERTURE LIST*
%ADD10C,0.150000*%
%ADD11C,0.350000*%
%ADD12C,0.250000*%
%ADD13C,2.000000*%
%ADD14C,0.120000*%
G04 APERTURE END LIST*
D10*
X125252380Y-54952380D02*
X125252380Y-54285714D01*
X125252380Y-54476190D02*
X125300000Y-54380952D01*
X125347619Y-54333333D01*
X125442857Y-54285714D01*
X125538095Y-54285714D01*
X126395238Y-54952380D02*
X125823809Y-54952380D01*
X126109523Y-54952380D02*
X126109523Y-53952380D01*
X126014285Y-54095238D01*
X125919047Y-54190476D01*
X125823809Y-54238095D01*
D11*
X107692857Y-53364285D02*
X107692857Y-51564285D01*
X108378571Y-51564285D01*
X108550000Y-51650000D01*
X108635714Y-51735714D01*
X108721428Y-51907142D01*
X108721428Y-52164285D01*
X108635714Y-52335714D01*
X108550000Y-52421428D01*
X108378571Y-52507142D01*
X107692857Y-52507142D01*
X110264285Y-53364285D02*
X110264285Y-52421428D01*
X110178571Y-52250000D01*
X110007142Y-52164285D01*
X109664285Y-52164285D01*
X109492857Y-52250000D01*
X110264285Y-53278571D02*
X110092857Y-53364285D01*
X109664285Y-53364285D01*
X109492857Y-53278571D01*
X109407142Y-53107142D01*
X109407142Y-52935714D01*
X109492857Y-52764285D01*
X109664285Y-52678571D01*
X110092857Y-52678571D01*
X110264285Y-52592857D01*
X111121428Y-53364285D02*
X111121428Y-52164285D01*
X111121428Y-52507142D02*
X111207142Y-52335714D01*
X111292857Y-52250000D01*
X111464285Y-52164285D01*
X111635714Y-52164285D01*
X113007142Y-53364285D02*
X113007142Y-52421428D01*
X112921428Y-52250000D01*
X112750000Y-52164285D01*
X112407142Y-52164285D01*
X112235714Y-52250000D01*
X113007142Y-53278571D02*
X112835714Y-53364285D01*
X112407142Y-53364285D01*
X112235714Y-53278571D01*
X112150000Y-53107142D01*
X112150000Y-52935714D01*
X112235714Y-52764285D01*
X112407142Y-52678571D01*
X112835714Y-52678571D01*
X113007142Y-52592857D01*
X114121428Y-53364285D02*
X113950000Y-53278571D01*
X113864285Y-53107142D01*
X113864285Y-51564285D01*
X115064285Y-53364285D02*
X114892857Y-53278571D01*
X114807142Y-53107142D01*
X114807142Y-51564285D01*
X116435714Y-53278571D02*
X116264285Y-53364285D01*
X115921428Y-53364285D01*
X115750000Y-53278571D01*
X115664285Y-53107142D01*
X115664285Y-52421428D01*
X115750000Y-52250000D01*
X115921428Y-52164285D01*
X116264285Y-52164285D01*
X116435714Y-52250000D01*
X116521428Y-52421428D01*
X116521428Y-52592857D01*
X115664285Y-52764285D01*
X117550000Y-53364285D02*
X117378571Y-53278571D01*
X117292857Y-53107142D01*
X117292857Y-51564285D01*
X118235714Y-52678571D02*
X119607142Y-52678571D01*
X121064285Y-52421428D02*
X121321428Y-52507142D01*
X121407142Y-52592857D01*
X121492857Y-52764285D01*
X121492857Y-53021428D01*
X121407142Y-53192857D01*
X121321428Y-53278571D01*
X121150000Y-53364285D01*
X120464285Y-53364285D01*
X120464285Y-51564285D01*
X121064285Y-51564285D01*
X121235714Y-51650000D01*
X121321428Y-51735714D01*
X121407142Y-51907142D01*
X121407142Y-52078571D01*
X121321428Y-52250000D01*
X121235714Y-52335714D01*
X121064285Y-52421428D01*
X120464285Y-52421428D01*
X123292857Y-53364285D02*
X122692857Y-52507142D01*
X122264285Y-53364285D02*
X122264285Y-51564285D01*
X122950000Y-51564285D01*
X123121428Y-51650000D01*
X123207142Y-51735714D01*
X123292857Y-51907142D01*
X123292857Y-52164285D01*
X123207142Y-52335714D01*
X123121428Y-52421428D01*
X122950000Y-52507142D01*
X122264285Y-52507142D01*
X124064285Y-53364285D02*
X124064285Y-51564285D01*
X125092857Y-53364285D02*
X124321428Y-52335714D01*
X125092857Y-51564285D02*
X124064285Y-52592857D01*
D10*
X110092857Y-55302380D02*
X110092857Y-54302380D01*
X110473809Y-54302380D01*
X110569047Y-54350000D01*
X110616666Y-54397619D01*
X110664285Y-54492857D01*
X110664285Y-54635714D01*
X110616666Y-54730952D01*
X110569047Y-54778571D01*
X110473809Y-54826190D01*
X110092857Y-54826190D01*
X111521428Y-55302380D02*
X111521428Y-54778571D01*
X111473809Y-54683333D01*
X111378571Y-54635714D01*
X111188095Y-54635714D01*
X111092857Y-54683333D01*
X111521428Y-55254761D02*
X111426190Y-55302380D01*
X111188095Y-55302380D01*
X111092857Y-55254761D01*
X111045238Y-55159523D01*
X111045238Y-55064285D01*
X111092857Y-54969047D01*
X111188095Y-54921428D01*
X111426190Y-54921428D01*
X111521428Y-54873809D01*
X111997619Y-55302380D02*
X111997619Y-54635714D01*
X111997619Y-54826190D02*
X112045238Y-54730952D01*
X112092857Y-54683333D01*
X112188095Y-54635714D01*
X112283333Y-54635714D01*
X113045238Y-55302380D02*
X113045238Y-54778571D01*
X112997619Y-54683333D01*
X112902380Y-54635714D01*
X112711904Y-54635714D01*
X112616666Y-54683333D01*
X113045238Y-55254761D02*
X112950000Y-55302380D01*
X112711904Y-55302380D01*
X112616666Y-55254761D01*
X112569047Y-55159523D01*
X112569047Y-55064285D01*
X112616666Y-54969047D01*
X112711904Y-54921428D01*
X112950000Y-54921428D01*
X113045238Y-54873809D01*
X113664285Y-55302380D02*
X113569047Y-55254761D01*
X113521428Y-55159523D01*
X113521428Y-54302380D01*
X114188095Y-55302380D02*
X114092857Y-55254761D01*
X114045238Y-55159523D01*
X114045238Y-54302380D01*
X114950000Y-55254761D02*
X114854761Y-55302380D01*
X114664285Y-55302380D01*
X114569047Y-55254761D01*
X114521428Y-55159523D01*
X114521428Y-54778571D01*
X114569047Y-54683333D01*
X114664285Y-54635714D01*
X114854761Y-54635714D01*
X114950000Y-54683333D01*
X114997619Y-54778571D01*
X114997619Y-54873809D01*
X114521428Y-54969047D01*
X115569047Y-55302380D02*
X115473809Y-55254761D01*
X115426190Y-55159523D01*
X115426190Y-54302380D01*
X117045238Y-54778571D02*
X117188095Y-54826190D01*
X117235714Y-54873809D01*
X117283333Y-54969047D01*
X117283333Y-55111904D01*
X117235714Y-55207142D01*
X117188095Y-55254761D01*
X117092857Y-55302380D01*
X116711904Y-55302380D01*
X116711904Y-54302380D01*
X117045238Y-54302380D01*
X117140476Y-54350000D01*
X117188095Y-54397619D01*
X117235714Y-54492857D01*
X117235714Y-54588095D01*
X117188095Y-54683333D01*
X117140476Y-54730952D01*
X117045238Y-54778571D01*
X116711904Y-54778571D01*
X117711904Y-55302380D02*
X117711904Y-54635714D01*
X117711904Y-54826190D02*
X117759523Y-54730952D01*
X117807142Y-54683333D01*
X117902380Y-54635714D01*
X117997619Y-54635714D01*
X118711904Y-55254761D02*
X118616666Y-55302380D01*
X118426190Y-55302380D01*
X118330952Y-55254761D01*
X118283333Y-55159523D01*
X118283333Y-54778571D01*
X118330952Y-54683333D01*
X118426190Y-54635714D01*
X118616666Y-54635714D01*
X118711904Y-54683333D01*
X118759523Y-54778571D01*
X118759523Y-54873809D01*
X118283333Y-54969047D01*
X119616666Y-55302380D02*
X119616666Y-54778571D01*
X119569047Y-54683333D01*
X119473809Y-54635714D01*
X119283333Y-54635714D01*
X119188095Y-54683333D01*
X119616666Y-55254761D02*
X119521428Y-55302380D01*
X119283333Y-55302380D01*
X119188095Y-55254761D01*
X119140476Y-55159523D01*
X119140476Y-55064285D01*
X119188095Y-54969047D01*
X119283333Y-54921428D01*
X119521428Y-54921428D01*
X119616666Y-54873809D01*
X120092857Y-55302380D02*
X120092857Y-54302380D01*
X120188095Y-54921428D02*
X120473809Y-55302380D01*
X120473809Y-54635714D02*
X120092857Y-55016666D01*
X121045238Y-55302380D02*
X120950000Y-55254761D01*
X120902380Y-55207142D01*
X120854761Y-55111904D01*
X120854761Y-54826190D01*
X120902380Y-54730952D01*
X120950000Y-54683333D01*
X121045238Y-54635714D01*
X121188095Y-54635714D01*
X121283333Y-54683333D01*
X121330952Y-54730952D01*
X121378571Y-54826190D01*
X121378571Y-55111904D01*
X121330952Y-55207142D01*
X121283333Y-55254761D01*
X121188095Y-55302380D01*
X121045238Y-55302380D01*
X122235714Y-54635714D02*
X122235714Y-55302380D01*
X121807142Y-54635714D02*
X121807142Y-55159523D01*
X121854761Y-55254761D01*
X121950000Y-55302380D01*
X122092857Y-55302380D01*
X122188095Y-55254761D01*
X122235714Y-55207142D01*
X122569047Y-54635714D02*
X122950000Y-54635714D01*
X122711904Y-54302380D02*
X122711904Y-55159523D01*
X122759523Y-55254761D01*
X122854761Y-55302380D01*
X122950000Y-55302380D01*
X111092857Y-57552380D02*
X111092857Y-56552380D01*
X111426190Y-57266666D01*
X111759523Y-56552380D01*
X111759523Y-57552380D01*
X112807142Y-57457142D02*
X112759523Y-57504761D01*
X112616666Y-57552380D01*
X112521428Y-57552380D01*
X112378571Y-57504761D01*
X112283333Y-57409523D01*
X112235714Y-57314285D01*
X112188095Y-57123809D01*
X112188095Y-56980952D01*
X112235714Y-56790476D01*
X112283333Y-56695238D01*
X112378571Y-56600000D01*
X112521428Y-56552380D01*
X112616666Y-56552380D01*
X112759523Y-56600000D01*
X112807142Y-56647619D01*
X113997619Y-57552380D02*
X113997619Y-56552380D01*
X113997619Y-57028571D02*
X114569047Y-57028571D01*
X114569047Y-57552380D02*
X114569047Y-56552380D01*
X115188095Y-57552380D02*
X115092857Y-57504761D01*
X115045238Y-57457142D01*
X114997619Y-57361904D01*
X114997619Y-57076190D01*
X115045238Y-56980952D01*
X115092857Y-56933333D01*
X115188095Y-56885714D01*
X115330952Y-56885714D01*
X115426190Y-56933333D01*
X115473809Y-56980952D01*
X115521428Y-57076190D01*
X115521428Y-57361904D01*
X115473809Y-57457142D01*
X115426190Y-57504761D01*
X115330952Y-57552380D01*
X115188095Y-57552380D01*
X115950000Y-57552380D02*
X115950000Y-56552380D01*
X115950000Y-56933333D02*
X116045238Y-56885714D01*
X116235714Y-56885714D01*
X116330952Y-56933333D01*
X116378571Y-56980952D01*
X116426190Y-57076190D01*
X116426190Y-57361904D01*
X116378571Y-57457142D01*
X116330952Y-57504761D01*
X116235714Y-57552380D01*
X116045238Y-57552380D01*
X115950000Y-57504761D01*
X116854761Y-57552380D02*
X116854761Y-56552380D01*
X116854761Y-56933333D02*
X116950000Y-56885714D01*
X117140476Y-56885714D01*
X117235714Y-56933333D01*
X117283333Y-56980952D01*
X117330952Y-57076190D01*
X117330952Y-57361904D01*
X117283333Y-57457142D01*
X117235714Y-57504761D01*
X117140476Y-57552380D01*
X116950000Y-57552380D01*
X116854761Y-57504761D01*
X117664285Y-56885714D02*
X117902380Y-57552380D01*
X118140476Y-56885714D02*
X117902380Y-57552380D01*
X117807142Y-57790476D01*
X117759523Y-57838095D01*
X117664285Y-57885714D01*
X119235714Y-57504761D02*
X119378571Y-57552380D01*
X119616666Y-57552380D01*
X119711904Y-57504761D01*
X119759523Y-57457142D01*
X119807142Y-57361904D01*
X119807142Y-57266666D01*
X119759523Y-57171428D01*
X119711904Y-57123809D01*
X119616666Y-57076190D01*
X119426190Y-57028571D01*
X119330952Y-56980952D01*
X119283333Y-56933333D01*
X119235714Y-56838095D01*
X119235714Y-56742857D01*
X119283333Y-56647619D01*
X119330952Y-56600000D01*
X119426190Y-56552380D01*
X119664285Y-56552380D01*
X119807142Y-56600000D01*
X120235714Y-56885714D02*
X120235714Y-57885714D01*
X120235714Y-56933333D02*
X120330952Y-56885714D01*
X120521428Y-56885714D01*
X120616666Y-56933333D01*
X120664285Y-56980952D01*
X120711904Y-57076190D01*
X120711904Y-57361904D01*
X120664285Y-57457142D01*
X120616666Y-57504761D01*
X120521428Y-57552380D01*
X120330952Y-57552380D01*
X120235714Y-57504761D01*
X121140476Y-57552380D02*
X121140476Y-56885714D01*
X121140476Y-57076190D02*
X121188095Y-56980952D01*
X121235714Y-56933333D01*
X121330952Y-56885714D01*
X121426190Y-56885714D01*
X121902380Y-57552380D02*
X121807142Y-57504761D01*
X121759523Y-57409523D01*
X121759523Y-56552380D01*
D12*
X104502380Y-68254761D02*
X103502380Y-68254761D01*
X103502380Y-67873809D01*
X103550000Y-67778571D01*
X103597619Y-67730952D01*
X103692857Y-67683333D01*
X103835714Y-67683333D01*
X103930952Y-67730952D01*
X103978571Y-67778571D01*
X104026190Y-67873809D01*
X104026190Y-68254761D01*
X104502380Y-66826190D02*
X103978571Y-66826190D01*
X103883333Y-66873809D01*
X103835714Y-66969047D01*
X103835714Y-67159523D01*
X103883333Y-67254761D01*
X104454761Y-66826190D02*
X104502380Y-66921428D01*
X104502380Y-67159523D01*
X104454761Y-67254761D01*
X104359523Y-67302380D01*
X104264285Y-67302380D01*
X104169047Y-67254761D01*
X104121428Y-67159523D01*
X104121428Y-66921428D01*
X104073809Y-66826190D01*
X104502380Y-66350000D02*
X103835714Y-66350000D01*
X104026190Y-66350000D02*
X103930952Y-66302380D01*
X103883333Y-66254761D01*
X103835714Y-66159523D01*
X103835714Y-66064285D01*
X104502380Y-65302380D02*
X103978571Y-65302380D01*
X103883333Y-65350000D01*
X103835714Y-65445238D01*
X103835714Y-65635714D01*
X103883333Y-65730952D01*
X104454761Y-65302380D02*
X104502380Y-65397619D01*
X104502380Y-65635714D01*
X104454761Y-65730952D01*
X104359523Y-65778571D01*
X104264285Y-65778571D01*
X104169047Y-65730952D01*
X104121428Y-65635714D01*
X104121428Y-65397619D01*
X104073809Y-65302380D01*
X104502380Y-64683333D02*
X104454761Y-64778571D01*
X104359523Y-64826190D01*
X103502380Y-64826190D01*
X104502380Y-64159523D02*
X104454761Y-64254761D01*
X104359523Y-64302380D01*
X103502380Y-64302380D01*
X104454761Y-63397619D02*
X104502380Y-63492857D01*
X104502380Y-63683333D01*
X104454761Y-63778571D01*
X104359523Y-63826190D01*
X103978571Y-63826190D01*
X103883333Y-63778571D01*
X103835714Y-63683333D01*
X103835714Y-63492857D01*
X103883333Y-63397619D01*
X103978571Y-63350000D01*
X104073809Y-63350000D01*
X104169047Y-63826190D01*
X104502380Y-62778571D02*
X104454761Y-62873809D01*
X104359523Y-62921428D01*
X103502380Y-62921428D01*
X104502380Y-61635714D02*
X103502380Y-61635714D01*
X103502380Y-61397619D01*
X103550000Y-61254761D01*
X103645238Y-61159523D01*
X103740476Y-61111904D01*
X103930952Y-61064285D01*
X104073809Y-61064285D01*
X104264285Y-61111904D01*
X104359523Y-61159523D01*
X104454761Y-61254761D01*
X104502380Y-61397619D01*
X104502380Y-61635714D01*
X103978571Y-60302380D02*
X104026190Y-60159523D01*
X104073809Y-60111904D01*
X104169047Y-60064285D01*
X104311904Y-60064285D01*
X104407142Y-60111904D01*
X104454761Y-60159523D01*
X104502380Y-60254761D01*
X104502380Y-60635714D01*
X103502380Y-60635714D01*
X103502380Y-60302380D01*
X103550000Y-60207142D01*
X103597619Y-60159523D01*
X103692857Y-60111904D01*
X103788095Y-60111904D01*
X103883333Y-60159523D01*
X103930952Y-60207142D01*
X103978571Y-60302380D01*
X103978571Y-60635714D01*
X103597619Y-59683333D02*
X103550000Y-59635714D01*
X103502380Y-59540476D01*
X103502380Y-59302380D01*
X103550000Y-59207142D01*
X103597619Y-59159523D01*
X103692857Y-59111904D01*
X103788095Y-59111904D01*
X103930952Y-59159523D01*
X104502380Y-59730952D01*
X104502380Y-59111904D01*
X103502380Y-58207142D02*
X103502380Y-58683333D01*
X103978571Y-58730952D01*
X103930952Y-58683333D01*
X103883333Y-58588095D01*
X103883333Y-58350000D01*
X103930952Y-58254761D01*
X103978571Y-58207142D01*
X104073809Y-58159523D01*
X104311904Y-58159523D01*
X104407142Y-58207142D01*
X104454761Y-58254761D01*
X104502380Y-58350000D01*
X104502380Y-58588095D01*
X104454761Y-58683333D01*
X104407142Y-58730952D01*
D10*
X103197619Y-48011904D02*
X103150000Y-47964285D01*
X103102380Y-47869047D01*
X103102380Y-47630952D01*
X103150000Y-47535714D01*
X103197619Y-47488095D01*
X103292857Y-47440476D01*
X103388095Y-47440476D01*
X103530952Y-47488095D01*
X104102380Y-48059523D01*
X104102380Y-47440476D01*
X103102380Y-46535714D02*
X103102380Y-47011904D01*
X103578571Y-47059523D01*
X103530952Y-47011904D01*
X103483333Y-46916666D01*
X103483333Y-46678571D01*
X103530952Y-46583333D01*
X103578571Y-46535714D01*
X103673809Y-46488095D01*
X103911904Y-46488095D01*
X104007142Y-46535714D01*
X104054761Y-46583333D01*
X104102380Y-46678571D01*
X104102380Y-46916666D01*
X104054761Y-47011904D01*
X104007142Y-47059523D01*
X104102380Y-77740476D02*
X104102380Y-78311904D01*
X104102380Y-78026190D02*
X103102380Y-78026190D01*
X103245238Y-78121428D01*
X103340476Y-78216666D01*
X103388095Y-78311904D01*
X103435714Y-76883333D02*
X104102380Y-76883333D01*
X103054761Y-77121428D02*
X103769047Y-77359523D01*
X103769047Y-76740476D01*
X125109523Y-45452380D02*
X124633333Y-45452380D01*
X124585714Y-45928571D01*
X124633333Y-45880952D01*
X124728571Y-45833333D01*
X124966666Y-45833333D01*
X125061904Y-45880952D01*
X125109523Y-45928571D01*
X125157142Y-46023809D01*
X125157142Y-46261904D01*
X125109523Y-46357142D01*
X125061904Y-46404761D01*
X124966666Y-46452380D01*
X124728571Y-46452380D01*
X124633333Y-46404761D01*
X124585714Y-46357142D01*
X125442857Y-45452380D02*
X125776190Y-46452380D01*
X126109523Y-45452380D01*
X125088095Y-48150000D02*
X124992857Y-48102380D01*
X124850000Y-48102380D01*
X124707142Y-48150000D01*
X124611904Y-48245238D01*
X124564285Y-48340476D01*
X124516666Y-48530952D01*
X124516666Y-48673809D01*
X124564285Y-48864285D01*
X124611904Y-48959523D01*
X124707142Y-49054761D01*
X124850000Y-49102380D01*
X124945238Y-49102380D01*
X125088095Y-49054761D01*
X125135714Y-49007142D01*
X125135714Y-48673809D01*
X124945238Y-48673809D01*
X125564285Y-49102380D02*
X125564285Y-48102380D01*
X126135714Y-49102380D01*
X126135714Y-48102380D01*
X126611904Y-49102380D02*
X126611904Y-48102380D01*
X126850000Y-48102380D01*
X126992857Y-48150000D01*
X127088095Y-48245238D01*
X127135714Y-48340476D01*
X127183333Y-48530952D01*
X127183333Y-48673809D01*
X127135714Y-48864285D01*
X127088095Y-48959523D01*
X126992857Y-49054761D01*
X126850000Y-49102380D01*
X126611904Y-49102380D01*
D13*
X112650000Y-48500000D02*
X123000000Y-48500000D01*
X163000000Y-46700000D02*
X163000000Y-57050000D01*
D10*
X160180952Y-57435714D02*
X160133333Y-57530952D01*
X160085714Y-57578571D01*
X159990476Y-57626190D01*
X159942857Y-57626190D01*
X159847619Y-57578571D01*
X159800000Y-57530952D01*
X159752380Y-57435714D01*
X159752380Y-57245238D01*
X159800000Y-57150000D01*
X159847619Y-57102380D01*
X159942857Y-57054761D01*
X159990476Y-57054761D01*
X160085714Y-57102380D01*
X160133333Y-57150000D01*
X160180952Y-57245238D01*
X160180952Y-57435714D01*
X160228571Y-57530952D01*
X160276190Y-57578571D01*
X160371428Y-57626190D01*
X160561904Y-57626190D01*
X160657142Y-57578571D01*
X160704761Y-57530952D01*
X160752380Y-57435714D01*
X160752380Y-57245238D01*
X160704761Y-57150000D01*
X160657142Y-57102380D01*
X160561904Y-57054761D01*
X160371428Y-57054761D01*
X160276190Y-57102380D01*
X160228571Y-57150000D01*
X160180952Y-57245238D01*
X159752380Y-56435714D02*
X159752380Y-56340476D01*
X159800000Y-56245238D01*
X159847619Y-56197619D01*
X159942857Y-56150000D01*
X160133333Y-56102380D01*
X160371428Y-56102380D01*
X160561904Y-56150000D01*
X160657142Y-56197619D01*
X160704761Y-56245238D01*
X160752380Y-56340476D01*
X160752380Y-56435714D01*
X160704761Y-56530952D01*
X160657142Y-56578571D01*
X160561904Y-56626190D01*
X160371428Y-56673809D01*
X160133333Y-56673809D01*
X159942857Y-56626190D01*
X159847619Y-56578571D01*
X159800000Y-56530952D01*
X159752380Y-56435714D01*
X159752380Y-55483333D02*
X159752380Y-55388095D01*
X159800000Y-55292857D01*
X159847619Y-55245238D01*
X159942857Y-55197619D01*
X160133333Y-55150000D01*
X160371428Y-55150000D01*
X160561904Y-55197619D01*
X160657142Y-55245238D01*
X160704761Y-55292857D01*
X160752380Y-55388095D01*
X160752380Y-55483333D01*
X160704761Y-55578571D01*
X160657142Y-55626190D01*
X160561904Y-55673809D01*
X160371428Y-55721428D01*
X160133333Y-55721428D01*
X159942857Y-55673809D01*
X159847619Y-55626190D01*
X159800000Y-55578571D01*
X159752380Y-55483333D01*
X160752380Y-54721428D02*
X160085714Y-54721428D01*
X160180952Y-54721428D02*
X160133333Y-54673809D01*
X160085714Y-54578571D01*
X160085714Y-54435714D01*
X160133333Y-54340476D01*
X160228571Y-54292857D01*
X160752380Y-54292857D01*
X160228571Y-54292857D02*
X160133333Y-54245238D01*
X160085714Y-54150000D01*
X160085714Y-54007142D01*
X160133333Y-53911904D01*
X160228571Y-53864285D01*
X160752380Y-53864285D01*
X160466666Y-53435714D02*
X160466666Y-52959523D01*
X160752380Y-53530952D02*
X159752380Y-53197619D01*
X160752380Y-52864285D01*
X160752380Y-51769047D02*
X160085714Y-51769047D01*
X160180952Y-51769047D02*
X160133333Y-51721428D01*
X160085714Y-51626190D01*
X160085714Y-51483333D01*
X160133333Y-51388095D01*
X160228571Y-51340476D01*
X160752380Y-51340476D01*
X160228571Y-51340476D02*
X160133333Y-51292857D01*
X160085714Y-51197619D01*
X160085714Y-51054761D01*
X160133333Y-50959523D01*
X160228571Y-50911904D01*
X160752380Y-50911904D01*
X160752380Y-50007142D02*
X160228571Y-50007142D01*
X160133333Y-50054761D01*
X160085714Y-50150000D01*
X160085714Y-50340476D01*
X160133333Y-50435714D01*
X160704761Y-50007142D02*
X160752380Y-50102380D01*
X160752380Y-50340476D01*
X160704761Y-50435714D01*
X160609523Y-50483333D01*
X160514285Y-50483333D01*
X160419047Y-50435714D01*
X160371428Y-50340476D01*
X160371428Y-50102380D01*
X160323809Y-50007142D01*
X160752380Y-49626190D02*
X160085714Y-49102380D01*
X160085714Y-49626190D02*
X160752380Y-49102380D01*
X160657142Y-48721428D02*
X160704761Y-48673809D01*
X160752380Y-48721428D01*
X160704761Y-48769047D01*
X160657142Y-48721428D01*
X160752380Y-48721428D01*
X160371428Y-48721428D02*
X159800000Y-48769047D01*
X159752380Y-48721428D01*
X159800000Y-48673809D01*
X160371428Y-48721428D01*
X159752380Y-48721428D01*
X165052380Y-60988095D02*
X165052380Y-60369047D01*
X165433333Y-60702380D01*
X165433333Y-60559523D01*
X165480952Y-60464285D01*
X165528571Y-60416666D01*
X165623809Y-60369047D01*
X165861904Y-60369047D01*
X165957142Y-60416666D01*
X166004761Y-60464285D01*
X166052380Y-60559523D01*
X166052380Y-60845238D01*
X166004761Y-60940476D01*
X165957142Y-60988095D01*
X165052380Y-60083333D02*
X166052380Y-59750000D01*
X165052380Y-59416666D01*
X165052380Y-59178571D02*
X165052380Y-58559523D01*
X165433333Y-58892857D01*
X165433333Y-58750000D01*
X165480952Y-58654761D01*
X165528571Y-58607142D01*
X165623809Y-58559523D01*
X165861904Y-58559523D01*
X165957142Y-58607142D01*
X166004761Y-58654761D01*
X166052380Y-58750000D01*
X166052380Y-59035714D01*
X166004761Y-59130952D01*
X165957142Y-59178571D01*
X162550000Y-60461904D02*
X162502380Y-60557142D01*
X162502380Y-60700000D01*
X162550000Y-60842857D01*
X162645238Y-60938095D01*
X162740476Y-60985714D01*
X162930952Y-61033333D01*
X163073809Y-61033333D01*
X163264285Y-60985714D01*
X163359523Y-60938095D01*
X163454761Y-60842857D01*
X163502380Y-60700000D01*
X163502380Y-60604761D01*
X163454761Y-60461904D01*
X163407142Y-60414285D01*
X163073809Y-60414285D01*
X163073809Y-60604761D01*
X163502380Y-59985714D02*
X162502380Y-59985714D01*
X163502380Y-59414285D01*
X162502380Y-59414285D01*
X163502380Y-58938095D02*
X162502380Y-58938095D01*
X162502380Y-58700000D01*
X162550000Y-58557142D01*
X162645238Y-58461904D01*
X162740476Y-58414285D01*
X162930952Y-58366666D01*
X163073809Y-58366666D01*
X163264285Y-58414285D01*
X163359523Y-58461904D01*
X163454761Y-58557142D01*
X163502380Y-58700000D01*
X163502380Y-58938095D01*
X148854761Y-44952380D02*
X148378571Y-44952380D01*
X148378571Y-43952380D01*
X149188095Y-44952380D02*
X149188095Y-43952380D01*
X149426190Y-43952380D01*
X149569047Y-44000000D01*
X149664285Y-44095238D01*
X149711904Y-44190476D01*
X149759523Y-44380952D01*
X149759523Y-44523809D01*
X149711904Y-44714285D01*
X149664285Y-44809523D01*
X149569047Y-44904761D01*
X149426190Y-44952380D01*
X149188095Y-44952380D01*
X150711904Y-44952380D02*
X150140476Y-44952380D01*
X150426190Y-44952380D02*
X150426190Y-43952380D01*
X150330952Y-44095238D01*
X150235714Y-44190476D01*
X150140476Y-44238095D01*
X151664285Y-44952380D02*
X151092857Y-44952380D01*
X151378571Y-44952380D02*
X151378571Y-43952380D01*
X151283333Y-44095238D01*
X151188095Y-44190476D01*
X151092857Y-44238095D01*
X152616666Y-44952380D02*
X152045238Y-44952380D01*
X152330952Y-44952380D02*
X152330952Y-43952380D01*
X152235714Y-44095238D01*
X152140476Y-44190476D01*
X152045238Y-44238095D01*
X152950000Y-43952380D02*
X153616666Y-43952380D01*
X153188095Y-44952380D01*
X140828571Y-50802380D02*
X140257142Y-50802380D01*
X140542857Y-50802380D02*
X140542857Y-49802380D01*
X140447619Y-49945238D01*
X140352380Y-50040476D01*
X140257142Y-50088095D01*
X141447619Y-49802380D02*
X141542857Y-49802380D01*
X141638095Y-49850000D01*
X141685714Y-49897619D01*
X141733333Y-49992857D01*
X141780952Y-50183333D01*
X141780952Y-50421428D01*
X141733333Y-50611904D01*
X141685714Y-50707142D01*
X141638095Y-50754761D01*
X141542857Y-50802380D01*
X141447619Y-50802380D01*
X141352380Y-50754761D01*
X141304761Y-50707142D01*
X141257142Y-50611904D01*
X141209523Y-50421428D01*
X141209523Y-50183333D01*
X141257142Y-49992857D01*
X141304761Y-49897619D01*
X141352380Y-49850000D01*
X141447619Y-49802380D01*
X142638095Y-50135714D02*
X142638095Y-50802380D01*
X142209523Y-50135714D02*
X142209523Y-50659523D01*
X142257142Y-50754761D01*
X142352380Y-50802380D01*
X142495238Y-50802380D01*
X142590476Y-50754761D01*
X142638095Y-50707142D01*
X143447619Y-50278571D02*
X143114285Y-50278571D01*
X143114285Y-50802380D02*
X143114285Y-49802380D01*
X143590476Y-49802380D01*
X110661904Y-78802380D02*
X111280952Y-78802380D01*
X110947619Y-79183333D01*
X111090476Y-79183333D01*
X111185714Y-79230952D01*
X111233333Y-79278571D01*
X111280952Y-79373809D01*
X111280952Y-79611904D01*
X111233333Y-79707142D01*
X111185714Y-79754761D01*
X111090476Y-79802380D01*
X110804761Y-79802380D01*
X110709523Y-79754761D01*
X110661904Y-79707142D01*
X111566666Y-78802380D02*
X111900000Y-79802380D01*
X112233333Y-78802380D01*
X112471428Y-78802380D02*
X113090476Y-78802380D01*
X112757142Y-79183333D01*
X112900000Y-79183333D01*
X112995238Y-79230952D01*
X113042857Y-79278571D01*
X113090476Y-79373809D01*
X113090476Y-79611904D01*
X113042857Y-79707142D01*
X112995238Y-79754761D01*
X112900000Y-79802380D01*
X112614285Y-79802380D01*
X112519047Y-79754761D01*
X112471428Y-79707142D01*
X115552380Y-78888095D02*
X114552380Y-78888095D01*
X114552380Y-78650000D01*
X114600000Y-78507142D01*
X114695238Y-78411904D01*
X114790476Y-78364285D01*
X114980952Y-78316666D01*
X115123809Y-78316666D01*
X115314285Y-78364285D01*
X115409523Y-78411904D01*
X115504761Y-78507142D01*
X115552380Y-78650000D01*
X115552380Y-78888095D01*
X114552380Y-77697619D02*
X114552380Y-77602380D01*
X114600000Y-77507142D01*
X114647619Y-77459523D01*
X114742857Y-77411904D01*
X114933333Y-77364285D01*
X115171428Y-77364285D01*
X115361904Y-77411904D01*
X115457142Y-77459523D01*
X115504761Y-77507142D01*
X115552380Y-77602380D01*
X115552380Y-77697619D01*
X115504761Y-77792857D01*
X115457142Y-77840476D01*
X115361904Y-77888095D01*
X115171428Y-77935714D01*
X114933333Y-77935714D01*
X114742857Y-77888095D01*
X114647619Y-77840476D01*
X114600000Y-77792857D01*
X114552380Y-77697619D01*
X118002380Y-78888095D02*
X117002380Y-78888095D01*
X117002380Y-78650000D01*
X117050000Y-78507142D01*
X117145238Y-78411904D01*
X117240476Y-78364285D01*
X117430952Y-78316666D01*
X117573809Y-78316666D01*
X117764285Y-78364285D01*
X117859523Y-78411904D01*
X117954761Y-78507142D01*
X118002380Y-78650000D01*
X118002380Y-78888095D01*
X118002380Y-77364285D02*
X118002380Y-77935714D01*
X118002380Y-77650000D02*
X117002380Y-77650000D01*
X117145238Y-77745238D01*
X117240476Y-77840476D01*
X117288095Y-77935714D01*
X120752380Y-78938095D02*
X119752380Y-78938095D01*
X119752380Y-78700000D01*
X119800000Y-78557142D01*
X119895238Y-78461904D01*
X119990476Y-78414285D01*
X120180952Y-78366666D01*
X120323809Y-78366666D01*
X120514285Y-78414285D01*
X120609523Y-78461904D01*
X120704761Y-78557142D01*
X120752380Y-78700000D01*
X120752380Y-78938095D01*
X119847619Y-77985714D02*
X119800000Y-77938095D01*
X119752380Y-77842857D01*
X119752380Y-77604761D01*
X119800000Y-77509523D01*
X119847619Y-77461904D01*
X119942857Y-77414285D01*
X120038095Y-77414285D01*
X120180952Y-77461904D01*
X120752380Y-78033333D01*
X120752380Y-77414285D01*
X125802380Y-78888095D02*
X124802380Y-78888095D01*
X124802380Y-78650000D01*
X124850000Y-78507142D01*
X124945238Y-78411904D01*
X125040476Y-78364285D01*
X125230952Y-78316666D01*
X125373809Y-78316666D01*
X125564285Y-78364285D01*
X125659523Y-78411904D01*
X125754761Y-78507142D01*
X125802380Y-78650000D01*
X125802380Y-78888095D01*
X124802380Y-77983333D02*
X124802380Y-77364285D01*
X125183333Y-77697619D01*
X125183333Y-77554761D01*
X125230952Y-77459523D01*
X125278571Y-77411904D01*
X125373809Y-77364285D01*
X125611904Y-77364285D01*
X125707142Y-77411904D01*
X125754761Y-77459523D01*
X125802380Y-77554761D01*
X125802380Y-77840476D01*
X125754761Y-77935714D01*
X125707142Y-77983333D01*
X128352380Y-78938095D02*
X127352380Y-78938095D01*
X127352380Y-78700000D01*
X127400000Y-78557142D01*
X127495238Y-78461904D01*
X127590476Y-78414285D01*
X127780952Y-78366666D01*
X127923809Y-78366666D01*
X128114285Y-78414285D01*
X128209523Y-78461904D01*
X128304761Y-78557142D01*
X128352380Y-78700000D01*
X128352380Y-78938095D01*
X127685714Y-77509523D02*
X128352380Y-77509523D01*
X127304761Y-77747619D02*
X128019047Y-77985714D01*
X128019047Y-77366666D01*
X130802380Y-78888095D02*
X129802380Y-78888095D01*
X129802380Y-78650000D01*
X129850000Y-78507142D01*
X129945238Y-78411904D01*
X130040476Y-78364285D01*
X130230952Y-78316666D01*
X130373809Y-78316666D01*
X130564285Y-78364285D01*
X130659523Y-78411904D01*
X130754761Y-78507142D01*
X130802380Y-78650000D01*
X130802380Y-78888095D01*
X129802380Y-77411904D02*
X129802380Y-77888095D01*
X130278571Y-77935714D01*
X130230952Y-77888095D01*
X130183333Y-77792857D01*
X130183333Y-77554761D01*
X130230952Y-77459523D01*
X130278571Y-77411904D01*
X130373809Y-77364285D01*
X130611904Y-77364285D01*
X130707142Y-77411904D01*
X130754761Y-77459523D01*
X130802380Y-77554761D01*
X130802380Y-77792857D01*
X130754761Y-77888095D01*
X130707142Y-77935714D01*
X132402380Y-79738095D02*
X132402380Y-79119047D01*
X132783333Y-79452380D01*
X132783333Y-79309523D01*
X132830952Y-79214285D01*
X132878571Y-79166666D01*
X132973809Y-79119047D01*
X133211904Y-79119047D01*
X133307142Y-79166666D01*
X133354761Y-79214285D01*
X133402380Y-79309523D01*
X133402380Y-79595238D01*
X133354761Y-79690476D01*
X133307142Y-79738095D01*
X132402380Y-78833333D02*
X133402380Y-78500000D01*
X132402380Y-78166666D01*
X132402380Y-77928571D02*
X132402380Y-77309523D01*
X132783333Y-77642857D01*
X132783333Y-77500000D01*
X132830952Y-77404761D01*
X132878571Y-77357142D01*
X132973809Y-77309523D01*
X133211904Y-77309523D01*
X133307142Y-77357142D01*
X133354761Y-77404761D01*
X133402380Y-77500000D01*
X133402380Y-77785714D01*
X133354761Y-77880952D01*
X133307142Y-77928571D01*
X135902380Y-78888095D02*
X134902380Y-78888095D01*
X134902380Y-78650000D01*
X134950000Y-78507142D01*
X135045238Y-78411904D01*
X135140476Y-78364285D01*
X135330952Y-78316666D01*
X135473809Y-78316666D01*
X135664285Y-78364285D01*
X135759523Y-78411904D01*
X135854761Y-78507142D01*
X135902380Y-78650000D01*
X135902380Y-78888095D01*
X134902380Y-77459523D02*
X134902380Y-77650000D01*
X134950000Y-77745238D01*
X134997619Y-77792857D01*
X135140476Y-77888095D01*
X135330952Y-77935714D01*
X135711904Y-77935714D01*
X135807142Y-77888095D01*
X135854761Y-77840476D01*
X135902380Y-77745238D01*
X135902380Y-77554761D01*
X135854761Y-77459523D01*
X135807142Y-77411904D01*
X135711904Y-77364285D01*
X135473809Y-77364285D01*
X135378571Y-77411904D01*
X135330952Y-77459523D01*
X135283333Y-77554761D01*
X135283333Y-77745238D01*
X135330952Y-77840476D01*
X135378571Y-77888095D01*
X135473809Y-77935714D01*
X138552380Y-78938095D02*
X137552380Y-78938095D01*
X137552380Y-78700000D01*
X137600000Y-78557142D01*
X137695238Y-78461904D01*
X137790476Y-78414285D01*
X137980952Y-78366666D01*
X138123809Y-78366666D01*
X138314285Y-78414285D01*
X138409523Y-78461904D01*
X138504761Y-78557142D01*
X138552380Y-78700000D01*
X138552380Y-78938095D01*
X137552380Y-78033333D02*
X137552380Y-77366666D01*
X138552380Y-77795238D01*
X158657142Y-78216666D02*
X158704761Y-78264285D01*
X158752380Y-78407142D01*
X158752380Y-78502380D01*
X158704761Y-78645238D01*
X158609523Y-78740476D01*
X158514285Y-78788095D01*
X158323809Y-78835714D01*
X158180952Y-78835714D01*
X157990476Y-78788095D01*
X157895238Y-78740476D01*
X157800000Y-78645238D01*
X157752380Y-78502380D01*
X157752380Y-78407142D01*
X157800000Y-78264285D01*
X157847619Y-78216666D01*
X157752380Y-77883333D02*
X157752380Y-77264285D01*
X158133333Y-77597619D01*
X158133333Y-77454761D01*
X158180952Y-77359523D01*
X158228571Y-77311904D01*
X158323809Y-77264285D01*
X158561904Y-77264285D01*
X158657142Y-77311904D01*
X158704761Y-77359523D01*
X158752380Y-77454761D01*
X158752380Y-77740476D01*
X158704761Y-77835714D01*
X158657142Y-77883333D01*
X156007142Y-78266666D02*
X156054761Y-78314285D01*
X156102380Y-78457142D01*
X156102380Y-78552380D01*
X156054761Y-78695238D01*
X155959523Y-78790476D01*
X155864285Y-78838095D01*
X155673809Y-78885714D01*
X155530952Y-78885714D01*
X155340476Y-78838095D01*
X155245238Y-78790476D01*
X155150000Y-78695238D01*
X155102380Y-78552380D01*
X155102380Y-78457142D01*
X155150000Y-78314285D01*
X155197619Y-78266666D01*
X155197619Y-77885714D02*
X155150000Y-77838095D01*
X155102380Y-77742857D01*
X155102380Y-77504761D01*
X155150000Y-77409523D01*
X155197619Y-77361904D01*
X155292857Y-77314285D01*
X155388095Y-77314285D01*
X155530952Y-77361904D01*
X156102380Y-77933333D01*
X156102380Y-77314285D01*
X153507142Y-78216666D02*
X153554761Y-78264285D01*
X153602380Y-78407142D01*
X153602380Y-78502380D01*
X153554761Y-78645238D01*
X153459523Y-78740476D01*
X153364285Y-78788095D01*
X153173809Y-78835714D01*
X153030952Y-78835714D01*
X152840476Y-78788095D01*
X152745238Y-78740476D01*
X152650000Y-78645238D01*
X152602380Y-78502380D01*
X152602380Y-78407142D01*
X152650000Y-78264285D01*
X152697619Y-78216666D01*
X153602380Y-77264285D02*
X153602380Y-77835714D01*
X153602380Y-77550000D02*
X152602380Y-77550000D01*
X152745238Y-77645238D01*
X152840476Y-77740476D01*
X152888095Y-77835714D01*
X151007142Y-78266666D02*
X151054761Y-78314285D01*
X151102380Y-78457142D01*
X151102380Y-78552380D01*
X151054761Y-78695238D01*
X150959523Y-78790476D01*
X150864285Y-78838095D01*
X150673809Y-78885714D01*
X150530952Y-78885714D01*
X150340476Y-78838095D01*
X150245238Y-78790476D01*
X150150000Y-78695238D01*
X150102380Y-78552380D01*
X150102380Y-78457142D01*
X150150000Y-78314285D01*
X150197619Y-78266666D01*
X150102380Y-77647619D02*
X150102380Y-77552380D01*
X150150000Y-77457142D01*
X150197619Y-77409523D01*
X150292857Y-77361904D01*
X150483333Y-77314285D01*
X150721428Y-77314285D01*
X150911904Y-77361904D01*
X151007142Y-77409523D01*
X151054761Y-77457142D01*
X151102380Y-77552380D01*
X151102380Y-77647619D01*
X151054761Y-77742857D01*
X151007142Y-77790476D01*
X150911904Y-77838095D01*
X150721428Y-77885714D01*
X150483333Y-77885714D01*
X150292857Y-77838095D01*
X150197619Y-77790476D01*
X150150000Y-77742857D01*
X150102380Y-77647619D01*
X160350000Y-79361904D02*
X160302380Y-79457142D01*
X160302380Y-79600000D01*
X160350000Y-79742857D01*
X160445238Y-79838095D01*
X160540476Y-79885714D01*
X160730952Y-79933333D01*
X160873809Y-79933333D01*
X161064285Y-79885714D01*
X161159523Y-79838095D01*
X161254761Y-79742857D01*
X161302380Y-79600000D01*
X161302380Y-79504761D01*
X161254761Y-79361904D01*
X161207142Y-79314285D01*
X160873809Y-79314285D01*
X160873809Y-79504761D01*
X161302380Y-78885714D02*
X160302380Y-78885714D01*
X161302380Y-78314285D01*
X160302380Y-78314285D01*
X161302380Y-77838095D02*
X160302380Y-77838095D01*
X160302380Y-77600000D01*
X160350000Y-77457142D01*
X160445238Y-77361904D01*
X160540476Y-77314285D01*
X160730952Y-77266666D01*
X160873809Y-77266666D01*
X161064285Y-77314285D01*
X161159523Y-77361904D01*
X161254761Y-77457142D01*
X161302380Y-77600000D01*
X161302380Y-77838095D01*
X142500000Y-79411904D02*
X142452380Y-79507142D01*
X142452380Y-79650000D01*
X142500000Y-79792857D01*
X142595238Y-79888095D01*
X142690476Y-79935714D01*
X142880952Y-79983333D01*
X143023809Y-79983333D01*
X143214285Y-79935714D01*
X143309523Y-79888095D01*
X143404761Y-79792857D01*
X143452380Y-79650000D01*
X143452380Y-79554761D01*
X143404761Y-79411904D01*
X143357142Y-79364285D01*
X143023809Y-79364285D01*
X143023809Y-79554761D01*
X143452380Y-78935714D02*
X142452380Y-78935714D01*
X143452380Y-78364285D01*
X142452380Y-78364285D01*
X143452380Y-77888095D02*
X142452380Y-77888095D01*
X142452380Y-77650000D01*
X142500000Y-77507142D01*
X142595238Y-77411904D01*
X142690476Y-77364285D01*
X142880952Y-77316666D01*
X143023809Y-77316666D01*
X143214285Y-77364285D01*
X143309523Y-77411904D01*
X143404761Y-77507142D01*
X143452380Y-77650000D01*
X143452380Y-77888095D01*
X122350000Y-79311904D02*
X122302380Y-79407142D01*
X122302380Y-79550000D01*
X122350000Y-79692857D01*
X122445238Y-79788095D01*
X122540476Y-79835714D01*
X122730952Y-79883333D01*
X122873809Y-79883333D01*
X123064285Y-79835714D01*
X123159523Y-79788095D01*
X123254761Y-79692857D01*
X123302380Y-79550000D01*
X123302380Y-79454761D01*
X123254761Y-79311904D01*
X123207142Y-79264285D01*
X122873809Y-79264285D01*
X122873809Y-79454761D01*
X123302380Y-78835714D02*
X122302380Y-78835714D01*
X123302380Y-78264285D01*
X122302380Y-78264285D01*
X123302380Y-77788095D02*
X122302380Y-77788095D01*
X122302380Y-77550000D01*
X122350000Y-77407142D01*
X122445238Y-77311904D01*
X122540476Y-77264285D01*
X122730952Y-77216666D01*
X122873809Y-77216666D01*
X123064285Y-77264285D01*
X123159523Y-77311904D01*
X123254761Y-77407142D01*
X123302380Y-77550000D01*
X123302380Y-77788095D01*
X134900000Y-66911904D02*
X134852380Y-67007142D01*
X134852380Y-67150000D01*
X134900000Y-67292857D01*
X134995238Y-67388095D01*
X135090476Y-67435714D01*
X135280952Y-67483333D01*
X135423809Y-67483333D01*
X135614285Y-67435714D01*
X135709523Y-67388095D01*
X135804761Y-67292857D01*
X135852380Y-67150000D01*
X135852380Y-67054761D01*
X135804761Y-66911904D01*
X135757142Y-66864285D01*
X135423809Y-66864285D01*
X135423809Y-67054761D01*
X135852380Y-66435714D02*
X134852380Y-66435714D01*
X135852380Y-65864285D01*
X134852380Y-65864285D01*
X135852380Y-65388095D02*
X134852380Y-65388095D01*
X134852380Y-65150000D01*
X134900000Y-65007142D01*
X134995238Y-64911904D01*
X135090476Y-64864285D01*
X135280952Y-64816666D01*
X135423809Y-64816666D01*
X135614285Y-64864285D01*
X135709523Y-64911904D01*
X135804761Y-65007142D01*
X135852380Y-65150000D01*
X135852380Y-65388095D01*
X127350000Y-66961904D02*
X127302380Y-67057142D01*
X127302380Y-67200000D01*
X127350000Y-67342857D01*
X127445238Y-67438095D01*
X127540476Y-67485714D01*
X127730952Y-67533333D01*
X127873809Y-67533333D01*
X128064285Y-67485714D01*
X128159523Y-67438095D01*
X128254761Y-67342857D01*
X128302380Y-67200000D01*
X128302380Y-67104761D01*
X128254761Y-66961904D01*
X128207142Y-66914285D01*
X127873809Y-66914285D01*
X127873809Y-67104761D01*
X128302380Y-66485714D02*
X127302380Y-66485714D01*
X128302380Y-65914285D01*
X127302380Y-65914285D01*
X128302380Y-65438095D02*
X127302380Y-65438095D01*
X127302380Y-65200000D01*
X127350000Y-65057142D01*
X127445238Y-64961904D01*
X127540476Y-64914285D01*
X127730952Y-64866666D01*
X127873809Y-64866666D01*
X128064285Y-64914285D01*
X128159523Y-64961904D01*
X128254761Y-65057142D01*
X128302380Y-65200000D01*
X128302380Y-65438095D01*
X117050000Y-66938095D02*
X117002380Y-67033333D01*
X117002380Y-67176190D01*
X117050000Y-67319047D01*
X117145238Y-67414285D01*
X117240476Y-67461904D01*
X117430952Y-67509523D01*
X117573809Y-67509523D01*
X117764285Y-67461904D01*
X117859523Y-67414285D01*
X117954761Y-67319047D01*
X118002380Y-67176190D01*
X118002380Y-67080952D01*
X117954761Y-66938095D01*
X117907142Y-66890476D01*
X117573809Y-66890476D01*
X117573809Y-67080952D01*
X114552380Y-66340476D02*
X114552380Y-66816666D01*
X115028571Y-66864285D01*
X114980952Y-66816666D01*
X114933333Y-66721428D01*
X114933333Y-66483333D01*
X114980952Y-66388095D01*
X115028571Y-66340476D01*
X115123809Y-66292857D01*
X115361904Y-66292857D01*
X115457142Y-66340476D01*
X115504761Y-66388095D01*
X115552380Y-66483333D01*
X115552380Y-66721428D01*
X115504761Y-66816666D01*
X115457142Y-66864285D01*
X114552380Y-66007142D02*
X115552380Y-65673809D01*
X114552380Y-65340476D01*
X111952380Y-66990476D02*
X111952380Y-67466666D01*
X112428571Y-67514285D01*
X112380952Y-67466666D01*
X112333333Y-67371428D01*
X112333333Y-67133333D01*
X112380952Y-67038095D01*
X112428571Y-66990476D01*
X112523809Y-66942857D01*
X112761904Y-66942857D01*
X112857142Y-66990476D01*
X112904761Y-67038095D01*
X112952380Y-67133333D01*
X112952380Y-67371428D01*
X112904761Y-67466666D01*
X112857142Y-67514285D01*
X111952380Y-66657142D02*
X112952380Y-66323809D01*
X111952380Y-65990476D01*
X146054761Y-67461904D02*
X146102380Y-67319047D01*
X146102380Y-67080952D01*
X146054761Y-66985714D01*
X146007142Y-66938095D01*
X145911904Y-66890476D01*
X145816666Y-66890476D01*
X145721428Y-66938095D01*
X145673809Y-66985714D01*
X145626190Y-67080952D01*
X145578571Y-67271428D01*
X145530952Y-67366666D01*
X145483333Y-67414285D01*
X145388095Y-67461904D01*
X145292857Y-67461904D01*
X145197619Y-67414285D01*
X145150000Y-67366666D01*
X145102380Y-67271428D01*
X145102380Y-67033333D01*
X145150000Y-66890476D01*
X145102380Y-66557142D02*
X145102380Y-65938095D01*
X145483333Y-66271428D01*
X145483333Y-66128571D01*
X145530952Y-66033333D01*
X145578571Y-65985714D01*
X145673809Y-65938095D01*
X145911904Y-65938095D01*
X146007142Y-65985714D01*
X146054761Y-66033333D01*
X146102380Y-66128571D01*
X146102380Y-66414285D01*
X146054761Y-66509523D01*
X146007142Y-66557142D01*
X147450000Y-66961904D02*
X147402380Y-67057142D01*
X147402380Y-67200000D01*
X147450000Y-67342857D01*
X147545238Y-67438095D01*
X147640476Y-67485714D01*
X147830952Y-67533333D01*
X147973809Y-67533333D01*
X148164285Y-67485714D01*
X148259523Y-67438095D01*
X148354761Y-67342857D01*
X148402380Y-67200000D01*
X148402380Y-67104761D01*
X148354761Y-66961904D01*
X148307142Y-66914285D01*
X147973809Y-66914285D01*
X147973809Y-67104761D01*
X148402380Y-66485714D02*
X147402380Y-66485714D01*
X148402380Y-65914285D01*
X147402380Y-65914285D01*
X148402380Y-65438095D02*
X147402380Y-65438095D01*
X147402380Y-65200000D01*
X147450000Y-65057142D01*
X147545238Y-64961904D01*
X147640476Y-64914285D01*
X147830952Y-64866666D01*
X147973809Y-64866666D01*
X148164285Y-64914285D01*
X148259523Y-64961904D01*
X148354761Y-65057142D01*
X148402380Y-65200000D01*
X148402380Y-65438095D01*
X151154761Y-67461904D02*
X151202380Y-67319047D01*
X151202380Y-67080952D01*
X151154761Y-66985714D01*
X151107142Y-66938095D01*
X151011904Y-66890476D01*
X150916666Y-66890476D01*
X150821428Y-66938095D01*
X150773809Y-66985714D01*
X150726190Y-67080952D01*
X150678571Y-67271428D01*
X150630952Y-67366666D01*
X150583333Y-67414285D01*
X150488095Y-67461904D01*
X150392857Y-67461904D01*
X150297619Y-67414285D01*
X150250000Y-67366666D01*
X150202380Y-67271428D01*
X150202380Y-67033333D01*
X150250000Y-66890476D01*
X150535714Y-66033333D02*
X151202380Y-66033333D01*
X150154761Y-66271428D02*
X150869047Y-66509523D01*
X150869047Y-65890476D01*
X152800000Y-66961904D02*
X152752380Y-67057142D01*
X152752380Y-67200000D01*
X152800000Y-67342857D01*
X152895238Y-67438095D01*
X152990476Y-67485714D01*
X153180952Y-67533333D01*
X153323809Y-67533333D01*
X153514285Y-67485714D01*
X153609523Y-67438095D01*
X153704761Y-67342857D01*
X153752380Y-67200000D01*
X153752380Y-67104761D01*
X153704761Y-66961904D01*
X153657142Y-66914285D01*
X153323809Y-66914285D01*
X153323809Y-67104761D01*
X153752380Y-66485714D02*
X152752380Y-66485714D01*
X153752380Y-65914285D01*
X152752380Y-65914285D01*
X153752380Y-65438095D02*
X152752380Y-65438095D01*
X152752380Y-65200000D01*
X152800000Y-65057142D01*
X152895238Y-64961904D01*
X152990476Y-64914285D01*
X153180952Y-64866666D01*
X153323809Y-64866666D01*
X153514285Y-64914285D01*
X153609523Y-64961904D01*
X153704761Y-65057142D01*
X153752380Y-65200000D01*
X153752380Y-65438095D01*
X156254761Y-67461904D02*
X156302380Y-67319047D01*
X156302380Y-67080952D01*
X156254761Y-66985714D01*
X156207142Y-66938095D01*
X156111904Y-66890476D01*
X156016666Y-66890476D01*
X155921428Y-66938095D01*
X155873809Y-66985714D01*
X155826190Y-67080952D01*
X155778571Y-67271428D01*
X155730952Y-67366666D01*
X155683333Y-67414285D01*
X155588095Y-67461904D01*
X155492857Y-67461904D01*
X155397619Y-67414285D01*
X155350000Y-67366666D01*
X155302380Y-67271428D01*
X155302380Y-67033333D01*
X155350000Y-66890476D01*
X155302380Y-65985714D02*
X155302380Y-66461904D01*
X155778571Y-66509523D01*
X155730952Y-66461904D01*
X155683333Y-66366666D01*
X155683333Y-66128571D01*
X155730952Y-66033333D01*
X155778571Y-65985714D01*
X155873809Y-65938095D01*
X156111904Y-65938095D01*
X156207142Y-65985714D01*
X156254761Y-66033333D01*
X156302380Y-66128571D01*
X156302380Y-66366666D01*
X156254761Y-66461904D01*
X156207142Y-66509523D01*
X158654761Y-67461904D02*
X158702380Y-67319047D01*
X158702380Y-67080952D01*
X158654761Y-66985714D01*
X158607142Y-66938095D01*
X158511904Y-66890476D01*
X158416666Y-66890476D01*
X158321428Y-66938095D01*
X158273809Y-66985714D01*
X158226190Y-67080952D01*
X158178571Y-67271428D01*
X158130952Y-67366666D01*
X158083333Y-67414285D01*
X157988095Y-67461904D01*
X157892857Y-67461904D01*
X157797619Y-67414285D01*
X157750000Y-67366666D01*
X157702380Y-67271428D01*
X157702380Y-67033333D01*
X157750000Y-66890476D01*
X157702380Y-66033333D02*
X157702380Y-66223809D01*
X157750000Y-66319047D01*
X157797619Y-66366666D01*
X157940476Y-66461904D01*
X158130952Y-66509523D01*
X158511904Y-66509523D01*
X158607142Y-66461904D01*
X158654761Y-66414285D01*
X158702380Y-66319047D01*
X158702380Y-66128571D01*
X158654761Y-66033333D01*
X158607142Y-65985714D01*
X158511904Y-65938095D01*
X158273809Y-65938095D01*
X158178571Y-65985714D01*
X158130952Y-66033333D01*
X158083333Y-66128571D01*
X158083333Y-66319047D01*
X158130952Y-66414285D01*
X158178571Y-66461904D01*
X158273809Y-66509523D01*
X161404761Y-67461904D02*
X161452380Y-67319047D01*
X161452380Y-67080952D01*
X161404761Y-66985714D01*
X161357142Y-66938095D01*
X161261904Y-66890476D01*
X161166666Y-66890476D01*
X161071428Y-66938095D01*
X161023809Y-66985714D01*
X160976190Y-67080952D01*
X160928571Y-67271428D01*
X160880952Y-67366666D01*
X160833333Y-67414285D01*
X160738095Y-67461904D01*
X160642857Y-67461904D01*
X160547619Y-67414285D01*
X160500000Y-67366666D01*
X160452380Y-67271428D01*
X160452380Y-67033333D01*
X160500000Y-66890476D01*
X160452380Y-66557142D02*
X160452380Y-65890476D01*
X161452380Y-66319047D01*
X131052380Y-56552380D02*
X130480952Y-56552380D01*
X130766666Y-56552380D02*
X130766666Y-55552380D01*
X130671428Y-55695238D01*
X130576190Y-55790476D01*
X130480952Y-55838095D01*
X131671428Y-55552380D02*
X131766666Y-55552380D01*
X131861904Y-55600000D01*
X131909523Y-55647619D01*
X131957142Y-55742857D01*
X132004761Y-55933333D01*
X132004761Y-56171428D01*
X131957142Y-56361904D01*
X131909523Y-56457142D01*
X131861904Y-56504761D01*
X131766666Y-56552380D01*
X131671428Y-56552380D01*
X131576190Y-56504761D01*
X131528571Y-56457142D01*
X131480952Y-56361904D01*
X131433333Y-56171428D01*
X131433333Y-55933333D01*
X131480952Y-55742857D01*
X131528571Y-55647619D01*
X131576190Y-55600000D01*
X131671428Y-55552380D01*
X132623809Y-55552380D02*
X132719047Y-55552380D01*
X132814285Y-55600000D01*
X132861904Y-55647619D01*
X132909523Y-55742857D01*
X132957142Y-55933333D01*
X132957142Y-56171428D01*
X132909523Y-56361904D01*
X132861904Y-56457142D01*
X132814285Y-56504761D01*
X132719047Y-56552380D01*
X132623809Y-56552380D01*
X132528571Y-56504761D01*
X132480952Y-56457142D01*
X132433333Y-56361904D01*
X132385714Y-56171428D01*
X132385714Y-55933333D01*
X132433333Y-55742857D01*
X132480952Y-55647619D01*
X132528571Y-55600000D01*
X132623809Y-55552380D01*
X133385714Y-55885714D02*
X133385714Y-56552380D01*
X133385714Y-55980952D02*
X133433333Y-55933333D01*
X133528571Y-55885714D01*
X133671428Y-55885714D01*
X133766666Y-55933333D01*
X133814285Y-56028571D01*
X133814285Y-56552380D01*
X134623809Y-56028571D02*
X134290476Y-56028571D01*
X134290476Y-56552380D02*
X134290476Y-55552380D01*
X134766666Y-55552380D01*
X147816666Y-57052380D02*
X147816666Y-56052380D01*
X148197619Y-56052380D01*
X148292857Y-56100000D01*
X148340476Y-56147619D01*
X148388095Y-56242857D01*
X148388095Y-56385714D01*
X148340476Y-56480952D01*
X148292857Y-56528571D01*
X148197619Y-56576190D01*
X147816666Y-56576190D01*
X148721428Y-56052380D02*
X148959523Y-57052380D01*
X149150000Y-56338095D01*
X149340476Y-57052380D01*
X149578571Y-56052380D01*
X150530952Y-57052380D02*
X150197619Y-56576190D01*
X149959523Y-57052380D02*
X149959523Y-56052380D01*
X150340476Y-56052380D01*
X150435714Y-56100000D01*
X150483333Y-56147619D01*
X150530952Y-56242857D01*
X150530952Y-56385714D01*
X150483333Y-56480952D01*
X150435714Y-56528571D01*
X150340476Y-56576190D01*
X149959523Y-56576190D01*
X150969047Y-55371428D02*
X151730952Y-55371428D01*
X151350000Y-55752380D02*
X151350000Y-54990476D01*
X141080952Y-56452380D02*
X140747619Y-55976190D01*
X140509523Y-56452380D02*
X140509523Y-55452380D01*
X140890476Y-55452380D01*
X140985714Y-55500000D01*
X141033333Y-55547619D01*
X141080952Y-55642857D01*
X141080952Y-55785714D01*
X141033333Y-55880952D01*
X140985714Y-55928571D01*
X140890476Y-55976190D01*
X140509523Y-55976190D01*
X141938095Y-55785714D02*
X141938095Y-56452380D01*
X141700000Y-55404761D02*
X141461904Y-56119047D01*
X142080952Y-56119047D01*
X142366666Y-55452380D02*
X143033333Y-55452380D01*
X142604761Y-56452380D01*
X143604761Y-55452380D02*
X143700000Y-55452380D01*
X143795238Y-55500000D01*
X143842857Y-55547619D01*
X143890476Y-55642857D01*
X143938095Y-55833333D01*
X143938095Y-56071428D01*
X143890476Y-56261904D01*
X143842857Y-56357142D01*
X143795238Y-56404761D01*
X143700000Y-56452380D01*
X143604761Y-56452380D01*
X143509523Y-56404761D01*
X143461904Y-56357142D01*
X143414285Y-56261904D01*
X143366666Y-56071428D01*
X143366666Y-55833333D01*
X143414285Y-55642857D01*
X143461904Y-55547619D01*
X143509523Y-55500000D01*
X143604761Y-55452380D01*
X154009523Y-49152380D02*
X153533333Y-49152380D01*
X153485714Y-49628571D01*
X153533333Y-49580952D01*
X153628571Y-49533333D01*
X153866666Y-49533333D01*
X153961904Y-49580952D01*
X154009523Y-49628571D01*
X154057142Y-49723809D01*
X154057142Y-49961904D01*
X154009523Y-50057142D01*
X153961904Y-50104761D01*
X153866666Y-50152380D01*
X153628571Y-50152380D01*
X153533333Y-50104761D01*
X153485714Y-50057142D01*
X154342857Y-49152380D02*
X154676190Y-50152380D01*
X155009523Y-49152380D01*
X149961904Y-49152380D02*
X150580952Y-49152380D01*
X150247619Y-49533333D01*
X150390476Y-49533333D01*
X150485714Y-49580952D01*
X150533333Y-49628571D01*
X150580952Y-49723809D01*
X150580952Y-49961904D01*
X150533333Y-50057142D01*
X150485714Y-50104761D01*
X150390476Y-50152380D01*
X150104761Y-50152380D01*
X150009523Y-50104761D01*
X149961904Y-50057142D01*
X150866666Y-49152380D02*
X151200000Y-50152380D01*
X151533333Y-49152380D01*
X151771428Y-49152380D02*
X152390476Y-49152380D01*
X152057142Y-49533333D01*
X152200000Y-49533333D01*
X152295238Y-49580952D01*
X152342857Y-49628571D01*
X152390476Y-49723809D01*
X152390476Y-49961904D01*
X152342857Y-50057142D01*
X152295238Y-50104761D01*
X152200000Y-50152380D01*
X151914285Y-50152380D01*
X151819047Y-50104761D01*
X151771428Y-50057142D01*
X147411904Y-49200000D02*
X147316666Y-49152380D01*
X147173809Y-49152380D01*
X147030952Y-49200000D01*
X146935714Y-49295238D01*
X146888095Y-49390476D01*
X146840476Y-49580952D01*
X146840476Y-49723809D01*
X146888095Y-49914285D01*
X146935714Y-50009523D01*
X147030952Y-50104761D01*
X147173809Y-50152380D01*
X147269047Y-50152380D01*
X147411904Y-50104761D01*
X147459523Y-50057142D01*
X147459523Y-49723809D01*
X147269047Y-49723809D01*
D14*
X149150000Y-50150000D02*
X148650000Y-49000000D01*
X148150000Y-50150000D02*
X149150000Y-50150000D01*
X148650000Y-49000000D02*
X148150000Y-50150000D01*
X147350000Y-45250000D02*
X147350000Y-45650000D01*
D12*
X155000000Y-45250000D02*
X147400000Y-45250000D01*
D14*
X155050000Y-45200000D02*
X155050000Y-45700000D01*
D12*
X147400000Y-45650000D02*
X155000000Y-45650000D01*
D14*
%TO.C,J6*%
X124180000Y-48550000D02*
X124180000Y-49880000D01*
X124180000Y-49880000D02*
X122850000Y-49880000D01*
X124180000Y-47280000D02*
X121580000Y-47280000D01*
X121580000Y-47280000D02*
X121580000Y-49880000D01*
X121580000Y-49880000D02*
X111360000Y-49880000D01*
X111360000Y-44680000D02*
X111360000Y-49880000D01*
X124180000Y-44680000D02*
X111360000Y-44680000D01*
X124180000Y-44680000D02*
X124180000Y-47280000D01*
%TO.C,J5*%
X163000000Y-58180000D02*
X161670000Y-58180000D01*
X161670000Y-58180000D02*
X161670000Y-56850000D01*
X164270000Y-58180000D02*
X164270000Y-55580000D01*
X164270000Y-55580000D02*
X161670000Y-55580000D01*
X161670000Y-55580000D02*
X161670000Y-45360000D01*
X166870000Y-45360000D02*
X161670000Y-45360000D01*
X166870000Y-58180000D02*
X166870000Y-45360000D01*
X166870000Y-58180000D02*
X164270000Y-58180000D01*
%TO.C,R1*%
X142270000Y-53650000D02*
G75*
G03*
X142270000Y-53650000I-1370000J0D01*
G01*
X142270000Y-53650000D02*
X142340000Y-53650000D01*
%TO.C,J4*%
X155010000Y-48880000D02*
X155010000Y-46220000D01*
X149870000Y-48880000D02*
X155010000Y-48880000D01*
X149870000Y-46220000D02*
X155010000Y-46220000D01*
X149870000Y-48880000D02*
X149870000Y-46220000D01*
X148600000Y-48880000D02*
X147270000Y-48880000D01*
X147270000Y-48880000D02*
X147270000Y-47550000D01*
%TO.C,J3*%
X137950000Y-48162500D02*
X137500000Y-48162500D01*
X137950000Y-46312500D02*
X137950000Y-48162500D01*
X130150000Y-43762500D02*
X130150000Y-44012500D01*
X137950000Y-43762500D02*
X137950000Y-44012500D01*
X130150000Y-46312500D02*
X130150000Y-48162500D01*
X130150000Y-48162500D02*
X130600000Y-48162500D01*
X135750000Y-48712500D02*
X135300000Y-48712500D01*
X135750000Y-48712500D02*
X135750000Y-48262500D01*
%TO.C,J2*%
X107340000Y-76940000D02*
X107340000Y-67820000D01*
X107340000Y-67820000D02*
X166020000Y-67820000D01*
X166020000Y-67820000D02*
X166020000Y-76940000D01*
X166020000Y-76940000D02*
X107340000Y-76940000D01*
X134630000Y-76940000D02*
X134630000Y-75630000D01*
X134630000Y-75630000D02*
X108640000Y-75630000D01*
X108640000Y-75630000D02*
X108640000Y-69130000D01*
X108640000Y-69130000D02*
X164720000Y-69130000D01*
X164720000Y-69130000D02*
X164720000Y-75630000D01*
X164720000Y-75630000D02*
X138730000Y-75630000D01*
X138730000Y-75630000D02*
X138730000Y-75630000D01*
X138730000Y-75630000D02*
X138730000Y-76940000D01*
X112550000Y-77330000D02*
X112050000Y-78330000D01*
X112050000Y-78330000D02*
X113050000Y-78330000D01*
X113050000Y-78330000D02*
X112550000Y-77330000D01*
%TO.C,D1*%
X150740000Y-54836000D02*
X150740000Y-54680000D01*
X150740000Y-52520000D02*
X150740000Y-52364000D01*
X148138870Y-52520163D02*
G75*
G02*
X150220961Y-52520000I1041130J-1079837D01*
G01*
X148138870Y-54679837D02*
G75*
G03*
X150220961Y-54680000I1041130J1079837D01*
G01*
X147507665Y-52521392D02*
G75*
G02*
X150740000Y-52364484I1672335J-1078608D01*
G01*
X147507665Y-54678608D02*
G75*
G03*
X150740000Y-54835516I1672335J1078608D01*
G01*
%TO.C,C2*%
X144070000Y-47350000D02*
G75*
G03*
X144070000Y-47350000I-2120000J0D01*
G01*
X141950000Y-45270000D02*
X141950000Y-49430000D01*
X141990000Y-45270000D02*
X141990000Y-49430000D01*
X142030000Y-45271000D02*
X142030000Y-49429000D01*
X142070000Y-45273000D02*
X142070000Y-49427000D01*
X142110000Y-45276000D02*
X142110000Y-49424000D01*
X142150000Y-45279000D02*
X142150000Y-46510000D01*
X142150000Y-48190000D02*
X142150000Y-49421000D01*
X142190000Y-45283000D02*
X142190000Y-46510000D01*
X142190000Y-48190000D02*
X142190000Y-49417000D01*
X142230000Y-45288000D02*
X142230000Y-46510000D01*
X142230000Y-48190000D02*
X142230000Y-49412000D01*
X142270000Y-45294000D02*
X142270000Y-46510000D01*
X142270000Y-48190000D02*
X142270000Y-49406000D01*
X142310000Y-45300000D02*
X142310000Y-46510000D01*
X142310000Y-48190000D02*
X142310000Y-49400000D01*
X142350000Y-45308000D02*
X142350000Y-46510000D01*
X142350000Y-48190000D02*
X142350000Y-49392000D01*
X142390000Y-45316000D02*
X142390000Y-46510000D01*
X142390000Y-48190000D02*
X142390000Y-49384000D01*
X142430000Y-45325000D02*
X142430000Y-46510000D01*
X142430000Y-48190000D02*
X142430000Y-49375000D01*
X142470000Y-45334000D02*
X142470000Y-46510000D01*
X142470000Y-48190000D02*
X142470000Y-49366000D01*
X142510000Y-45345000D02*
X142510000Y-46510000D01*
X142510000Y-48190000D02*
X142510000Y-49355000D01*
X142550000Y-45356000D02*
X142550000Y-46510000D01*
X142550000Y-48190000D02*
X142550000Y-49344000D01*
X142590000Y-45368000D02*
X142590000Y-46510000D01*
X142590000Y-48190000D02*
X142590000Y-49332000D01*
X142630000Y-45382000D02*
X142630000Y-46510000D01*
X142630000Y-48190000D02*
X142630000Y-49318000D01*
X142671000Y-45396000D02*
X142671000Y-46510000D01*
X142671000Y-48190000D02*
X142671000Y-49304000D01*
X142711000Y-45410000D02*
X142711000Y-46510000D01*
X142711000Y-48190000D02*
X142711000Y-49290000D01*
X142751000Y-45426000D02*
X142751000Y-46510000D01*
X142751000Y-48190000D02*
X142751000Y-49274000D01*
X142791000Y-45443000D02*
X142791000Y-46510000D01*
X142791000Y-48190000D02*
X142791000Y-49257000D01*
X142831000Y-45461000D02*
X142831000Y-46510000D01*
X142831000Y-48190000D02*
X142831000Y-49239000D01*
X142871000Y-45480000D02*
X142871000Y-46510000D01*
X142871000Y-48190000D02*
X142871000Y-49220000D01*
X142911000Y-45499000D02*
X142911000Y-46510000D01*
X142911000Y-48190000D02*
X142911000Y-49201000D01*
X142951000Y-45520000D02*
X142951000Y-46510000D01*
X142951000Y-48190000D02*
X142951000Y-49180000D01*
X142991000Y-45542000D02*
X142991000Y-46510000D01*
X142991000Y-48190000D02*
X142991000Y-49158000D01*
X143031000Y-45565000D02*
X143031000Y-46510000D01*
X143031000Y-48190000D02*
X143031000Y-49135000D01*
X143071000Y-45590000D02*
X143071000Y-46510000D01*
X143071000Y-48190000D02*
X143071000Y-49110000D01*
X143111000Y-45615000D02*
X143111000Y-46510000D01*
X143111000Y-48190000D02*
X143111000Y-49085000D01*
X143151000Y-45642000D02*
X143151000Y-46510000D01*
X143151000Y-48190000D02*
X143151000Y-49058000D01*
X143191000Y-45670000D02*
X143191000Y-46510000D01*
X143191000Y-48190000D02*
X143191000Y-49030000D01*
X143231000Y-45700000D02*
X143231000Y-46510000D01*
X143231000Y-48190000D02*
X143231000Y-49000000D01*
X143271000Y-45731000D02*
X143271000Y-46510000D01*
X143271000Y-48190000D02*
X143271000Y-48969000D01*
X143311000Y-45763000D02*
X143311000Y-46510000D01*
X143311000Y-48190000D02*
X143311000Y-48937000D01*
X143351000Y-45798000D02*
X143351000Y-46510000D01*
X143351000Y-48190000D02*
X143351000Y-48902000D01*
X143391000Y-45834000D02*
X143391000Y-46510000D01*
X143391000Y-48190000D02*
X143391000Y-48866000D01*
X143431000Y-45872000D02*
X143431000Y-46510000D01*
X143431000Y-48190000D02*
X143431000Y-48828000D01*
X143471000Y-45912000D02*
X143471000Y-46510000D01*
X143471000Y-48190000D02*
X143471000Y-48788000D01*
X143511000Y-45954000D02*
X143511000Y-46510000D01*
X143511000Y-48190000D02*
X143511000Y-48746000D01*
X143551000Y-45999000D02*
X143551000Y-46510000D01*
X143551000Y-48190000D02*
X143551000Y-48701000D01*
X143591000Y-46046000D02*
X143591000Y-46510000D01*
X143591000Y-48190000D02*
X143591000Y-48654000D01*
X143631000Y-46096000D02*
X143631000Y-46510000D01*
X143631000Y-48190000D02*
X143631000Y-48604000D01*
X143671000Y-46150000D02*
X143671000Y-46510000D01*
X143671000Y-48190000D02*
X143671000Y-48550000D01*
X143711000Y-46208000D02*
X143711000Y-46510000D01*
X143711000Y-48190000D02*
X143711000Y-48492000D01*
X143751000Y-46270000D02*
X143751000Y-46510000D01*
X143751000Y-48190000D02*
X143751000Y-48430000D01*
X143791000Y-46337000D02*
X143791000Y-48363000D01*
X143831000Y-46410000D02*
X143831000Y-48290000D01*
X143871000Y-46491000D02*
X143871000Y-48209000D01*
X143911000Y-46582000D02*
X143911000Y-48118000D01*
X143951000Y-46686000D02*
X143951000Y-48014000D01*
X143991000Y-46813000D02*
X143991000Y-47887000D01*
X144031000Y-46980000D02*
X144031000Y-47720000D01*
X139680199Y-46155000D02*
X140080199Y-46155000D01*
X139880199Y-45955000D02*
X139880199Y-46355000D01*
%TO.C,C1*%
X130480000Y-52230000D02*
X130480000Y-55070000D01*
X130480000Y-55070000D02*
X134520000Y-55070000D01*
X134520000Y-55070000D02*
X134520000Y-52230000D01*
X134520000Y-52230000D02*
X130480000Y-52230000D01*
X129790000Y-53650000D02*
X130480000Y-53650000D01*
X135210000Y-53650000D02*
X134520000Y-53650000D01*
%TO.C,J6*%
D10*
X109766666Y-44852380D02*
X109766666Y-45566666D01*
X109719047Y-45709523D01*
X109623809Y-45804761D01*
X109480952Y-45852380D01*
X109385714Y-45852380D01*
X110671428Y-44852380D02*
X110480952Y-44852380D01*
X110385714Y-44900000D01*
X110338095Y-44947619D01*
X110242857Y-45090476D01*
X110195238Y-45280952D01*
X110195238Y-45661904D01*
X110242857Y-45757142D01*
X110290476Y-45804761D01*
X110385714Y-45852380D01*
X110576190Y-45852380D01*
X110671428Y-45804761D01*
X110719047Y-45757142D01*
X110766666Y-45661904D01*
X110766666Y-45423809D01*
X110719047Y-45328571D01*
X110671428Y-45280952D01*
X110576190Y-45233333D01*
X110385714Y-45233333D01*
X110290476Y-45280952D01*
X110242857Y-45328571D01*
X110195238Y-45423809D01*
%TO.C,J5*%
X159416666Y-45452380D02*
X159416666Y-46166666D01*
X159369047Y-46309523D01*
X159273809Y-46404761D01*
X159130952Y-46452380D01*
X159035714Y-46452380D01*
X160369047Y-45452380D02*
X159892857Y-45452380D01*
X159845238Y-45928571D01*
X159892857Y-45880952D01*
X159988095Y-45833333D01*
X160226190Y-45833333D01*
X160321428Y-45880952D01*
X160369047Y-45928571D01*
X160416666Y-46023809D01*
X160416666Y-46261904D01*
X160369047Y-46357142D01*
X160321428Y-46404761D01*
X160226190Y-46452380D01*
X159988095Y-46452380D01*
X159892857Y-46404761D01*
X159845238Y-46357142D01*
%TO.C,R1*%
X139152380Y-53566666D02*
X138676190Y-53900000D01*
X139152380Y-54138095D02*
X138152380Y-54138095D01*
X138152380Y-53757142D01*
X138200000Y-53661904D01*
X138247619Y-53614285D01*
X138342857Y-53566666D01*
X138485714Y-53566666D01*
X138580952Y-53614285D01*
X138628571Y-53661904D01*
X138676190Y-53757142D01*
X138676190Y-54138095D01*
X139152380Y-52614285D02*
X139152380Y-53185714D01*
X139152380Y-52900000D02*
X138152380Y-52900000D01*
X138295238Y-52995238D01*
X138390476Y-53090476D01*
X138438095Y-53185714D01*
%TO.C,J4*%
X145766666Y-45852380D02*
X145766666Y-46566666D01*
X145719047Y-46709523D01*
X145623809Y-46804761D01*
X145480952Y-46852380D01*
X145385714Y-46852380D01*
X146671428Y-46185714D02*
X146671428Y-46852380D01*
X146433333Y-45804761D02*
X146195238Y-46519047D01*
X146814285Y-46519047D01*
%TO.C,J3*%
X128266666Y-44202380D02*
X128266666Y-44916666D01*
X128219047Y-45059523D01*
X128123809Y-45154761D01*
X127980952Y-45202380D01*
X127885714Y-45202380D01*
X128647619Y-44202380D02*
X129266666Y-44202380D01*
X128933333Y-44583333D01*
X129076190Y-44583333D01*
X129171428Y-44630952D01*
X129219047Y-44678571D01*
X129266666Y-44773809D01*
X129266666Y-45011904D01*
X129219047Y-45107142D01*
X129171428Y-45154761D01*
X129076190Y-45202380D01*
X128790476Y-45202380D01*
X128695238Y-45154761D01*
X128647619Y-45107142D01*
%TO.C,J2*%
X105902380Y-72713333D02*
X106616666Y-72713333D01*
X106759523Y-72760952D01*
X106854761Y-72856190D01*
X106902380Y-72999047D01*
X106902380Y-73094285D01*
X105997619Y-72284761D02*
X105950000Y-72237142D01*
X105902380Y-72141904D01*
X105902380Y-71903809D01*
X105950000Y-71808571D01*
X105997619Y-71760952D01*
X106092857Y-71713333D01*
X106188095Y-71713333D01*
X106330952Y-71760952D01*
X106902380Y-72332380D01*
X106902380Y-71713333D01*
%TO.C,D1*%
X146402380Y-54388095D02*
X145402380Y-54388095D01*
X145402380Y-54150000D01*
X145450000Y-54007142D01*
X145545238Y-53911904D01*
X145640476Y-53864285D01*
X145830952Y-53816666D01*
X145973809Y-53816666D01*
X146164285Y-53864285D01*
X146259523Y-53911904D01*
X146354761Y-54007142D01*
X146402380Y-54150000D01*
X146402380Y-54388095D01*
X146402380Y-52864285D02*
X146402380Y-53435714D01*
X146402380Y-53150000D02*
X145402380Y-53150000D01*
X145545238Y-53245238D01*
X145640476Y-53340476D01*
X145688095Y-53435714D01*
%TO.C,C2*%
X139583333Y-45057142D02*
X139535714Y-45104761D01*
X139392857Y-45152380D01*
X139297619Y-45152380D01*
X139154761Y-45104761D01*
X139059523Y-45009523D01*
X139011904Y-44914285D01*
X138964285Y-44723809D01*
X138964285Y-44580952D01*
X139011904Y-44390476D01*
X139059523Y-44295238D01*
X139154761Y-44200000D01*
X139297619Y-44152380D01*
X139392857Y-44152380D01*
X139535714Y-44200000D01*
X139583333Y-44247619D01*
X139964285Y-44247619D02*
X140011904Y-44200000D01*
X140107142Y-44152380D01*
X140345238Y-44152380D01*
X140440476Y-44200000D01*
X140488095Y-44247619D01*
X140535714Y-44342857D01*
X140535714Y-44438095D01*
X140488095Y-44580952D01*
X139916666Y-45152380D01*
X140535714Y-45152380D01*
%TO.C,C1*%
X132433333Y-53957142D02*
X132385714Y-54004761D01*
X132242857Y-54052380D01*
X132147619Y-54052380D01*
X132004761Y-54004761D01*
X131909523Y-53909523D01*
X131861904Y-53814285D01*
X131814285Y-53623809D01*
X131814285Y-53480952D01*
X131861904Y-53290476D01*
X131909523Y-53195238D01*
X132004761Y-53100000D01*
X132147619Y-53052380D01*
X132242857Y-53052380D01*
X132385714Y-53100000D01*
X132433333Y-53147619D01*
X133385714Y-54052380D02*
X132814285Y-54052380D01*
X133100000Y-54052380D02*
X133100000Y-53052380D01*
X133004761Y-53195238D01*
X132909523Y-53290476D01*
X132814285Y-53338095D01*
%TD*%
M02*
