%TF.GenerationSoftware,KiCad,Pcbnew,5.1.12-84ad8e8a86~92~ubuntu18.04.1*%
%TF.CreationDate,2023-06-24T13:51:17+02:00*%
%TF.ProjectId,EPROM-27512-GLS27SF512,4550524f-4d2d-4323-9735-31322d474c53,r2*%
%TF.SameCoordinates,Original*%
%TF.FileFunction,Copper,L2,Bot*%
%TF.FilePolarity,Positive*%
%FSLAX46Y46*%
G04 Gerber Fmt 4.6, Leading zero omitted, Abs format (unit mm)*
G04 Created by KiCad (PCBNEW 5.1.12-84ad8e8a86~92~ubuntu18.04.1) date 2023-06-24 13:51:17*
%MOMM*%
%LPD*%
G01*
G04 APERTURE LIST*
%TA.AperFunction,ComponentPad*%
%ADD10R,1.600000X1.600000*%
%TD*%
%TA.AperFunction,ComponentPad*%
%ADD11O,1.600000X1.600000*%
%TD*%
%TA.AperFunction,ViaPad*%
%ADD12C,0.800000*%
%TD*%
%TA.AperFunction,Conductor*%
%ADD13C,0.250000*%
%TD*%
G04 APERTURE END LIST*
D10*
%TO.P,U101,1*%
%TO.N,/a15*%
X86952401Y-69723201D03*
D11*
%TO.P,U101,15*%
%TO.N,/d3*%
X102192401Y-102743201D03*
%TO.P,U101,2*%
%TO.N,/a12*%
X86952401Y-72263201D03*
%TO.P,U101,16*%
%TO.N,/d4*%
X102192401Y-100203201D03*
%TO.P,U101,3*%
%TO.N,/a7*%
X86952401Y-74803201D03*
%TO.P,U101,17*%
%TO.N,/d5*%
X102192401Y-97663201D03*
%TO.P,U101,4*%
%TO.N,/a6*%
X86952401Y-77343201D03*
%TO.P,U101,18*%
%TO.N,/d6*%
X102192401Y-95123201D03*
%TO.P,U101,5*%
%TO.N,/a5*%
X86952401Y-79883201D03*
%TO.P,U101,19*%
%TO.N,/d7*%
X102192401Y-92583201D03*
%TO.P,U101,6*%
%TO.N,/a4*%
X86952401Y-82423201D03*
%TO.P,U101,20*%
%TO.N,/_ce*%
X102192401Y-90043201D03*
%TO.P,U101,7*%
%TO.N,/a3*%
X86952401Y-84963201D03*
%TO.P,U101,21*%
%TO.N,/a10*%
X102192401Y-87503201D03*
%TO.P,U101,8*%
%TO.N,/a2*%
X86952401Y-87503201D03*
%TO.P,U101,22*%
%TO.N,/_oe*%
X102192401Y-84963201D03*
%TO.P,U101,9*%
%TO.N,/a1*%
X86952401Y-90043201D03*
%TO.P,U101,23*%
%TO.N,/a11*%
X102192401Y-82423201D03*
%TO.P,U101,10*%
%TO.N,/a0*%
X86952401Y-92583201D03*
%TO.P,U101,24*%
%TO.N,/a9*%
X102192401Y-79883201D03*
%TO.P,U101,11*%
%TO.N,/d0*%
X86952401Y-95123201D03*
%TO.P,U101,25*%
%TO.N,/a8*%
X102192401Y-77343201D03*
%TO.P,U101,12*%
%TO.N,/d1*%
X86952401Y-97663201D03*
%TO.P,U101,26*%
%TO.N,/a13*%
X102192401Y-74803201D03*
%TO.P,U101,13*%
%TO.N,/d2*%
X86952401Y-100203201D03*
%TO.P,U101,27*%
%TO.N,/a14*%
X102192401Y-72263201D03*
%TO.P,U101,14*%
%TO.N,GND*%
X86952401Y-102743201D03*
%TO.P,U101,28*%
%TO.N,+5V*%
X102192401Y-69723201D03*
%TD*%
D12*
%TO.N,/d7*%
X97536000Y-89382600D03*
%TO.N,/_ce*%
X98247200Y-87909400D03*
%TO.N,/a1*%
X91592400Y-86563200D03*
%TO.N,/a0*%
X92938600Y-87884000D03*
%TD*%
D13*
%TO.N,/d7*%
X102192401Y-92583201D02*
X100736601Y-92583201D01*
X100736601Y-92583201D02*
X97536000Y-89382600D01*
%TO.N,/_ce*%
X102192401Y-90043201D02*
X100381001Y-90043201D01*
X100381001Y-90043201D02*
X98247200Y-87909400D01*
%TO.N,/a1*%
X86952401Y-90043201D02*
X90601599Y-90043201D01*
X90601599Y-90043201D02*
X91592400Y-89052400D01*
X91592400Y-89052400D02*
X91592400Y-86563200D01*
%TO.N,/a0*%
X86952401Y-92583201D02*
X90042799Y-92583201D01*
X90042799Y-92583201D02*
X92964000Y-89662000D01*
X92964000Y-89662000D02*
X92964000Y-87909400D01*
X92964000Y-87909400D02*
X92938600Y-87884000D01*
%TD*%
M02*
