%TF.GenerationSoftware,KiCad,Pcbnew,5.1.12-84ad8e8a86~92~ubuntu18.04.1*%
%TF.CreationDate,2023-06-24T13:51:17+02:00*%
%TF.ProjectId,EPROM-27512-GLS27SF512,4550524f-4d2d-4323-9735-31322d474c53,r2*%
%TF.SameCoordinates,Original*%
%TF.FileFunction,Legend,Top*%
%TF.FilePolarity,Positive*%
%FSLAX46Y46*%
G04 Gerber Fmt 4.6, Leading zero omitted, Abs format (unit mm)*
G04 Created by KiCad (PCBNEW 5.1.12-84ad8e8a86~92~ubuntu18.04.1) date 2023-06-24 13:51:17*
%MOMM*%
%LPD*%
G01*
G04 APERTURE LIST*
%ADD10C,0.150000*%
%ADD11C,0.350000*%
%ADD12C,0.120000*%
G04 APERTURE END LIST*
D10*
X98486980Y-74467980D02*
X98486980Y-73801314D01*
X98486980Y-73991790D02*
X98534600Y-73896552D01*
X98582219Y-73848933D01*
X98677457Y-73801314D01*
X98772695Y-73801314D01*
X99058409Y-73563219D02*
X99106028Y-73515600D01*
X99201266Y-73467980D01*
X99439361Y-73467980D01*
X99534600Y-73515600D01*
X99582219Y-73563219D01*
X99629838Y-73658457D01*
X99629838Y-73753695D01*
X99582219Y-73896552D01*
X99010790Y-74467980D01*
X99629838Y-74467980D01*
X94699200Y-89299561D02*
X94651580Y-89394800D01*
X94651580Y-89537657D01*
X94699200Y-89680514D01*
X94794438Y-89775752D01*
X94889676Y-89823371D01*
X95080152Y-89870990D01*
X95223009Y-89870990D01*
X95413485Y-89823371D01*
X95508723Y-89775752D01*
X95603961Y-89680514D01*
X95651580Y-89537657D01*
X95651580Y-89442419D01*
X95603961Y-89299561D01*
X95556342Y-89251942D01*
X95223009Y-89251942D01*
X95223009Y-89442419D01*
X95651580Y-88347180D02*
X95651580Y-88823371D01*
X94651580Y-88823371D01*
X95603961Y-88061466D02*
X95651580Y-87918609D01*
X95651580Y-87680514D01*
X95603961Y-87585276D01*
X95556342Y-87537657D01*
X95461104Y-87490038D01*
X95365866Y-87490038D01*
X95270628Y-87537657D01*
X95223009Y-87585276D01*
X95175390Y-87680514D01*
X95127771Y-87870990D01*
X95080152Y-87966228D01*
X95032533Y-88013847D01*
X94937295Y-88061466D01*
X94842057Y-88061466D01*
X94746819Y-88013847D01*
X94699200Y-87966228D01*
X94651580Y-87870990D01*
X94651580Y-87632895D01*
X94699200Y-87490038D01*
X94746819Y-87109085D02*
X94699200Y-87061466D01*
X94651580Y-86966228D01*
X94651580Y-86728133D01*
X94699200Y-86632895D01*
X94746819Y-86585276D01*
X94842057Y-86537657D01*
X94937295Y-86537657D01*
X95080152Y-86585276D01*
X95651580Y-87156704D01*
X95651580Y-86537657D01*
X94651580Y-86204323D02*
X94651580Y-85537657D01*
X95651580Y-85966228D01*
X95603961Y-85204323D02*
X95651580Y-85061466D01*
X95651580Y-84823371D01*
X95603961Y-84728133D01*
X95556342Y-84680514D01*
X95461104Y-84632895D01*
X95365866Y-84632895D01*
X95270628Y-84680514D01*
X95223009Y-84728133D01*
X95175390Y-84823371D01*
X95127771Y-85013847D01*
X95080152Y-85109085D01*
X95032533Y-85156704D01*
X94937295Y-85204323D01*
X94842057Y-85204323D01*
X94746819Y-85156704D01*
X94699200Y-85109085D01*
X94651580Y-85013847D01*
X94651580Y-84775752D01*
X94699200Y-84632895D01*
X95127771Y-83870990D02*
X95127771Y-84204323D01*
X95651580Y-84204323D02*
X94651580Y-84204323D01*
X94651580Y-83728133D01*
X94651580Y-82870990D02*
X94651580Y-83347180D01*
X95127771Y-83394800D01*
X95080152Y-83347180D01*
X95032533Y-83251942D01*
X95032533Y-83013847D01*
X95080152Y-82918609D01*
X95127771Y-82870990D01*
X95223009Y-82823371D01*
X95461104Y-82823371D01*
X95556342Y-82870990D01*
X95603961Y-82918609D01*
X95651580Y-83013847D01*
X95651580Y-83251942D01*
X95603961Y-83347180D01*
X95556342Y-83394800D01*
X95651580Y-81870990D02*
X95651580Y-82442419D01*
X95651580Y-82156704D02*
X94651580Y-82156704D01*
X94794438Y-82251942D01*
X94889676Y-82347180D01*
X94937295Y-82442419D01*
X94746819Y-81490038D02*
X94699200Y-81442419D01*
X94651580Y-81347180D01*
X94651580Y-81109085D01*
X94699200Y-81013847D01*
X94746819Y-80966228D01*
X94842057Y-80918609D01*
X94937295Y-80918609D01*
X95080152Y-80966228D01*
X95651580Y-81537657D01*
X95651580Y-80918609D01*
D11*
X90335647Y-70672438D02*
X90430885Y-70577200D01*
X90621361Y-70481961D01*
X91097552Y-70481961D01*
X91288028Y-70577200D01*
X91383266Y-70672438D01*
X91478504Y-70862914D01*
X91478504Y-71053390D01*
X91383266Y-71339104D01*
X90240409Y-72481961D01*
X91478504Y-72481961D01*
X92145171Y-70481961D02*
X93478504Y-70481961D01*
X92621361Y-72481961D01*
X95192790Y-70481961D02*
X94240409Y-70481961D01*
X94145171Y-71434342D01*
X94240409Y-71339104D01*
X94430885Y-71243866D01*
X94907076Y-71243866D01*
X95097552Y-71339104D01*
X95192790Y-71434342D01*
X95288028Y-71624819D01*
X95288028Y-72101009D01*
X95192790Y-72291485D01*
X95097552Y-72386723D01*
X94907076Y-72481961D01*
X94430885Y-72481961D01*
X94240409Y-72386723D01*
X94145171Y-72291485D01*
X97192790Y-72481961D02*
X96049933Y-72481961D01*
X96621361Y-72481961D02*
X96621361Y-70481961D01*
X96430885Y-70767676D01*
X96240409Y-70958152D01*
X96049933Y-71053390D01*
X97954695Y-70672438D02*
X98049933Y-70577200D01*
X98240409Y-70481961D01*
X98716600Y-70481961D01*
X98907076Y-70577200D01*
X99002314Y-70672438D01*
X99097552Y-70862914D01*
X99097552Y-71053390D01*
X99002314Y-71339104D01*
X97859457Y-72481961D01*
X99097552Y-72481961D01*
D12*
%TO.C,U101*%
X93572401Y-68393201D02*
X88112401Y-68393201D01*
X88112401Y-68393201D02*
X88112401Y-104073201D01*
X88112401Y-104073201D02*
X101032401Y-104073201D01*
X101032401Y-104073201D02*
X101032401Y-68393201D01*
X101032401Y-68393201D02*
X95572401Y-68393201D01*
X95572401Y-68393201D02*
G75*
G02*
X93572401Y-68393201I-1000000J0D01*
G01*
%TO.C,U102*%
X98959600Y-78223600D02*
X100414600Y-78223600D01*
X100414600Y-78223600D02*
X100414600Y-79678600D01*
X90219600Y-92413600D02*
X88764600Y-92413600D01*
X88764600Y-92413600D02*
X88764600Y-90958600D01*
X98959600Y-92413600D02*
X100414600Y-92413600D01*
X100414600Y-92413600D02*
X100414600Y-90958600D01*
X90219600Y-78223600D02*
X89936818Y-78223600D01*
X89936818Y-78223600D02*
X88764600Y-79395818D01*
X88764600Y-79395818D02*
X88764600Y-79678600D01*
%TO.C,U101*%
D10*
X92392714Y-102220780D02*
X92392714Y-103030304D01*
X92440333Y-103125542D01*
X92487952Y-103173161D01*
X92583190Y-103220780D01*
X92773666Y-103220780D01*
X92868904Y-103173161D01*
X92916523Y-103125542D01*
X92964142Y-103030304D01*
X92964142Y-102220780D01*
X93964142Y-103220780D02*
X93392714Y-103220780D01*
X93678428Y-103220780D02*
X93678428Y-102220780D01*
X93583190Y-102363638D01*
X93487952Y-102458876D01*
X93392714Y-102506495D01*
X94583190Y-102220780D02*
X94678428Y-102220780D01*
X94773666Y-102268400D01*
X94821285Y-102316019D01*
X94868904Y-102411257D01*
X94916523Y-102601733D01*
X94916523Y-102839828D01*
X94868904Y-103030304D01*
X94821285Y-103125542D01*
X94773666Y-103173161D01*
X94678428Y-103220780D01*
X94583190Y-103220780D01*
X94487952Y-103173161D01*
X94440333Y-103125542D01*
X94392714Y-103030304D01*
X94345095Y-102839828D01*
X94345095Y-102601733D01*
X94392714Y-102411257D01*
X94440333Y-102316019D01*
X94487952Y-102268400D01*
X94583190Y-102220780D01*
X95868904Y-103220780D02*
X95297476Y-103220780D01*
X95583190Y-103220780D02*
X95583190Y-102220780D01*
X95487952Y-102363638D01*
X95392714Y-102458876D01*
X95297476Y-102506495D01*
%TO.C,U102*%
X92009980Y-84340485D02*
X92819504Y-84340485D01*
X92914742Y-84292866D01*
X92962361Y-84245247D01*
X93009980Y-84150009D01*
X93009980Y-83959533D01*
X92962361Y-83864295D01*
X92914742Y-83816676D01*
X92819504Y-83769057D01*
X92009980Y-83769057D01*
X93009980Y-82769057D02*
X93009980Y-83340485D01*
X93009980Y-83054771D02*
X92009980Y-83054771D01*
X92152838Y-83150009D01*
X92248076Y-83245247D01*
X92295695Y-83340485D01*
X92009980Y-82150009D02*
X92009980Y-82054771D01*
X92057600Y-81959533D01*
X92105219Y-81911914D01*
X92200457Y-81864295D01*
X92390933Y-81816676D01*
X92629028Y-81816676D01*
X92819504Y-81864295D01*
X92914742Y-81911914D01*
X92962361Y-81959533D01*
X93009980Y-82054771D01*
X93009980Y-82150009D01*
X92962361Y-82245247D01*
X92914742Y-82292866D01*
X92819504Y-82340485D01*
X92629028Y-82388104D01*
X92390933Y-82388104D01*
X92200457Y-82340485D01*
X92105219Y-82292866D01*
X92057600Y-82245247D01*
X92009980Y-82150009D01*
X92105219Y-81435723D02*
X92057600Y-81388104D01*
X92009980Y-81292866D01*
X92009980Y-81054771D01*
X92057600Y-80959533D01*
X92105219Y-80911914D01*
X92200457Y-80864295D01*
X92295695Y-80864295D01*
X92438552Y-80911914D01*
X93009980Y-81483342D01*
X93009980Y-80864295D01*
%TD*%
M02*
