%TF.GenerationSoftware,KiCad,Pcbnew,5.1.12-84ad8e8a86~92~ubuntu18.04.1*%
%TF.CreationDate,2023-06-24T13:51:17+02:00*%
%TF.ProjectId,EPROM-27512-GLS27SF512,4550524f-4d2d-4323-9735-31322d474c53,r2*%
%TF.SameCoordinates,Original*%
%TF.FileFunction,Copper,L1,Top*%
%TF.FilePolarity,Positive*%
%FSLAX46Y46*%
G04 Gerber Fmt 4.6, Leading zero omitted, Abs format (unit mm)*
G04 Created by KiCad (PCBNEW 5.1.12-84ad8e8a86~92~ubuntu18.04.1) date 2023-06-24 13:51:17*
%MOMM*%
%LPD*%
G01*
G04 APERTURE LIST*
%TA.AperFunction,ComponentPad*%
%ADD10R,1.600000X1.600000*%
%TD*%
%TA.AperFunction,ComponentPad*%
%ADD11O,1.600000X1.600000*%
%TD*%
%TA.AperFunction,ViaPad*%
%ADD12C,0.800000*%
%TD*%
%TA.AperFunction,Conductor*%
%ADD13C,0.250000*%
%TD*%
%TA.AperFunction,Conductor*%
%ADD14C,0.400000*%
%TD*%
G04 APERTURE END LIST*
D10*
%TO.P,U101,1*%
%TO.N,/a15*%
X86952401Y-69723201D03*
D11*
%TO.P,U101,15*%
%TO.N,/d3*%
X102192401Y-102743201D03*
%TO.P,U101,2*%
%TO.N,/a12*%
X86952401Y-72263201D03*
%TO.P,U101,16*%
%TO.N,/d4*%
X102192401Y-100203201D03*
%TO.P,U101,3*%
%TO.N,/a7*%
X86952401Y-74803201D03*
%TO.P,U101,17*%
%TO.N,/d5*%
X102192401Y-97663201D03*
%TO.P,U101,4*%
%TO.N,/a6*%
X86952401Y-77343201D03*
%TO.P,U101,18*%
%TO.N,/d6*%
X102192401Y-95123201D03*
%TO.P,U101,5*%
%TO.N,/a5*%
X86952401Y-79883201D03*
%TO.P,U101,19*%
%TO.N,/d7*%
X102192401Y-92583201D03*
%TO.P,U101,6*%
%TO.N,/a4*%
X86952401Y-82423201D03*
%TO.P,U101,20*%
%TO.N,/_ce*%
X102192401Y-90043201D03*
%TO.P,U101,7*%
%TO.N,/a3*%
X86952401Y-84963201D03*
%TO.P,U101,21*%
%TO.N,/a10*%
X102192401Y-87503201D03*
%TO.P,U101,8*%
%TO.N,/a2*%
X86952401Y-87503201D03*
%TO.P,U101,22*%
%TO.N,/_oe*%
X102192401Y-84963201D03*
%TO.P,U101,9*%
%TO.N,/a1*%
X86952401Y-90043201D03*
%TO.P,U101,23*%
%TO.N,/a11*%
X102192401Y-82423201D03*
%TO.P,U101,10*%
%TO.N,/a0*%
X86952401Y-92583201D03*
%TO.P,U101,24*%
%TO.N,/a9*%
X102192401Y-79883201D03*
%TO.P,U101,11*%
%TO.N,/d0*%
X86952401Y-95123201D03*
%TO.P,U101,25*%
%TO.N,/a8*%
X102192401Y-77343201D03*
%TO.P,U101,12*%
%TO.N,/d1*%
X86952401Y-97663201D03*
%TO.P,U101,26*%
%TO.N,/a13*%
X102192401Y-74803201D03*
%TO.P,U101,13*%
%TO.N,/d2*%
X86952401Y-100203201D03*
%TO.P,U101,27*%
%TO.N,/a14*%
X102192401Y-72263201D03*
%TO.P,U101,14*%
%TO.N,GND*%
X86952401Y-102743201D03*
%TO.P,U101,28*%
%TO.N,+5V*%
X102192401Y-69723201D03*
%TD*%
%TO.P,U102,1*%
%TO.N,Net-(U102-Pad1)*%
%TA.AperFunction,SMDPad,CuDef*%
G36*
G01*
X94289600Y-79068600D02*
X94289600Y-77893600D01*
G75*
G02*
X94439600Y-77743600I150000J0D01*
G01*
X94739600Y-77743600D01*
G75*
G02*
X94889600Y-77893600I0J-150000D01*
G01*
X94889600Y-79068600D01*
G75*
G02*
X94739600Y-79218600I-150000J0D01*
G01*
X94439600Y-79218600D01*
G75*
G02*
X94289600Y-79068600I0J150000D01*
G01*
G37*
%TD.AperFunction*%
%TO.P,U102,2*%
%TO.N,/a15*%
%TA.AperFunction,SMDPad,CuDef*%
G36*
G01*
X93019600Y-79068600D02*
X93019600Y-77893600D01*
G75*
G02*
X93169600Y-77743600I150000J0D01*
G01*
X93469600Y-77743600D01*
G75*
G02*
X93619600Y-77893600I0J-150000D01*
G01*
X93619600Y-79068600D01*
G75*
G02*
X93469600Y-79218600I-150000J0D01*
G01*
X93169600Y-79218600D01*
G75*
G02*
X93019600Y-79068600I0J150000D01*
G01*
G37*
%TD.AperFunction*%
%TO.P,U102,3*%
%TO.N,/a12*%
%TA.AperFunction,SMDPad,CuDef*%
G36*
G01*
X91749600Y-79068600D02*
X91749600Y-77893600D01*
G75*
G02*
X91899600Y-77743600I150000J0D01*
G01*
X92199600Y-77743600D01*
G75*
G02*
X92349600Y-77893600I0J-150000D01*
G01*
X92349600Y-79068600D01*
G75*
G02*
X92199600Y-79218600I-150000J0D01*
G01*
X91899600Y-79218600D01*
G75*
G02*
X91749600Y-79068600I0J150000D01*
G01*
G37*
%TD.AperFunction*%
%TO.P,U102,4*%
%TO.N,/a7*%
%TA.AperFunction,SMDPad,CuDef*%
G36*
G01*
X90479600Y-79068600D02*
X90479600Y-77893600D01*
G75*
G02*
X90629600Y-77743600I150000J0D01*
G01*
X90929600Y-77743600D01*
G75*
G02*
X91079600Y-77893600I0J-150000D01*
G01*
X91079600Y-79068600D01*
G75*
G02*
X90929600Y-79218600I-150000J0D01*
G01*
X90629600Y-79218600D01*
G75*
G02*
X90479600Y-79068600I0J150000D01*
G01*
G37*
%TD.AperFunction*%
%TO.P,U102,5*%
%TO.N,/a6*%
%TA.AperFunction,SMDPad,CuDef*%
G36*
G01*
X88289600Y-80388600D02*
X88289600Y-80088600D01*
G75*
G02*
X88439600Y-79938600I150000J0D01*
G01*
X89614600Y-79938600D01*
G75*
G02*
X89764600Y-80088600I0J-150000D01*
G01*
X89764600Y-80388600D01*
G75*
G02*
X89614600Y-80538600I-150000J0D01*
G01*
X88439600Y-80538600D01*
G75*
G02*
X88289600Y-80388600I0J150000D01*
G01*
G37*
%TD.AperFunction*%
%TO.P,U102,6*%
%TO.N,/a5*%
%TA.AperFunction,SMDPad,CuDef*%
G36*
G01*
X88289600Y-81658600D02*
X88289600Y-81358600D01*
G75*
G02*
X88439600Y-81208600I150000J0D01*
G01*
X89614600Y-81208600D01*
G75*
G02*
X89764600Y-81358600I0J-150000D01*
G01*
X89764600Y-81658600D01*
G75*
G02*
X89614600Y-81808600I-150000J0D01*
G01*
X88439600Y-81808600D01*
G75*
G02*
X88289600Y-81658600I0J150000D01*
G01*
G37*
%TD.AperFunction*%
%TO.P,U102,7*%
%TO.N,/a4*%
%TA.AperFunction,SMDPad,CuDef*%
G36*
G01*
X88289600Y-82928600D02*
X88289600Y-82628600D01*
G75*
G02*
X88439600Y-82478600I150000J0D01*
G01*
X89614600Y-82478600D01*
G75*
G02*
X89764600Y-82628600I0J-150000D01*
G01*
X89764600Y-82928600D01*
G75*
G02*
X89614600Y-83078600I-150000J0D01*
G01*
X88439600Y-83078600D01*
G75*
G02*
X88289600Y-82928600I0J150000D01*
G01*
G37*
%TD.AperFunction*%
%TO.P,U102,8*%
%TO.N,/a3*%
%TA.AperFunction,SMDPad,CuDef*%
G36*
G01*
X88289600Y-84198600D02*
X88289600Y-83898600D01*
G75*
G02*
X88439600Y-83748600I150000J0D01*
G01*
X89614600Y-83748600D01*
G75*
G02*
X89764600Y-83898600I0J-150000D01*
G01*
X89764600Y-84198600D01*
G75*
G02*
X89614600Y-84348600I-150000J0D01*
G01*
X88439600Y-84348600D01*
G75*
G02*
X88289600Y-84198600I0J150000D01*
G01*
G37*
%TD.AperFunction*%
%TO.P,U102,9*%
%TO.N,/a2*%
%TA.AperFunction,SMDPad,CuDef*%
G36*
G01*
X88289600Y-85468600D02*
X88289600Y-85168600D01*
G75*
G02*
X88439600Y-85018600I150000J0D01*
G01*
X89614600Y-85018600D01*
G75*
G02*
X89764600Y-85168600I0J-150000D01*
G01*
X89764600Y-85468600D01*
G75*
G02*
X89614600Y-85618600I-150000J0D01*
G01*
X88439600Y-85618600D01*
G75*
G02*
X88289600Y-85468600I0J150000D01*
G01*
G37*
%TD.AperFunction*%
%TO.P,U102,10*%
%TO.N,/a1*%
%TA.AperFunction,SMDPad,CuDef*%
G36*
G01*
X88289600Y-86738600D02*
X88289600Y-86438600D01*
G75*
G02*
X88439600Y-86288600I150000J0D01*
G01*
X89614600Y-86288600D01*
G75*
G02*
X89764600Y-86438600I0J-150000D01*
G01*
X89764600Y-86738600D01*
G75*
G02*
X89614600Y-86888600I-150000J0D01*
G01*
X88439600Y-86888600D01*
G75*
G02*
X88289600Y-86738600I0J150000D01*
G01*
G37*
%TD.AperFunction*%
%TO.P,U102,11*%
%TO.N,/a0*%
%TA.AperFunction,SMDPad,CuDef*%
G36*
G01*
X88289600Y-88008600D02*
X88289600Y-87708600D01*
G75*
G02*
X88439600Y-87558600I150000J0D01*
G01*
X89614600Y-87558600D01*
G75*
G02*
X89764600Y-87708600I0J-150000D01*
G01*
X89764600Y-88008600D01*
G75*
G02*
X89614600Y-88158600I-150000J0D01*
G01*
X88439600Y-88158600D01*
G75*
G02*
X88289600Y-88008600I0J150000D01*
G01*
G37*
%TD.AperFunction*%
%TO.P,U102,12*%
%TO.N,Net-(U102-Pad12)*%
%TA.AperFunction,SMDPad,CuDef*%
G36*
G01*
X88289600Y-89278600D02*
X88289600Y-88978600D01*
G75*
G02*
X88439600Y-88828600I150000J0D01*
G01*
X89614600Y-88828600D01*
G75*
G02*
X89764600Y-88978600I0J-150000D01*
G01*
X89764600Y-89278600D01*
G75*
G02*
X89614600Y-89428600I-150000J0D01*
G01*
X88439600Y-89428600D01*
G75*
G02*
X88289600Y-89278600I0J150000D01*
G01*
G37*
%TD.AperFunction*%
%TO.P,U102,13*%
%TO.N,/d0*%
%TA.AperFunction,SMDPad,CuDef*%
G36*
G01*
X88289600Y-90548600D02*
X88289600Y-90248600D01*
G75*
G02*
X88439600Y-90098600I150000J0D01*
G01*
X89614600Y-90098600D01*
G75*
G02*
X89764600Y-90248600I0J-150000D01*
G01*
X89764600Y-90548600D01*
G75*
G02*
X89614600Y-90698600I-150000J0D01*
G01*
X88439600Y-90698600D01*
G75*
G02*
X88289600Y-90548600I0J150000D01*
G01*
G37*
%TD.AperFunction*%
%TO.P,U102,14*%
%TO.N,/d1*%
%TA.AperFunction,SMDPad,CuDef*%
G36*
G01*
X90479600Y-92743600D02*
X90479600Y-91568600D01*
G75*
G02*
X90629600Y-91418600I150000J0D01*
G01*
X90929600Y-91418600D01*
G75*
G02*
X91079600Y-91568600I0J-150000D01*
G01*
X91079600Y-92743600D01*
G75*
G02*
X90929600Y-92893600I-150000J0D01*
G01*
X90629600Y-92893600D01*
G75*
G02*
X90479600Y-92743600I0J150000D01*
G01*
G37*
%TD.AperFunction*%
%TO.P,U102,15*%
%TO.N,/d2*%
%TA.AperFunction,SMDPad,CuDef*%
G36*
G01*
X91749600Y-92743600D02*
X91749600Y-91568600D01*
G75*
G02*
X91899600Y-91418600I150000J0D01*
G01*
X92199600Y-91418600D01*
G75*
G02*
X92349600Y-91568600I0J-150000D01*
G01*
X92349600Y-92743600D01*
G75*
G02*
X92199600Y-92893600I-150000J0D01*
G01*
X91899600Y-92893600D01*
G75*
G02*
X91749600Y-92743600I0J150000D01*
G01*
G37*
%TD.AperFunction*%
%TO.P,U102,16*%
%TO.N,GND*%
%TA.AperFunction,SMDPad,CuDef*%
G36*
G01*
X93019600Y-92743600D02*
X93019600Y-91568600D01*
G75*
G02*
X93169600Y-91418600I150000J0D01*
G01*
X93469600Y-91418600D01*
G75*
G02*
X93619600Y-91568600I0J-150000D01*
G01*
X93619600Y-92743600D01*
G75*
G02*
X93469600Y-92893600I-150000J0D01*
G01*
X93169600Y-92893600D01*
G75*
G02*
X93019600Y-92743600I0J150000D01*
G01*
G37*
%TD.AperFunction*%
%TO.P,U102,17*%
%TO.N,Net-(U102-Pad17)*%
%TA.AperFunction,SMDPad,CuDef*%
G36*
G01*
X94289600Y-92743600D02*
X94289600Y-91568600D01*
G75*
G02*
X94439600Y-91418600I150000J0D01*
G01*
X94739600Y-91418600D01*
G75*
G02*
X94889600Y-91568600I0J-150000D01*
G01*
X94889600Y-92743600D01*
G75*
G02*
X94739600Y-92893600I-150000J0D01*
G01*
X94439600Y-92893600D01*
G75*
G02*
X94289600Y-92743600I0J150000D01*
G01*
G37*
%TD.AperFunction*%
%TO.P,U102,18*%
%TO.N,/d3*%
%TA.AperFunction,SMDPad,CuDef*%
G36*
G01*
X95559600Y-92743600D02*
X95559600Y-91568600D01*
G75*
G02*
X95709600Y-91418600I150000J0D01*
G01*
X96009600Y-91418600D01*
G75*
G02*
X96159600Y-91568600I0J-150000D01*
G01*
X96159600Y-92743600D01*
G75*
G02*
X96009600Y-92893600I-150000J0D01*
G01*
X95709600Y-92893600D01*
G75*
G02*
X95559600Y-92743600I0J150000D01*
G01*
G37*
%TD.AperFunction*%
%TO.P,U102,19*%
%TO.N,/d4*%
%TA.AperFunction,SMDPad,CuDef*%
G36*
G01*
X96829600Y-92743600D02*
X96829600Y-91568600D01*
G75*
G02*
X96979600Y-91418600I150000J0D01*
G01*
X97279600Y-91418600D01*
G75*
G02*
X97429600Y-91568600I0J-150000D01*
G01*
X97429600Y-92743600D01*
G75*
G02*
X97279600Y-92893600I-150000J0D01*
G01*
X96979600Y-92893600D01*
G75*
G02*
X96829600Y-92743600I0J150000D01*
G01*
G37*
%TD.AperFunction*%
%TO.P,U102,20*%
%TO.N,/d5*%
%TA.AperFunction,SMDPad,CuDef*%
G36*
G01*
X98099600Y-92743600D02*
X98099600Y-91568600D01*
G75*
G02*
X98249600Y-91418600I150000J0D01*
G01*
X98549600Y-91418600D01*
G75*
G02*
X98699600Y-91568600I0J-150000D01*
G01*
X98699600Y-92743600D01*
G75*
G02*
X98549600Y-92893600I-150000J0D01*
G01*
X98249600Y-92893600D01*
G75*
G02*
X98099600Y-92743600I0J150000D01*
G01*
G37*
%TD.AperFunction*%
%TO.P,U102,21*%
%TO.N,/d6*%
%TA.AperFunction,SMDPad,CuDef*%
G36*
G01*
X99414600Y-90548600D02*
X99414600Y-90248600D01*
G75*
G02*
X99564600Y-90098600I150000J0D01*
G01*
X100739600Y-90098600D01*
G75*
G02*
X100889600Y-90248600I0J-150000D01*
G01*
X100889600Y-90548600D01*
G75*
G02*
X100739600Y-90698600I-150000J0D01*
G01*
X99564600Y-90698600D01*
G75*
G02*
X99414600Y-90548600I0J150000D01*
G01*
G37*
%TD.AperFunction*%
%TO.P,U102,22*%
%TO.N,/d7*%
%TA.AperFunction,SMDPad,CuDef*%
G36*
G01*
X99414600Y-89278600D02*
X99414600Y-88978600D01*
G75*
G02*
X99564600Y-88828600I150000J0D01*
G01*
X100739600Y-88828600D01*
G75*
G02*
X100889600Y-88978600I0J-150000D01*
G01*
X100889600Y-89278600D01*
G75*
G02*
X100739600Y-89428600I-150000J0D01*
G01*
X99564600Y-89428600D01*
G75*
G02*
X99414600Y-89278600I0J150000D01*
G01*
G37*
%TD.AperFunction*%
%TO.P,U102,23*%
%TO.N,/_ce*%
%TA.AperFunction,SMDPad,CuDef*%
G36*
G01*
X99414600Y-88008600D02*
X99414600Y-87708600D01*
G75*
G02*
X99564600Y-87558600I150000J0D01*
G01*
X100739600Y-87558600D01*
G75*
G02*
X100889600Y-87708600I0J-150000D01*
G01*
X100889600Y-88008600D01*
G75*
G02*
X100739600Y-88158600I-150000J0D01*
G01*
X99564600Y-88158600D01*
G75*
G02*
X99414600Y-88008600I0J150000D01*
G01*
G37*
%TD.AperFunction*%
%TO.P,U102,24*%
%TO.N,/a10*%
%TA.AperFunction,SMDPad,CuDef*%
G36*
G01*
X99414600Y-86738600D02*
X99414600Y-86438600D01*
G75*
G02*
X99564600Y-86288600I150000J0D01*
G01*
X100739600Y-86288600D01*
G75*
G02*
X100889600Y-86438600I0J-150000D01*
G01*
X100889600Y-86738600D01*
G75*
G02*
X100739600Y-86888600I-150000J0D01*
G01*
X99564600Y-86888600D01*
G75*
G02*
X99414600Y-86738600I0J150000D01*
G01*
G37*
%TD.AperFunction*%
%TO.P,U102,25*%
%TO.N,/_oe*%
%TA.AperFunction,SMDPad,CuDef*%
G36*
G01*
X99414600Y-85468600D02*
X99414600Y-85168600D01*
G75*
G02*
X99564600Y-85018600I150000J0D01*
G01*
X100739600Y-85018600D01*
G75*
G02*
X100889600Y-85168600I0J-150000D01*
G01*
X100889600Y-85468600D01*
G75*
G02*
X100739600Y-85618600I-150000J0D01*
G01*
X99564600Y-85618600D01*
G75*
G02*
X99414600Y-85468600I0J150000D01*
G01*
G37*
%TD.AperFunction*%
%TO.P,U102,26*%
%TO.N,Net-(U102-Pad26)*%
%TA.AperFunction,SMDPad,CuDef*%
G36*
G01*
X99414600Y-84198600D02*
X99414600Y-83898600D01*
G75*
G02*
X99564600Y-83748600I150000J0D01*
G01*
X100739600Y-83748600D01*
G75*
G02*
X100889600Y-83898600I0J-150000D01*
G01*
X100889600Y-84198600D01*
G75*
G02*
X100739600Y-84348600I-150000J0D01*
G01*
X99564600Y-84348600D01*
G75*
G02*
X99414600Y-84198600I0J150000D01*
G01*
G37*
%TD.AperFunction*%
%TO.P,U102,27*%
%TO.N,/a11*%
%TA.AperFunction,SMDPad,CuDef*%
G36*
G01*
X99414600Y-82928600D02*
X99414600Y-82628600D01*
G75*
G02*
X99564600Y-82478600I150000J0D01*
G01*
X100739600Y-82478600D01*
G75*
G02*
X100889600Y-82628600I0J-150000D01*
G01*
X100889600Y-82928600D01*
G75*
G02*
X100739600Y-83078600I-150000J0D01*
G01*
X99564600Y-83078600D01*
G75*
G02*
X99414600Y-82928600I0J150000D01*
G01*
G37*
%TD.AperFunction*%
%TO.P,U102,28*%
%TO.N,/a9*%
%TA.AperFunction,SMDPad,CuDef*%
G36*
G01*
X99414600Y-81658600D02*
X99414600Y-81358600D01*
G75*
G02*
X99564600Y-81208600I150000J0D01*
G01*
X100739600Y-81208600D01*
G75*
G02*
X100889600Y-81358600I0J-150000D01*
G01*
X100889600Y-81658600D01*
G75*
G02*
X100739600Y-81808600I-150000J0D01*
G01*
X99564600Y-81808600D01*
G75*
G02*
X99414600Y-81658600I0J150000D01*
G01*
G37*
%TD.AperFunction*%
%TO.P,U102,29*%
%TO.N,/a8*%
%TA.AperFunction,SMDPad,CuDef*%
G36*
G01*
X99414600Y-80388600D02*
X99414600Y-80088600D01*
G75*
G02*
X99564600Y-79938600I150000J0D01*
G01*
X100739600Y-79938600D01*
G75*
G02*
X100889600Y-80088600I0J-150000D01*
G01*
X100889600Y-80388600D01*
G75*
G02*
X100739600Y-80538600I-150000J0D01*
G01*
X99564600Y-80538600D01*
G75*
G02*
X99414600Y-80388600I0J150000D01*
G01*
G37*
%TD.AperFunction*%
%TO.P,U102,30*%
%TO.N,/a13*%
%TA.AperFunction,SMDPad,CuDef*%
G36*
G01*
X98099600Y-79068600D02*
X98099600Y-77893600D01*
G75*
G02*
X98249600Y-77743600I150000J0D01*
G01*
X98549600Y-77743600D01*
G75*
G02*
X98699600Y-77893600I0J-150000D01*
G01*
X98699600Y-79068600D01*
G75*
G02*
X98549600Y-79218600I-150000J0D01*
G01*
X98249600Y-79218600D01*
G75*
G02*
X98099600Y-79068600I0J150000D01*
G01*
G37*
%TD.AperFunction*%
%TO.P,U102,31*%
%TO.N,/a14*%
%TA.AperFunction,SMDPad,CuDef*%
G36*
G01*
X96829600Y-79068600D02*
X96829600Y-77893600D01*
G75*
G02*
X96979600Y-77743600I150000J0D01*
G01*
X97279600Y-77743600D01*
G75*
G02*
X97429600Y-77893600I0J-150000D01*
G01*
X97429600Y-79068600D01*
G75*
G02*
X97279600Y-79218600I-150000J0D01*
G01*
X96979600Y-79218600D01*
G75*
G02*
X96829600Y-79068600I0J150000D01*
G01*
G37*
%TD.AperFunction*%
%TO.P,U102,32*%
%TO.N,+5V*%
%TA.AperFunction,SMDPad,CuDef*%
G36*
G01*
X95559600Y-79068600D02*
X95559600Y-77893600D01*
G75*
G02*
X95709600Y-77743600I150000J0D01*
G01*
X96009600Y-77743600D01*
G75*
G02*
X96159600Y-77893600I0J-150000D01*
G01*
X96159600Y-79068600D01*
G75*
G02*
X96009600Y-79218600I-150000J0D01*
G01*
X95709600Y-79218600D01*
G75*
G02*
X95559600Y-79068600I0J150000D01*
G01*
G37*
%TD.AperFunction*%
%TD*%
D12*
%TO.N,/d7*%
X97536000Y-89382600D03*
%TO.N,/_ce*%
X98247200Y-87909400D03*
%TO.N,/a1*%
X91592400Y-86563200D03*
%TO.N,/a0*%
X92938600Y-87884000D03*
%TD*%
D13*
%TO.N,/a15*%
X93319600Y-78481100D02*
X93319600Y-74244200D01*
X88798601Y-69723201D02*
X86952401Y-69723201D01*
X93319600Y-74244200D02*
X88798601Y-69723201D01*
%TO.N,/d3*%
X95859600Y-96410400D02*
X102192401Y-102743201D01*
X95859600Y-92156100D02*
X95859600Y-96410400D01*
%TO.N,/a12*%
X92049600Y-78481100D02*
X92049600Y-74980800D01*
X89332001Y-72263201D02*
X86952401Y-72263201D01*
X92049600Y-74980800D02*
X89332001Y-72263201D01*
%TO.N,/d4*%
X97129600Y-95140400D02*
X97129600Y-92156100D01*
X102192401Y-100203201D02*
X97129600Y-95140400D01*
%TO.N,/a7*%
X90779600Y-78481100D02*
X90779600Y-75996800D01*
X89586001Y-74803201D02*
X86952401Y-74803201D01*
X90779600Y-75996800D02*
X89586001Y-74803201D01*
%TO.N,/d5*%
X98399600Y-93870400D02*
X102192401Y-97663201D01*
X98399600Y-92156100D02*
X98399600Y-93870400D01*
%TO.N,/a6*%
X89027100Y-80238600D02*
X89027100Y-77851100D01*
X88519201Y-77343201D02*
X86952401Y-77343201D01*
X89027100Y-77851100D02*
X88519201Y-77343201D01*
%TO.N,/d6*%
X100152100Y-90398600D02*
X100152100Y-93649700D01*
X101625601Y-95123201D02*
X102192401Y-95123201D01*
X100152100Y-93649700D02*
X101625601Y-95123201D01*
%TO.N,/a5*%
X89027100Y-81508600D02*
X88138000Y-81508600D01*
X86952401Y-80323001D02*
X86952401Y-79883201D01*
X88138000Y-81508600D02*
X86952401Y-80323001D01*
%TO.N,/d7*%
X99898100Y-89382600D02*
X100152100Y-89128600D01*
X97536000Y-89382600D02*
X99898100Y-89382600D01*
%TO.N,/a4*%
X87307800Y-82778600D02*
X86952401Y-82423201D01*
X89027100Y-82778600D02*
X87307800Y-82778600D01*
%TO.N,/_ce*%
X100101300Y-87909400D02*
X100152100Y-87858600D01*
X98247200Y-87909400D02*
X100101300Y-87909400D01*
%TO.N,/a3*%
X87867002Y-84048600D02*
X86952401Y-84963201D01*
X89027100Y-84048600D02*
X87867002Y-84048600D01*
%TO.N,/a10*%
X101277800Y-86588600D02*
X102192401Y-87503201D01*
X100152100Y-86588600D02*
X101277800Y-86588600D01*
%TO.N,/a2*%
X89027100Y-85318600D02*
X88544400Y-85318600D01*
X86952401Y-86910599D02*
X86952401Y-87503201D01*
X88544400Y-85318600D02*
X86952401Y-86910599D01*
%TO.N,/_oe*%
X101837002Y-85318600D02*
X102192401Y-84963201D01*
X100152100Y-85318600D02*
X101837002Y-85318600D01*
%TO.N,/a1*%
X89052500Y-86563200D02*
X89027100Y-86588600D01*
X91592400Y-86563200D02*
X89052500Y-86563200D01*
%TO.N,/a11*%
X101837002Y-82778600D02*
X102192401Y-82423201D01*
X100152100Y-82778600D02*
X101837002Y-82778600D01*
%TO.N,/a0*%
X89052500Y-87884000D02*
X89027100Y-87858600D01*
X92938600Y-87884000D02*
X89052500Y-87884000D01*
%TO.N,/a9*%
X100567002Y-81508600D02*
X102192401Y-79883201D01*
X100152100Y-81508600D02*
X100567002Y-81508600D01*
%TO.N,/d0*%
X86952401Y-95123201D02*
X87959999Y-95123201D01*
X89027100Y-94056100D02*
X89027100Y-90398600D01*
X87959999Y-95123201D02*
X89027100Y-94056100D01*
%TO.N,/a8*%
X100152100Y-80238600D02*
X100152100Y-79375100D01*
X102183999Y-77343201D02*
X102192401Y-77343201D01*
X100152100Y-79375100D02*
X102183999Y-77343201D01*
%TO.N,/d1*%
X90779600Y-92156100D02*
X90779600Y-94716600D01*
X87832999Y-97663201D02*
X86952401Y-97663201D01*
X90779600Y-94716600D02*
X87832999Y-97663201D01*
%TO.N,/a13*%
X102077499Y-74803201D02*
X102192401Y-74803201D01*
X98399600Y-78481100D02*
X102077499Y-74803201D01*
%TO.N,/d2*%
X92049600Y-92156100D02*
X92049600Y-95427800D01*
X87274199Y-100203201D02*
X86952401Y-100203201D01*
X92049600Y-95427800D02*
X87274199Y-100203201D01*
%TO.N,/a14*%
X97129600Y-77326002D02*
X102192401Y-72263201D01*
X97129600Y-78481100D02*
X97129600Y-77326002D01*
D14*
%TO.N,GND*%
X93319600Y-96376002D02*
X86952401Y-102743201D01*
X93319600Y-92156100D02*
X93319600Y-96376002D01*
%TO.N,+5V*%
X95859600Y-76056002D02*
X102192401Y-69723201D01*
X95859600Y-78481100D02*
X95859600Y-76056002D01*
%TD*%
M02*
