M48
; DRILL file {KiCad 5.1.12-84ad8e8a86~92~ubuntu18.04.1} date sam 24 jun 2023 13:51:33 CEST
; FORMAT={-:-/ absolute / metric / decimal}
; #@! TF.CreationDate,2023-06-24T13:51:33+02:00
; #@! TF.GenerationSoftware,Kicad,Pcbnew,5.1.12-84ad8e8a86~92~ubuntu18.04.1
; #@! TF.FileFunction,Plated,1,2,PTH
FMAT,2
METRIC
T1C0.400
T2C0.800
%
G90
G05
T1
X91.592Y-86.563
X92.939Y-87.884
X97.536Y-89.383
X98.247Y-87.909
T2
X86.952Y-69.723
X86.952Y-72.263
X86.952Y-74.803
X86.952Y-77.343
X86.952Y-79.883
X86.952Y-82.423
X86.952Y-84.963
X86.952Y-87.503
X86.952Y-90.043
X86.952Y-92.583
X86.952Y-95.123
X86.952Y-97.663
X86.952Y-100.203
X86.952Y-102.743
X102.192Y-69.723
X102.192Y-72.263
X102.192Y-74.803
X102.192Y-77.343
X102.192Y-79.883
X102.192Y-82.423
X102.192Y-84.963
X102.192Y-87.503
X102.192Y-90.043
X102.192Y-92.583
X102.192Y-95.123
X102.192Y-97.663
X102.192Y-100.203
X102.192Y-102.743
T0
M30
