%TF.GenerationSoftware,KiCad,Pcbnew,5.1.12-84ad8e8a86~92~ubuntu18.04.1*%
%TF.CreationDate,2023-06-24T13:51:17+02:00*%
%TF.ProjectId,EPROM-27512-GLS27SF512,4550524f-4d2d-4323-9735-31322d474c53,r2*%
%TF.SameCoordinates,Original*%
%TF.FileFunction,Paste,Top*%
%TF.FilePolarity,Positive*%
%FSLAX46Y46*%
G04 Gerber Fmt 4.6, Leading zero omitted, Abs format (unit mm)*
G04 Created by KiCad (PCBNEW 5.1.12-84ad8e8a86~92~ubuntu18.04.1) date 2023-06-24 13:51:17*
%MOMM*%
%LPD*%
G01*
G04 APERTURE LIST*
G04 APERTURE END LIST*
%TO.C,U102*%
G36*
G01*
X94289600Y-79068600D02*
X94289600Y-77893600D01*
G75*
G02*
X94439600Y-77743600I150000J0D01*
G01*
X94739600Y-77743600D01*
G75*
G02*
X94889600Y-77893600I0J-150000D01*
G01*
X94889600Y-79068600D01*
G75*
G02*
X94739600Y-79218600I-150000J0D01*
G01*
X94439600Y-79218600D01*
G75*
G02*
X94289600Y-79068600I0J150000D01*
G01*
G37*
G36*
G01*
X93019600Y-79068600D02*
X93019600Y-77893600D01*
G75*
G02*
X93169600Y-77743600I150000J0D01*
G01*
X93469600Y-77743600D01*
G75*
G02*
X93619600Y-77893600I0J-150000D01*
G01*
X93619600Y-79068600D01*
G75*
G02*
X93469600Y-79218600I-150000J0D01*
G01*
X93169600Y-79218600D01*
G75*
G02*
X93019600Y-79068600I0J150000D01*
G01*
G37*
G36*
G01*
X91749600Y-79068600D02*
X91749600Y-77893600D01*
G75*
G02*
X91899600Y-77743600I150000J0D01*
G01*
X92199600Y-77743600D01*
G75*
G02*
X92349600Y-77893600I0J-150000D01*
G01*
X92349600Y-79068600D01*
G75*
G02*
X92199600Y-79218600I-150000J0D01*
G01*
X91899600Y-79218600D01*
G75*
G02*
X91749600Y-79068600I0J150000D01*
G01*
G37*
G36*
G01*
X90479600Y-79068600D02*
X90479600Y-77893600D01*
G75*
G02*
X90629600Y-77743600I150000J0D01*
G01*
X90929600Y-77743600D01*
G75*
G02*
X91079600Y-77893600I0J-150000D01*
G01*
X91079600Y-79068600D01*
G75*
G02*
X90929600Y-79218600I-150000J0D01*
G01*
X90629600Y-79218600D01*
G75*
G02*
X90479600Y-79068600I0J150000D01*
G01*
G37*
G36*
G01*
X88289600Y-80388600D02*
X88289600Y-80088600D01*
G75*
G02*
X88439600Y-79938600I150000J0D01*
G01*
X89614600Y-79938600D01*
G75*
G02*
X89764600Y-80088600I0J-150000D01*
G01*
X89764600Y-80388600D01*
G75*
G02*
X89614600Y-80538600I-150000J0D01*
G01*
X88439600Y-80538600D01*
G75*
G02*
X88289600Y-80388600I0J150000D01*
G01*
G37*
G36*
G01*
X88289600Y-81658600D02*
X88289600Y-81358600D01*
G75*
G02*
X88439600Y-81208600I150000J0D01*
G01*
X89614600Y-81208600D01*
G75*
G02*
X89764600Y-81358600I0J-150000D01*
G01*
X89764600Y-81658600D01*
G75*
G02*
X89614600Y-81808600I-150000J0D01*
G01*
X88439600Y-81808600D01*
G75*
G02*
X88289600Y-81658600I0J150000D01*
G01*
G37*
G36*
G01*
X88289600Y-82928600D02*
X88289600Y-82628600D01*
G75*
G02*
X88439600Y-82478600I150000J0D01*
G01*
X89614600Y-82478600D01*
G75*
G02*
X89764600Y-82628600I0J-150000D01*
G01*
X89764600Y-82928600D01*
G75*
G02*
X89614600Y-83078600I-150000J0D01*
G01*
X88439600Y-83078600D01*
G75*
G02*
X88289600Y-82928600I0J150000D01*
G01*
G37*
G36*
G01*
X88289600Y-84198600D02*
X88289600Y-83898600D01*
G75*
G02*
X88439600Y-83748600I150000J0D01*
G01*
X89614600Y-83748600D01*
G75*
G02*
X89764600Y-83898600I0J-150000D01*
G01*
X89764600Y-84198600D01*
G75*
G02*
X89614600Y-84348600I-150000J0D01*
G01*
X88439600Y-84348600D01*
G75*
G02*
X88289600Y-84198600I0J150000D01*
G01*
G37*
G36*
G01*
X88289600Y-85468600D02*
X88289600Y-85168600D01*
G75*
G02*
X88439600Y-85018600I150000J0D01*
G01*
X89614600Y-85018600D01*
G75*
G02*
X89764600Y-85168600I0J-150000D01*
G01*
X89764600Y-85468600D01*
G75*
G02*
X89614600Y-85618600I-150000J0D01*
G01*
X88439600Y-85618600D01*
G75*
G02*
X88289600Y-85468600I0J150000D01*
G01*
G37*
G36*
G01*
X88289600Y-86738600D02*
X88289600Y-86438600D01*
G75*
G02*
X88439600Y-86288600I150000J0D01*
G01*
X89614600Y-86288600D01*
G75*
G02*
X89764600Y-86438600I0J-150000D01*
G01*
X89764600Y-86738600D01*
G75*
G02*
X89614600Y-86888600I-150000J0D01*
G01*
X88439600Y-86888600D01*
G75*
G02*
X88289600Y-86738600I0J150000D01*
G01*
G37*
G36*
G01*
X88289600Y-88008600D02*
X88289600Y-87708600D01*
G75*
G02*
X88439600Y-87558600I150000J0D01*
G01*
X89614600Y-87558600D01*
G75*
G02*
X89764600Y-87708600I0J-150000D01*
G01*
X89764600Y-88008600D01*
G75*
G02*
X89614600Y-88158600I-150000J0D01*
G01*
X88439600Y-88158600D01*
G75*
G02*
X88289600Y-88008600I0J150000D01*
G01*
G37*
G36*
G01*
X88289600Y-89278600D02*
X88289600Y-88978600D01*
G75*
G02*
X88439600Y-88828600I150000J0D01*
G01*
X89614600Y-88828600D01*
G75*
G02*
X89764600Y-88978600I0J-150000D01*
G01*
X89764600Y-89278600D01*
G75*
G02*
X89614600Y-89428600I-150000J0D01*
G01*
X88439600Y-89428600D01*
G75*
G02*
X88289600Y-89278600I0J150000D01*
G01*
G37*
G36*
G01*
X88289600Y-90548600D02*
X88289600Y-90248600D01*
G75*
G02*
X88439600Y-90098600I150000J0D01*
G01*
X89614600Y-90098600D01*
G75*
G02*
X89764600Y-90248600I0J-150000D01*
G01*
X89764600Y-90548600D01*
G75*
G02*
X89614600Y-90698600I-150000J0D01*
G01*
X88439600Y-90698600D01*
G75*
G02*
X88289600Y-90548600I0J150000D01*
G01*
G37*
G36*
G01*
X90479600Y-92743600D02*
X90479600Y-91568600D01*
G75*
G02*
X90629600Y-91418600I150000J0D01*
G01*
X90929600Y-91418600D01*
G75*
G02*
X91079600Y-91568600I0J-150000D01*
G01*
X91079600Y-92743600D01*
G75*
G02*
X90929600Y-92893600I-150000J0D01*
G01*
X90629600Y-92893600D01*
G75*
G02*
X90479600Y-92743600I0J150000D01*
G01*
G37*
G36*
G01*
X91749600Y-92743600D02*
X91749600Y-91568600D01*
G75*
G02*
X91899600Y-91418600I150000J0D01*
G01*
X92199600Y-91418600D01*
G75*
G02*
X92349600Y-91568600I0J-150000D01*
G01*
X92349600Y-92743600D01*
G75*
G02*
X92199600Y-92893600I-150000J0D01*
G01*
X91899600Y-92893600D01*
G75*
G02*
X91749600Y-92743600I0J150000D01*
G01*
G37*
G36*
G01*
X93019600Y-92743600D02*
X93019600Y-91568600D01*
G75*
G02*
X93169600Y-91418600I150000J0D01*
G01*
X93469600Y-91418600D01*
G75*
G02*
X93619600Y-91568600I0J-150000D01*
G01*
X93619600Y-92743600D01*
G75*
G02*
X93469600Y-92893600I-150000J0D01*
G01*
X93169600Y-92893600D01*
G75*
G02*
X93019600Y-92743600I0J150000D01*
G01*
G37*
G36*
G01*
X94289600Y-92743600D02*
X94289600Y-91568600D01*
G75*
G02*
X94439600Y-91418600I150000J0D01*
G01*
X94739600Y-91418600D01*
G75*
G02*
X94889600Y-91568600I0J-150000D01*
G01*
X94889600Y-92743600D01*
G75*
G02*
X94739600Y-92893600I-150000J0D01*
G01*
X94439600Y-92893600D01*
G75*
G02*
X94289600Y-92743600I0J150000D01*
G01*
G37*
G36*
G01*
X95559600Y-92743600D02*
X95559600Y-91568600D01*
G75*
G02*
X95709600Y-91418600I150000J0D01*
G01*
X96009600Y-91418600D01*
G75*
G02*
X96159600Y-91568600I0J-150000D01*
G01*
X96159600Y-92743600D01*
G75*
G02*
X96009600Y-92893600I-150000J0D01*
G01*
X95709600Y-92893600D01*
G75*
G02*
X95559600Y-92743600I0J150000D01*
G01*
G37*
G36*
G01*
X96829600Y-92743600D02*
X96829600Y-91568600D01*
G75*
G02*
X96979600Y-91418600I150000J0D01*
G01*
X97279600Y-91418600D01*
G75*
G02*
X97429600Y-91568600I0J-150000D01*
G01*
X97429600Y-92743600D01*
G75*
G02*
X97279600Y-92893600I-150000J0D01*
G01*
X96979600Y-92893600D01*
G75*
G02*
X96829600Y-92743600I0J150000D01*
G01*
G37*
G36*
G01*
X98099600Y-92743600D02*
X98099600Y-91568600D01*
G75*
G02*
X98249600Y-91418600I150000J0D01*
G01*
X98549600Y-91418600D01*
G75*
G02*
X98699600Y-91568600I0J-150000D01*
G01*
X98699600Y-92743600D01*
G75*
G02*
X98549600Y-92893600I-150000J0D01*
G01*
X98249600Y-92893600D01*
G75*
G02*
X98099600Y-92743600I0J150000D01*
G01*
G37*
G36*
G01*
X99414600Y-90548600D02*
X99414600Y-90248600D01*
G75*
G02*
X99564600Y-90098600I150000J0D01*
G01*
X100739600Y-90098600D01*
G75*
G02*
X100889600Y-90248600I0J-150000D01*
G01*
X100889600Y-90548600D01*
G75*
G02*
X100739600Y-90698600I-150000J0D01*
G01*
X99564600Y-90698600D01*
G75*
G02*
X99414600Y-90548600I0J150000D01*
G01*
G37*
G36*
G01*
X99414600Y-89278600D02*
X99414600Y-88978600D01*
G75*
G02*
X99564600Y-88828600I150000J0D01*
G01*
X100739600Y-88828600D01*
G75*
G02*
X100889600Y-88978600I0J-150000D01*
G01*
X100889600Y-89278600D01*
G75*
G02*
X100739600Y-89428600I-150000J0D01*
G01*
X99564600Y-89428600D01*
G75*
G02*
X99414600Y-89278600I0J150000D01*
G01*
G37*
G36*
G01*
X99414600Y-88008600D02*
X99414600Y-87708600D01*
G75*
G02*
X99564600Y-87558600I150000J0D01*
G01*
X100739600Y-87558600D01*
G75*
G02*
X100889600Y-87708600I0J-150000D01*
G01*
X100889600Y-88008600D01*
G75*
G02*
X100739600Y-88158600I-150000J0D01*
G01*
X99564600Y-88158600D01*
G75*
G02*
X99414600Y-88008600I0J150000D01*
G01*
G37*
G36*
G01*
X99414600Y-86738600D02*
X99414600Y-86438600D01*
G75*
G02*
X99564600Y-86288600I150000J0D01*
G01*
X100739600Y-86288600D01*
G75*
G02*
X100889600Y-86438600I0J-150000D01*
G01*
X100889600Y-86738600D01*
G75*
G02*
X100739600Y-86888600I-150000J0D01*
G01*
X99564600Y-86888600D01*
G75*
G02*
X99414600Y-86738600I0J150000D01*
G01*
G37*
G36*
G01*
X99414600Y-85468600D02*
X99414600Y-85168600D01*
G75*
G02*
X99564600Y-85018600I150000J0D01*
G01*
X100739600Y-85018600D01*
G75*
G02*
X100889600Y-85168600I0J-150000D01*
G01*
X100889600Y-85468600D01*
G75*
G02*
X100739600Y-85618600I-150000J0D01*
G01*
X99564600Y-85618600D01*
G75*
G02*
X99414600Y-85468600I0J150000D01*
G01*
G37*
G36*
G01*
X99414600Y-84198600D02*
X99414600Y-83898600D01*
G75*
G02*
X99564600Y-83748600I150000J0D01*
G01*
X100739600Y-83748600D01*
G75*
G02*
X100889600Y-83898600I0J-150000D01*
G01*
X100889600Y-84198600D01*
G75*
G02*
X100739600Y-84348600I-150000J0D01*
G01*
X99564600Y-84348600D01*
G75*
G02*
X99414600Y-84198600I0J150000D01*
G01*
G37*
G36*
G01*
X99414600Y-82928600D02*
X99414600Y-82628600D01*
G75*
G02*
X99564600Y-82478600I150000J0D01*
G01*
X100739600Y-82478600D01*
G75*
G02*
X100889600Y-82628600I0J-150000D01*
G01*
X100889600Y-82928600D01*
G75*
G02*
X100739600Y-83078600I-150000J0D01*
G01*
X99564600Y-83078600D01*
G75*
G02*
X99414600Y-82928600I0J150000D01*
G01*
G37*
G36*
G01*
X99414600Y-81658600D02*
X99414600Y-81358600D01*
G75*
G02*
X99564600Y-81208600I150000J0D01*
G01*
X100739600Y-81208600D01*
G75*
G02*
X100889600Y-81358600I0J-150000D01*
G01*
X100889600Y-81658600D01*
G75*
G02*
X100739600Y-81808600I-150000J0D01*
G01*
X99564600Y-81808600D01*
G75*
G02*
X99414600Y-81658600I0J150000D01*
G01*
G37*
G36*
G01*
X99414600Y-80388600D02*
X99414600Y-80088600D01*
G75*
G02*
X99564600Y-79938600I150000J0D01*
G01*
X100739600Y-79938600D01*
G75*
G02*
X100889600Y-80088600I0J-150000D01*
G01*
X100889600Y-80388600D01*
G75*
G02*
X100739600Y-80538600I-150000J0D01*
G01*
X99564600Y-80538600D01*
G75*
G02*
X99414600Y-80388600I0J150000D01*
G01*
G37*
G36*
G01*
X98099600Y-79068600D02*
X98099600Y-77893600D01*
G75*
G02*
X98249600Y-77743600I150000J0D01*
G01*
X98549600Y-77743600D01*
G75*
G02*
X98699600Y-77893600I0J-150000D01*
G01*
X98699600Y-79068600D01*
G75*
G02*
X98549600Y-79218600I-150000J0D01*
G01*
X98249600Y-79218600D01*
G75*
G02*
X98099600Y-79068600I0J150000D01*
G01*
G37*
G36*
G01*
X96829600Y-79068600D02*
X96829600Y-77893600D01*
G75*
G02*
X96979600Y-77743600I150000J0D01*
G01*
X97279600Y-77743600D01*
G75*
G02*
X97429600Y-77893600I0J-150000D01*
G01*
X97429600Y-79068600D01*
G75*
G02*
X97279600Y-79218600I-150000J0D01*
G01*
X96979600Y-79218600D01*
G75*
G02*
X96829600Y-79068600I0J150000D01*
G01*
G37*
G36*
G01*
X95559600Y-79068600D02*
X95559600Y-77893600D01*
G75*
G02*
X95709600Y-77743600I150000J0D01*
G01*
X96009600Y-77743600D01*
G75*
G02*
X96159600Y-77893600I0J-150000D01*
G01*
X96159600Y-79068600D01*
G75*
G02*
X96009600Y-79218600I-150000J0D01*
G01*
X95709600Y-79218600D01*
G75*
G02*
X95559600Y-79068600I0J150000D01*
G01*
G37*
%TD*%
M02*
